<svg width="27" height="27" viewBox="0 0 27 27" fill="none" xmlns="http://www.w3.org/2000/svg">
<path d="M5.24089 11.5334C6.4375 11.5334 7.40755 12.5034 7.40755 13.7C7.40755 14.8966 6.4375 15.8667 5.24089 15.8667C4.04427 15.8667 3.07422 14.8966 3.07422 13.7C3.07422 12.5034 4.04427 11.5334 5.24089 11.5334Z" fill="#14142B"/>
<path fill-rule="evenodd" clip-rule="evenodd" d="M3.88672 13.7001C3.88672 14.4479 4.493 15.0542 5.24089 15.0542C5.98877 15.0542 6.59505 14.4479 6.59505 13.7001C6.59505 12.9522 5.98877 12.3459 5.24089 12.3459C4.493 12.3459 3.88672 12.9522 3.88672 13.7001ZM5.24089 16.6792C3.59554 16.6792 2.26172 15.3454 2.26172 13.7001C2.26172 12.0547 3.59554 10.7209 5.24089 10.7209C6.88623 10.7209 8.22005 12.0547 8.22005 13.7001C8.22005 15.3454 6.88623 16.6792 5.24089 16.6792Z" fill="#14142B"/>
<path d="M13.9089 11.5334C15.1055 11.5334 16.0755 12.5034 16.0755 13.7C16.0755 14.8966 15.1055 15.8667 13.9089 15.8667C12.7122 15.8667 11.7422 14.8966 11.7422 13.7C11.7422 12.5034 12.7122 11.5334 13.9089 11.5334Z" fill="#14142B"/>
<path fill-rule="evenodd" clip-rule="evenodd" d="M12.5547 13.7001C12.5547 14.4479 13.161 15.0542 13.9089 15.0542C14.6567 15.0542 15.263 14.4479 15.263 13.7001C15.263 12.9522 14.6567 12.3459 13.9089 12.3459C13.161 12.3459 12.5547 12.9522 12.5547 13.7001ZM13.9089 16.6792C12.2635 16.6792 10.9297 15.3454 10.9297 13.7001C10.9297 12.0547 12.2635 10.7209 13.9089 10.7209C15.5542 10.7209 16.888 12.0547 16.888 13.7001C16.888 15.3454 15.5542 16.6792 13.9089 16.6792Z" fill="#14142B"/>
<path d="M22.5768 11.5334C23.7734 11.5334 24.7435 12.5034 24.7435 13.7C24.7435 14.8966 23.7734 15.8667 22.5768 15.8667C21.3802 15.8667 20.4102 14.8966 20.4102 13.7C20.4102 12.5034 21.3802 11.5334 22.5768 11.5334Z" fill="#14142B"/>
<path fill-rule="evenodd" clip-rule="evenodd" d="M21.2227 13.7001C21.2227 14.4479 21.8289 15.0542 22.5768 15.0542C23.3247 15.0542 23.931 14.4479 23.931 13.7001C23.931 12.9522 23.3247 12.3459 22.5768 12.3459C21.8289 12.3459 21.2227 12.9522 21.2227 13.7001ZM22.5768 16.6792C20.9315 16.6792 19.5977 15.3454 19.5977 13.7001C19.5977 12.0547 20.9315 10.7209 22.5768 10.7209C24.2222 10.7209 25.556 12.0547 25.556 13.7001C25.556 15.3454 24.2222 16.6792 22.5768 16.6792Z" fill="#14142B"/>
</svg>
