<svg width="170" height="60" viewBox="0 0 170 60" fill="none" xmlns="http://www.w3.org/2000/svg">
<g clip-path="url(#clip0)">
<path d="M52.3459 32.1678L51.4006 39.408H32.4395V38.9842C34.8179 38.9842 34.9805 37.2278 34.9805 34.6289V18.6217C34.9805 16.0228 34.8382 14.2663 32.4395 14.2663V13.8477H50.8213L51.3803 20.3118H50.9636C48.5852 16.227 46.8979 14.828 42.9898 14.828H41.6736V25.5301H42.3698C46.0086 25.5301 47.1266 24.4782 48.1075 22.2265H48.5242V30.396H48.1075C47.0555 27.7971 46.0086 26.7453 42.3698 26.7453H41.6736V36.8193C41.6736 37.769 41.9175 38.4379 43.0711 38.4379H43.3506C46.8115 38.4379 49.1899 37.3146 51.919 32.1831L52.3459 32.1678Z" fill="white"/>
<path d="M52.6504 26.7037C52.6504 18.8712 58.3169 13.4283 65.6249 13.4283C68.3633 13.4107 71.0866 13.8365 73.6901 14.6894V21.7152H73.2683C71.3117 17.3598 69.0756 14.4086 65.4368 14.4086C61.1019 14.4086 59.7754 19.2899 59.7754 26.5965C59.7754 33.6938 60.7918 38.8508 65.2641 38.8508C67.2207 38.8508 67.673 37.5845 67.673 35.5472V32.1671C67.673 29.5682 67.5357 27.9547 65.508 27.8117V27.393H75.296V27.8117C74.2491 27.9547 74.178 29.5682 74.178 32.1671V37.273C72.2214 38.6057 68.8622 39.826 65.0303 39.826C57.1277 39.826 52.6504 34.7813 52.6504 26.7037Z" fill="white"/>
<path d="M93.4182 34.9246C94.4346 37.6971 95.1665 38.8613 96.5996 39.0094V39.4332H84.611V39.0094C86.776 38.8715 87.4062 37.7431 86.7404 35.8845L85.414 32.1265H78.8734C77.4758 36.1296 77.7909 38.3762 80.1337 39.0094V39.4332H73.9082V39.0094C75.0263 38.3762 76.2155 35.9458 77.7553 31.7385L84.4687 13.2754H85.4496L93.4182 34.9246ZM79.3968 30.7071H84.8702L82.1411 23.0124L79.3968 30.7071Z" fill="white"/>
<path d="M102.15 14.2663C99.8424 14.971 99.1462 17.432 99.1462 20.7305V28.5324L108.909 13.8477H117.904V14.2663C116.578 14.5472 115.038 15.6756 115.038 18.5553V31.1466C115.038 35.8543 115.876 38.734 117.904 39.0149V39.4387H110.621V39.0149C112.654 38.877 113.838 35.8543 113.838 31.1466V17.9579L98.8768 39.985H97.9671V20.7305C97.9671 17.432 97.5453 14.4093 95.5176 14.2663V13.8477H102.15V14.2663Z" fill="white"/>
<path d="M117.904 26.7032C117.904 18.8349 122.559 13.4277 129.969 13.4277C137.379 13.4277 141.963 18.5592 141.963 26.5653C141.963 34.4387 137.313 39.8408 129.898 39.8408C122.483 39.8408 117.904 34.7195 117.904 26.7032ZM134.828 26.6317C134.828 19.5345 133.501 14.4081 129.934 14.4081C126.366 14.4081 125.019 19.3251 125.019 26.6317C125.019 33.729 126.315 38.886 129.949 38.886C133.582 38.886 134.817 33.9383 134.817 26.6317H134.828Z" fill="white"/>
<path d="M146.323 14.2663C143.945 14.8995 143.665 17.2176 145.134 21.3279L148.351 30.2531L152.925 17.3963C153.591 15.5326 152.96 14.4093 150.795 14.2663V13.8477H162.789V14.2663C161.356 14.4093 160.619 15.5684 159.608 18.3511L151.639 39.985H150.658L143.945 21.5423C142.42 17.3248 141.221 14.9046 140.098 14.2663V13.8477H146.323V14.2663Z" fill="white"/>
<path d="M20.2828 39.5601C11.8567 39.5601 7.24219 34.6073 7.24219 26.4582C7.24219 18.447 11.4044 13.9844 19.9473 13.9844H31.2803V14.4082C28.9019 14.4082 28.7393 16.1646 28.7393 18.7635V34.7809C28.7393 37.3798 28.8816 39.1363 31.2803 39.1363V39.5601H20.2828ZM19.5509 38.5746C21.5838 38.5746 22.092 37.8751 22.092 36.328V16.231C22.092 15.3885 21.5838 14.9698 20.7655 14.9698H19.7491C15.836 14.9698 14.4028 19.1465 14.4028 26.6675C14.3774 34.8166 15.7546 38.5746 19.5509 38.5746Z" fill="white"/>
<path d="M8.92931 51.2585C7.80109 51.2585 6.89648 50.6202 6.89648 49.3233C6.89648 48.0264 7.81634 47.3984 8.92931 47.378V46.2598H9.43751V47.378C10.5657 47.378 11.4703 48.0213 11.4703 49.3233C11.4703 50.6254 10.5505 51.2381 9.43751 51.2585V52.7596H8.92931V51.2585ZM8.92931 47.863C8.54517 47.863 8.17677 48.0163 7.90514 48.2893C7.63352 48.5622 7.48092 48.9323 7.48092 49.3182C7.48092 49.7042 7.63352 50.0743 7.90514 50.3472C8.17677 50.6201 8.54517 50.7734 8.92931 50.7734V47.863ZM9.43751 50.7734C9.82165 50.7734 10.1901 50.6201 10.4617 50.3472C10.7333 50.0743 10.8859 49.7042 10.8859 49.3182C10.8859 48.9323 10.7333 48.5622 10.4617 48.2893C10.1901 48.0163 9.82165 47.863 9.43751 47.863V50.7734Z" fill="white"/>
<path d="M15.8813 48.8994V51.192H15.3731V50.5487C15.2387 50.7859 15.0408 50.9806 14.8019 51.1105C14.5629 51.2405 14.2925 51.3006 14.0213 51.2839C13.2183 51.2839 12.7305 50.8703 12.7305 50.1963C12.7305 49.4049 13.3352 49.1037 14.2551 48.9913L15.3782 48.8484C15.3782 48.108 15.0733 47.7914 14.3923 47.7914C14.1666 47.7647 13.9389 47.8215 13.7519 47.9512C13.5648 48.0809 13.4311 48.2746 13.3759 48.4961L12.8982 48.3786C12.982 48.047 13.1827 47.7571 13.4631 47.5627C13.7434 47.3684 14.0844 47.2827 14.4228 47.3217C15.3884 47.337 15.8813 47.8527 15.8813 48.8994ZM14.3008 49.41C13.5385 49.507 13.2336 49.7215 13.2336 50.1708C13.2336 50.6201 13.5334 50.8346 14.1077 50.8346C14.3951 50.8524 14.6788 50.7626 14.9041 50.5824C15.1293 50.4023 15.2802 50.1447 15.3274 49.8593C15.3644 49.6677 15.3797 49.4724 15.3731 49.2773L14.3008 49.41Z" fill="white"/>
<path d="M17.2797 49.2772C17.2647 48.9244 17.2766 48.5711 17.3153 48.2202C17.4169 47.4288 17.6049 46.9284 18.0725 46.6272C18.7433 46.1983 19.4751 46.331 20.4712 46.0859L20.5119 46.571C19.6022 46.8008 18.8907 46.6987 18.3723 47.0152C18.0115 47.2399 17.8641 47.5871 17.7879 48.3836C17.9207 48.1635 18.1104 47.9837 18.3368 47.8632C18.5632 47.7427 18.8178 47.6861 19.0737 47.6994C20.0291 47.6994 20.6898 48.4194 20.6898 49.4967C20.7097 49.7337 20.6788 49.9721 20.5993 50.1961C20.5198 50.4201 20.3935 50.6243 20.2288 50.7951C20.0641 50.9659 19.8649 51.0992 19.6446 51.1862C19.4243 51.2731 19.188 51.3116 18.9517 51.2991C17.8895 51.294 17.3051 50.5485 17.2797 49.2772ZM20.1511 49.5069C20.1511 48.7002 19.7343 48.1896 19.0025 48.1896C18.2707 48.1896 17.8184 48.7002 17.8184 49.5069C17.7996 49.6721 17.8157 49.8393 17.8657 49.9978C17.9157 50.1562 17.9985 50.3022 18.1087 50.4263C18.2188 50.5503 18.3538 50.6495 18.5047 50.7175C18.6557 50.7855 18.8193 50.8206 18.9847 50.8206C19.1502 50.8206 19.3137 50.7855 19.4647 50.7175C19.6157 50.6495 19.7507 50.5503 19.8608 50.4263C19.9709 50.3022 20.0537 50.1562 20.1037 49.9978C20.1537 49.8393 20.1699 49.6721 20.1511 49.5069Z" fill="white"/>
<path d="M22.1367 52.8612V47.4387H22.6449V48.0718C22.7672 47.8366 22.9546 47.642 23.1846 47.5115C23.4146 47.381 23.6772 47.3203 23.9408 47.3366C25.003 47.3366 25.6433 48.1535 25.6433 49.3126C25.6433 50.4716 24.9928 51.2988 23.9408 51.2988C23.6757 51.3131 23.4122 51.2498 23.1821 51.1165C22.9521 50.9833 22.7655 50.7859 22.6449 50.5482V52.8459L22.1367 52.8612ZM25.0996 49.2871C25.0996 48.3833 24.693 47.8012 23.8697 47.8012C23.0464 47.8012 22.6449 48.4139 22.6449 49.2871C22.6449 50.1602 23.0617 50.7831 23.8697 50.7831C24.6777 50.7831 25.0996 50.201 25.0996 49.3126V49.2871Z" fill="white"/>
<path d="M30.0648 47.4395V51.1923H29.5566V48.2513L27.6 51.1923H27.0918V47.4395H27.6V50.3856L29.5566 47.4395H30.0648Z" fill="white"/>
<path d="M31.7223 47.4395H32.2305V49.247L33.8974 47.4395H34.5581L32.8098 49.3184L34.7868 51.1923H34.0499L32.2152 49.3848V51.1923H31.707L31.7223 47.4395Z" fill="white"/>
<path d="M38.7856 48.8994V51.192H38.2774V50.5487C38.143 50.7859 37.9451 50.9806 37.7062 51.1105C37.4672 51.2405 37.1968 51.3006 36.9256 51.2839C36.1226 51.2839 35.6348 50.8703 35.6348 50.1963C35.6348 49.4049 36.2395 49.1037 37.1594 48.9913L38.2825 48.8484C38.2825 48.108 37.9776 47.7914 37.2966 47.7914C37.0709 47.7647 36.8432 47.8215 36.6562 47.9512C36.4691 48.0809 36.3354 48.2746 36.2802 48.4961L35.8025 48.3786C35.8863 48.047 36.087 47.7571 36.3674 47.5627C36.6477 47.3684 36.9887 47.2827 37.3271 47.3217C38.2927 47.337 38.7856 47.8527 38.7856 48.8994ZM37.2051 49.41C36.4428 49.507 36.1379 49.7215 36.1379 50.1708C36.1379 50.6201 36.4377 50.8346 37.012 50.8346C37.2991 50.8512 37.5823 50.761 37.8073 50.5811C38.0323 50.4011 38.1834 50.1442 38.2317 49.8593C38.2687 49.6677 38.284 49.4724 38.2774 49.2773L37.2051 49.41Z" fill="white"/>
<path d="M42.4512 51.1923V47.4395H43.8894C44.7686 47.4395 45.2361 47.7867 45.2361 48.4606C45.2468 48.6311 45.2033 48.8006 45.112 48.9446C45.0207 49.0887 44.8862 49.1999 44.7279 49.2623C44.9176 49.3224 45.0824 49.4434 45.1971 49.6066C45.3119 49.7698 45.3702 49.9663 45.3632 50.166C45.3632 50.8451 44.855 51.1872 43.9504 51.1872L42.4512 51.1923ZM42.9289 47.8786V49.0631H44.0215C44.4433 49.0631 44.733 48.8844 44.733 48.4964C44.733 48.1083 44.4992 47.8786 43.8843 47.8786H42.9289ZM43.9453 50.7583C44.5551 50.7583 44.8651 50.5694 44.8651 50.1354C44.8651 49.7014 44.5247 49.4972 44.0876 49.4972H42.934V50.7583H43.9453Z" fill="white"/>
<path d="M46.5156 49.3139C46.5156 48.1395 47.1915 47.3379 48.2842 47.3379C49.3768 47.3379 50.0527 48.1497 50.0527 49.3139C50.0527 50.478 49.3921 51.3001 48.2842 51.3001C47.1763 51.3001 46.5156 50.4832 46.5156 49.3139ZM49.514 49.3139C49.514 48.3999 49.0973 47.8281 48.2842 47.8281C47.4711 47.8281 47.0543 48.4204 47.0543 49.3139C47.0543 50.2074 47.4812 50.8099 48.2842 50.8099C49.0871 50.8099 49.514 50.2125 49.514 49.3139Z" fill="white"/>
<path d="M51.3281 49.3184C51.3281 48.1083 51.9939 47.3373 53.0865 47.3373C53.4221 47.3153 53.7558 47.4028 54.0379 47.5868C54.32 47.7709 54.5353 48.0415 54.6518 48.3585L54.1436 48.5219C54.0597 48.3068 53.9116 48.1231 53.7196 47.996C53.5276 47.8689 53.3011 47.8047 53.0713 47.8122C52.2836 47.8122 51.8567 48.3789 51.8567 49.3031C51.8567 50.2273 52.2683 50.794 53.0713 50.794C53.2976 50.8076 53.5223 50.7479 53.7125 50.6239C53.9028 50.4999 54.0485 50.318 54.1283 50.1047L54.6365 50.2579C54.5144 50.5721 54.2971 50.8397 54.0153 51.0229C53.7335 51.2062 53.4015 51.2958 53.0662 51.2791C51.9634 51.2995 51.3281 50.5183 51.3281 49.3184Z" fill="white"/>
<path d="M56.9186 51.1913V47.9286H55.6074V47.418H58.743V47.9286H57.4268V51.1913H56.9186Z" fill="white"/>
<path d="M62.8696 48.899V51.1915H62.3614V50.5482C62.2262 50.7858 62.0274 50.9807 61.7876 51.1107C61.5477 51.2406 61.2765 51.3005 61.0045 51.2834C60.2066 51.2834 59.7188 50.8699 59.7188 50.1959C59.7188 49.4045 60.3235 49.1032 61.2434 48.9909L62.3665 48.8479C62.3665 48.1075 62.0616 47.791 61.3501 47.791C61.1242 47.7631 60.896 47.8195 60.7087 47.9493C60.5214 48.0792 60.3879 48.2735 60.3337 48.4956L59.8509 48.3782C59.9357 48.047 60.1366 47.7578 60.4167 47.5636C60.6968 47.3695 61.0373 47.2834 61.3755 47.3212C62.3817 47.3365 62.8696 47.8522 62.8696 48.899ZM61.2891 49.4096C60.5319 49.5066 60.227 49.721 60.227 50.1703C60.227 50.6197 60.5217 50.8341 61.1011 50.8341C61.3879 50.8496 61.6705 50.759 61.8953 50.5792C62.12 50.3995 62.2714 50.1432 62.3208 49.8589C62.3552 49.6669 62.3705 49.4719 62.3665 49.2768L61.2891 49.4096Z" fill="white"/>
<path d="M64.4609 51.1923V47.4395H64.9691V49.0734H67.0833V47.4395H67.5915V51.1923H67.0833V49.5635H64.9742V51.1923H64.4609Z" fill="white"/>
<path d="M69.0391 49.3139C69.0391 48.1395 69.7099 47.3379 70.8025 47.3379C71.8952 47.3379 72.5762 48.1497 72.5762 49.3139C72.5762 50.478 71.9104 51.3001 70.8025 51.3001C69.6946 51.3001 69.0391 50.4832 69.0391 49.3139ZM72.0375 49.3139C72.0375 48.3999 71.6157 47.8281 70.8025 47.8281C69.9894 47.8281 69.5778 48.4204 69.5778 49.3139C69.5778 50.2074 69.9996 50.8099 70.8025 50.8099C71.6055 50.8099 72.0375 50.2125 72.0375 49.3139Z" fill="white"/>
<path d="M74.0254 51.1923V47.4395H75.4687C76.3428 47.4395 76.8104 47.7867 76.8104 48.4606C76.8218 48.6312 76.7787 48.8011 76.6872 48.9453C76.5958 49.0895 76.4609 49.2006 76.3021 49.2623C76.4909 49.3233 76.6545 49.4447 76.7683 49.6078C76.8821 49.771 76.9397 49.967 76.9323 50.166C76.9323 50.8451 76.4241 51.1872 75.5246 51.1872L74.0254 51.1923ZM74.5336 47.8786V49.0631H75.6262C76.048 49.0631 76.3326 48.8844 76.3326 48.4964C76.3326 48.1083 76.0989 47.8786 75.489 47.8786H74.5336ZM75.5195 50.7583C76.1344 50.7583 76.4394 50.5694 76.4394 50.1354C76.4394 49.7014 76.0989 49.4972 75.6669 49.4972H74.5387V50.7583H75.5195Z" fill="white"/>
<path d="M77.9531 50.7941C78.0054 50.8007 78.0584 50.8007 78.1107 50.7941C78.502 50.7941 78.6189 50.1865 78.6189 49.1755V47.4395H81.3124V51.1923H80.8042V47.9296H79.1169V49.3184C79.1169 50.6817 78.8476 51.2995 78.2784 51.2995C78.1733 51.2959 78.0691 51.2788 77.9684 51.2485L77.9531 50.7941Z" fill="white"/>
<path d="M85.6882 50.0936L86.1659 50.2672C86.0295 50.5827 85.801 50.8492 85.5107 51.0316C85.2203 51.2139 84.8817 51.3034 84.5397 51.2884C83.4572 51.2884 82.7559 50.5123 82.7559 49.3073C82.7559 48.1023 83.447 47.3262 84.5193 47.3262C85.5917 47.3262 86.2777 48.1278 86.2422 49.4502H83.2946C83.3454 50.3029 83.8028 50.8033 84.5397 50.8033C84.78 50.815 85.0182 50.7535 85.2232 50.6269C85.4281 50.5002 85.5902 50.3144 85.6882 50.0936ZM85.6882 49.0316C85.6272 48.2452 85.2054 47.8061 84.5041 47.8061C84.3436 47.8033 84.1842 47.8332 84.0356 47.8939C83.8869 47.9546 83.752 48.0449 83.639 48.1594C83.526 48.2739 83.4372 48.4102 83.378 48.5601C83.3188 48.71 83.2904 48.8704 83.2946 49.0316H85.6882Z" fill="white"/>
<path d="M87.6953 51.1923V47.4395H88.2035V49.0734H90.3075V47.4395H90.8157V51.1923H90.3075V49.5635H88.2035V51.1923H87.6953Z" fill="white"/>
<path d="M95.4468 47.4395V51.1923H94.9386V48.2513L93.0023 51.1923H92.4941V47.4395H93.0023V50.3856L94.959 47.4395H95.4468Z" fill="white"/>
<path d="M96.935 51.1919L97.6516 49.6601C97.4282 49.5871 97.2352 49.4418 97.1028 49.2469C96.9704 49.0519 96.906 48.8184 96.9198 48.5828C96.9146 48.4173 96.9454 48.2527 97.01 48.1004C97.0746 47.9481 97.1714 47.8118 97.2938 47.701C97.4162 47.5902 97.5612 47.5075 97.7187 47.4587C97.8761 47.41 98.0423 47.3963 98.2056 47.4186H99.8623V51.1715H99.3541V49.7674H98.1547L97.4737 51.1919H96.935ZM98.2615 47.8833C97.6974 47.8833 97.428 48.1896 97.428 48.6032C97.428 49.0168 97.6974 49.3231 98.2615 49.3231H99.3541V47.8833H98.2615Z" fill="white"/>
<path d="M103.598 51.1923V47.4395H104.106L105.437 50.0894L106.774 47.4395H107.282V51.1923H106.774V48.4606L105.666 50.6715H105.199L104.091 48.4606V51.1923H103.598Z" fill="white"/>
<path d="M108.757 51.193L109.473 49.6612C109.256 49.5864 109.069 49.443 108.94 49.2525C108.811 49.062 108.747 48.8346 108.757 48.6043C108.752 48.4388 108.782 48.2742 108.847 48.1219C108.912 47.9696 109.009 47.8333 109.131 47.7225C109.253 47.6117 109.398 47.529 109.556 47.4802C109.713 47.4314 109.879 47.4178 110.043 47.4401H111.699V51.193H111.191V49.7684H109.992L109.311 51.193H108.757ZM110.083 47.8843C109.519 47.8843 109.25 48.1907 109.25 48.6043C109.25 49.0179 109.519 49.3242 110.083 49.3242H111.176V47.8843H110.083Z" fill="white"/>
<path d="M113.355 51.1923V47.4395H115.78V47.95H113.864V51.2127L113.355 51.1923Z" fill="white"/>
<path d="M117.121 47.4395H117.629V49.247L119.296 47.4395H119.977L118.229 49.3184L120.206 51.1923H119.464L117.629 49.3848V51.1923H117.121V47.4395Z" fill="white"/>
<path d="M120.953 49.3139C120.953 48.1395 121.624 47.3379 122.722 47.3379C123.819 47.3379 124.511 48.1497 124.511 49.3139C124.511 50.478 123.845 51.3001 122.742 51.3001C121.639 51.3001 120.953 50.4832 120.953 49.3139ZM123.952 49.3139C123.952 48.3999 123.53 47.8281 122.722 47.8281C121.914 47.8281 121.492 48.4204 121.492 49.3139C121.492 50.2074 121.919 50.8099 122.722 50.8099C123.525 50.8099 123.967 50.2125 123.967 49.3139H123.952Z" fill="white"/>
<path d="M128.926 47.4393V51.1922H128.418V48.2512L126.461 51.1922H125.953V47.4393H126.461V50.3855L128.418 47.4393H128.926ZM126.736 46.5458C126.654 46.4122 126.612 46.2582 126.614 46.1016H127.051C127.063 46.2184 127.118 46.3265 127.205 46.4051C127.291 46.4837 127.404 46.5272 127.521 46.5272C127.638 46.5272 127.751 46.4837 127.837 46.4051C127.924 46.3265 127.979 46.2184 127.991 46.1016H128.413C128.414 46.2579 128.373 46.4116 128.295 46.5471C128.218 46.6825 128.106 46.7949 127.971 46.8726C127.836 46.9538 127.681 46.9962 127.523 46.9951C127.364 46.9985 127.207 46.9586 127.068 46.8795C126.929 46.8004 126.815 46.6851 126.736 46.5458Z" fill="white"/>
<path d="M132.643 51.1923V47.4395H133.151L134.482 50.0894L135.814 47.4395H136.322V51.1923H135.814V48.4606L134.706 50.6715H134.254L133.151 48.4606V51.1923H132.643Z" fill="white"/>
<path d="M140.727 50.0936L141.205 50.2672C141.069 50.5827 140.84 50.8492 140.55 51.0316C140.259 51.2139 139.921 51.3034 139.579 51.2884C138.496 51.2884 137.795 50.5123 137.795 49.3073C137.795 48.1023 138.486 47.3262 139.558 47.3262C140.631 47.3262 141.317 48.1278 141.281 49.4502H138.339C138.384 50.3029 138.847 50.8033 139.579 50.8033C139.819 50.815 140.057 50.7535 140.262 50.6269C140.467 50.5002 140.629 50.3144 140.727 50.0936ZM140.727 49.0316C140.666 48.2452 140.244 47.8061 139.543 47.8061C139.382 47.8033 139.223 47.8332 139.074 47.8938C138.925 47.9545 138.79 48.0447 138.676 48.1592C138.563 48.2736 138.474 48.4098 138.414 48.5597C138.354 48.7096 138.325 48.8701 138.329 49.0316H140.727Z" fill="white"/>
<path d="M142.536 49.2772C142.524 48.9244 142.535 48.5713 142.572 48.2202C142.673 47.4288 142.861 46.9284 143.329 46.6272C144 46.1983 144.737 46.331 145.728 46.0859L145.768 46.571C144.859 46.8008 144.152 46.6987 143.629 47.0152C143.268 47.2399 143.12 47.5871 143.049 48.3836C143.181 48.1635 143.37 47.9836 143.595 47.863C143.821 47.7425 144.075 47.6859 144.33 47.6994C145.285 47.6994 145.941 48.4194 145.941 49.4967C145.961 49.7337 145.93 49.9721 145.851 50.1961C145.771 50.4201 145.645 50.6243 145.48 50.7951C145.315 50.9659 145.116 51.0992 144.896 51.1862C144.676 51.2731 144.439 51.3116 144.203 51.2991C143.151 51.294 142.572 50.5485 142.536 49.2772ZM145.407 49.5069C145.407 48.7002 144.991 48.1896 144.259 48.1896C143.527 48.1896 143.08 48.7002 143.08 49.5069C143.065 49.6697 143.083 49.8338 143.135 49.9888C143.187 50.1438 143.27 50.2863 143.379 50.4071C143.489 50.5279 143.622 50.6245 143.771 50.6905C143.92 50.7566 144.081 50.7907 144.244 50.7907C144.406 50.7907 144.567 50.7566 144.716 50.6905C144.865 50.6245 144.998 50.5279 145.108 50.4071C145.217 50.2863 145.301 50.1438 145.352 49.9888C145.404 49.8338 145.423 49.6697 145.407 49.5069Z" fill="white"/>
<path d="M150.124 50.0936L150.632 50.2672C150.494 50.5819 150.266 50.8476 149.976 51.0297C149.685 51.2119 149.347 51.302 149.006 51.2884C147.923 51.2884 147.217 50.5123 147.217 49.3073C147.217 48.1023 147.908 47.3262 148.985 47.3262C150.063 47.3262 150.744 48.1278 150.703 49.4502H147.735C147.786 50.3029 148.243 50.8033 148.98 50.8033C149.22 50.8161 149.458 50.755 149.663 50.6282C149.867 50.5014 150.028 50.3148 150.124 50.0936ZM150.124 49.0316C150.058 48.2452 149.616 47.8061 148.94 47.8061C148.779 47.8033 148.619 47.8332 148.47 47.8938C148.321 47.9545 148.186 48.0447 148.073 48.1592C147.959 48.2736 147.87 48.4098 147.81 48.5597C147.751 48.7096 147.722 48.8701 147.725 49.0316H150.124Z" fill="white"/>
<path d="M151.79 50.7941C151.841 50.8006 151.892 50.8006 151.943 50.7941C152.334 50.7941 152.451 50.1865 152.451 49.1755V47.4395H155.129V51.1923H154.621V47.9296H152.934V49.3184C152.934 50.6817 152.659 51.2995 152.09 51.2995C151.987 51.2959 151.884 51.2787 151.785 51.2485L151.79 50.7941Z" fill="white"/>
<path d="M159.764 47.4395V51.1923H159.256V48.2513L157.299 51.1923H156.791V47.4395H157.299V50.3856L159.256 47.4395H159.764Z" fill="white"/>
</g>
<defs>
<clipPath id="clip0">
<rect width="170" height="60" fill="white"/>
</clipPath>
</defs>
</svg>
