<svg width="170" height="60" viewBox="0 0 170 60" fill="none" xmlns="http://www.w3.org/2000/svg">
<g clip-path="url(#clip0)">
<path d="M52.3459 32.1675L51.4006 39.4077H32.4395V38.9839C34.8179 38.9839 34.9805 37.2275 34.9805 34.6285V18.6214C34.9805 16.0225 34.8382 14.266 32.4395 14.266V13.8473H50.8213L51.3803 20.3115H50.9636C48.5852 16.2267 46.8979 14.8277 42.9898 14.8277H41.6736V25.5297H42.3698C46.0086 25.5297 47.1266 24.4779 48.1075 22.2262H48.5242V30.3957H48.1075C47.0555 27.7968 46.0086 26.745 42.3698 26.745H41.6736V36.819C41.6736 37.7687 41.9175 38.4376 43.0711 38.4376H43.3506C46.8115 38.4376 49.1899 37.3143 51.919 32.1828L52.3459 32.1675Z" fill="#182F27"/>
<path d="M52.6504 26.7041C52.6504 18.8716 58.3169 13.4286 65.6249 13.4286C68.3633 13.4111 71.0866 13.8369 73.6901 14.6898V21.7156H73.2683C71.3117 17.3602 69.0756 14.409 65.4368 14.409C61.1019 14.409 59.7754 19.2903 59.7754 26.5969C59.7754 33.6942 60.7918 38.8512 65.2641 38.8512C67.2207 38.8512 67.673 37.5849 67.673 35.5476V32.1675C67.673 29.5686 67.5357 27.9551 65.508 27.8121V27.3934H75.296V27.8121C74.2491 27.9551 74.178 29.5686 74.178 32.1675V37.2734C72.2214 38.6061 68.8622 39.8264 65.0303 39.8264C57.1277 39.8264 52.6504 34.7817 52.6504 26.7041Z" fill="#182F27"/>
<path d="M93.4182 34.9247C94.4346 37.6972 95.1665 38.8614 96.5996 39.0094V39.4332H84.611V39.0094C86.776 38.8716 87.4062 37.7432 86.7404 35.8846L85.414 32.1266H78.8734C77.4758 36.1297 77.7909 38.3763 80.1337 39.0094V39.4332H73.9082V39.0094C75.0263 38.3763 76.2155 35.9459 77.7553 31.7386L84.4687 13.2755H85.4496L93.4182 34.9247ZM79.3968 30.7072H84.8702L82.1411 23.0125L79.3968 30.7072Z" fill="#182F27"/>
<path d="M102.15 14.266C99.8424 14.9706 99.1462 17.4317 99.1462 20.7301V28.532L108.909 13.8473H117.904V14.266C116.578 14.5468 115.038 15.6753 115.038 18.555V31.1463C115.038 35.854 115.876 38.7337 117.904 39.0145V39.4383H110.621V39.0145C112.654 38.8767 113.838 35.854 113.838 31.1463V17.9576L98.8768 39.9847H97.9671V20.7301C97.9671 17.4317 97.5453 14.409 95.5176 14.266V13.8473H102.15V14.266Z" fill="#182F27"/>
<path d="M117.904 26.7041C117.904 18.8358 122.559 13.4286 129.969 13.4286C137.379 13.4286 141.963 18.5601 141.963 26.5662C141.963 34.4396 137.313 39.8417 129.898 39.8417C122.483 39.8417 117.904 34.7204 117.904 26.7041ZM134.828 26.6326C134.828 19.5354 133.501 14.409 129.934 14.409C126.366 14.409 125.019 19.326 125.019 26.6326C125.019 33.7299 126.315 38.8869 129.949 38.8869C133.582 38.8869 134.817 33.9392 134.817 26.6326H134.828Z" fill="#182F27"/>
<path d="M146.323 14.266C143.945 14.8992 143.665 17.2173 145.134 21.3275L148.351 30.2527L152.925 17.396C153.591 15.5323 152.96 14.409 150.795 14.266V13.8473H162.789V14.266C161.356 14.409 160.619 15.568 159.608 18.3508L151.639 39.9847H150.658L143.945 21.542C142.42 17.3245 141.221 14.9043 140.098 14.266V13.8473H146.323V14.266Z" fill="#182F27"/>
<path d="M20.2828 39.5609C11.8567 39.5609 7.24219 34.6081 7.24219 26.459C7.24219 18.4478 11.4044 13.9852 19.9473 13.9852H31.2803V14.409C28.9019 14.409 28.7393 16.1654 28.7393 18.7644V34.7817C28.7393 37.3806 28.8816 39.1371 31.2803 39.1371V39.5609H20.2828ZM19.5509 38.5754C21.5838 38.5754 22.092 37.8759 22.092 36.3288V16.2318C22.092 15.3893 21.5838 14.9706 20.7655 14.9706H19.7491C15.836 14.9706 14.4028 19.1473 14.4028 26.6684C14.3774 34.8175 15.7546 38.5754 19.5509 38.5754Z" fill="#182F27"/>
<path d="M8.92931 51.2586C7.80109 51.2586 6.89648 50.6204 6.89648 49.3235C6.89648 48.0265 7.81634 47.3985 8.92931 47.3781V46.2599H9.43751V47.3781C10.5657 47.3781 11.4703 48.0214 11.4703 49.3235C11.4703 50.6255 10.5505 51.2382 9.43751 51.2586V52.7598H8.92931V51.2586ZM8.92931 47.8632C8.54517 47.8632 8.17677 48.0165 7.90514 48.2894C7.63352 48.5623 7.48092 48.9324 7.48092 49.3184C7.48092 49.7043 7.63352 50.0744 7.90514 50.3473C8.17677 50.6202 8.54517 50.7736 8.92931 50.7736V47.8632ZM9.43751 50.7736C9.82165 50.7736 10.1901 50.6202 10.4617 50.3473C10.7333 50.0744 10.8859 49.7043 10.8859 49.3184C10.8859 48.9324 10.7333 48.5623 10.4617 48.2894C10.1901 48.0165 9.82165 47.8632 9.43751 47.8632V50.7736Z" fill="#182F27"/>
<path d="M15.8813 48.8997V51.1922H15.3731V50.5489C15.2387 50.7861 15.0408 50.9808 14.8019 51.1108C14.5629 51.2407 14.2925 51.3008 14.0213 51.2841C13.2183 51.2841 12.7305 50.8706 12.7305 50.1966C12.7305 49.4052 13.3352 49.1039 14.2551 48.9916L15.3782 48.8486C15.3782 48.1082 15.0733 47.7917 14.3923 47.7917C14.1666 47.765 13.9389 47.8218 13.7519 47.9514C13.5648 48.0811 13.4311 48.2748 13.3759 48.4963L12.8982 48.3789C12.982 48.0472 13.1827 47.7573 13.4631 47.563C13.7434 47.3686 14.0844 47.283 14.4228 47.3219C15.3884 47.3372 15.8813 47.8529 15.8813 48.8997ZM14.3008 49.4103C13.5385 49.5073 13.2336 49.7217 13.2336 50.171C13.2336 50.6204 13.5334 50.8348 14.1077 50.8348C14.3951 50.8526 14.6788 50.7628 14.9041 50.5827C15.1293 50.4025 15.2802 50.1449 15.3274 49.8596C15.3644 49.6679 15.3797 49.4726 15.3731 49.2775L14.3008 49.4103Z" fill="#182F27"/>
<path d="M17.2797 49.2775C17.2647 48.9248 17.2766 48.5715 17.3153 48.2206C17.4169 47.4292 17.6049 46.9288 18.0725 46.6275C18.7433 46.1986 19.4751 46.3314 20.4712 46.0863L20.5119 46.5714C19.6022 46.8011 18.8907 46.699 18.3723 47.0156C18.0115 47.2402 17.8641 47.5874 17.7879 48.384C17.9207 48.1639 18.1104 47.984 18.3368 47.8635C18.5632 47.7431 18.8178 47.6865 19.0737 47.6998C20.0291 47.6998 20.6898 48.4197 20.6898 49.4971C20.7097 49.734 20.6788 49.9725 20.5993 50.1965C20.5198 50.4204 20.3935 50.6247 20.2288 50.7955C20.0641 50.9662 19.8649 51.0996 19.6446 51.1865C19.4243 51.2735 19.188 51.312 18.9517 51.2995C17.8895 51.2944 17.3051 50.5489 17.2797 49.2775ZM20.1511 49.5073C20.1511 48.7005 19.7343 48.1899 19.0025 48.1899C18.2707 48.1899 17.8184 48.7005 17.8184 49.5073C17.7996 49.6724 17.8157 49.8397 17.8657 49.9981C17.9157 50.1565 17.9985 50.3026 18.1087 50.4266C18.2188 50.5506 18.3538 50.6499 18.5047 50.7179C18.6557 50.7858 18.8193 50.8209 18.9847 50.8209C19.1502 50.8209 19.3137 50.7858 19.4647 50.7179C19.6157 50.6499 19.7507 50.5506 19.8608 50.4266C19.9709 50.3026 20.0537 50.1565 20.1037 49.9981C20.1537 49.8397 20.1699 49.6724 20.1511 49.5073Z" fill="#182F27"/>
<path d="M22.1367 52.8619V47.4394H22.6449V48.0725C22.7672 47.8373 22.9546 47.6427 23.1846 47.5122C23.4146 47.3817 23.6772 47.3209 23.9408 47.3372C25.003 47.3372 25.6433 48.1542 25.6433 49.3133C25.6433 50.4723 24.9928 51.2995 23.9408 51.2995C23.6757 51.3137 23.4122 51.2504 23.1821 51.1172C22.9521 50.984 22.7655 50.7866 22.6449 50.5489V52.8466L22.1367 52.8619ZM25.0996 49.2877C25.0996 48.384 24.693 47.8019 23.8697 47.8019C23.0464 47.8019 22.6449 48.4146 22.6449 49.2877C22.6449 50.1608 23.0617 50.7838 23.8697 50.7838C24.6777 50.7838 25.0996 50.2017 25.0996 49.3133V49.2877Z" fill="#182F27"/>
<path d="M30.0648 47.4394V51.1922H29.5566V48.2512L27.6 51.1922H27.0918V47.4394H27.6V50.3855L29.5566 47.4394H30.0648Z" fill="#182F27"/>
<path d="M31.7223 47.4394H32.2305V49.2469L33.8974 47.4394H34.5581L32.8098 49.3184L34.7868 51.1922H34.0499L32.2152 49.3847V51.1922H31.707L31.7223 47.4394Z" fill="#182F27"/>
<path d="M38.7856 48.8997V51.1922H38.2774V50.5489C38.143 50.7861 37.9451 50.9808 37.7062 51.1108C37.4672 51.2407 37.1968 51.3008 36.9256 51.2841C36.1226 51.2841 35.6348 50.8706 35.6348 50.1966C35.6348 49.4052 36.2395 49.1039 37.1594 48.9916L38.2825 48.8486C38.2825 48.1082 37.9776 47.7917 37.2966 47.7917C37.0709 47.765 36.8432 47.8218 36.6562 47.9514C36.4691 48.0811 36.3354 48.2748 36.2802 48.4963L35.8025 48.3789C35.8863 48.0472 36.087 47.7573 36.3674 47.563C36.6477 47.3686 36.9887 47.283 37.3271 47.3219C38.2927 47.3372 38.7856 47.8529 38.7856 48.8997ZM37.2051 49.4103C36.4428 49.5073 36.1379 49.7217 36.1379 50.171C36.1379 50.6204 36.4377 50.8348 37.012 50.8348C37.2991 50.8515 37.5823 50.7612 37.8073 50.5813C38.0323 50.4014 38.1834 50.1444 38.2317 49.8596C38.2687 49.6679 38.284 49.4726 38.2774 49.2775L37.2051 49.4103Z" fill="#182F27"/>
<path d="M42.4512 51.1922V47.4394H43.8894C44.7686 47.4394 45.2361 47.7866 45.2361 48.4606C45.2468 48.631 45.2033 48.8005 45.112 48.9445C45.0207 49.0886 44.8862 49.1998 44.7279 49.2622C44.9176 49.3224 45.0824 49.4433 45.1971 49.6065C45.3119 49.7697 45.3702 49.9662 45.3632 50.1659C45.3632 50.845 44.855 51.1871 43.9504 51.1871L42.4512 51.1922ZM42.9289 47.8785V49.0631H44.0215C44.4433 49.0631 44.733 48.8844 44.733 48.4963C44.733 48.1082 44.4992 47.8785 43.8843 47.8785H42.9289ZM43.9453 50.7582C44.5551 50.7582 44.8651 50.5693 44.8651 50.1353C44.8651 49.7013 44.5247 49.4971 44.0876 49.4971H42.934V50.7582H43.9453Z" fill="#182F27"/>
<path d="M46.5156 49.3133C46.5156 48.1389 47.1915 47.3372 48.2842 47.3372C49.3768 47.3372 50.0527 48.1491 50.0527 49.3133C50.0527 50.4774 49.3921 51.2995 48.2842 51.2995C47.1763 51.2995 46.5156 50.4825 46.5156 49.3133ZM49.514 49.3133C49.514 48.3993 49.0973 47.8274 48.2842 47.8274C47.4711 47.8274 47.0543 48.4197 47.0543 49.3133C47.0543 50.2068 47.4812 50.8093 48.2842 50.8093C49.0871 50.8093 49.514 50.2119 49.514 49.3133Z" fill="#182F27"/>
<path d="M51.3281 49.3184C51.3281 48.1082 51.9939 47.3372 53.0865 47.3372C53.4221 47.3152 53.7558 47.4027 54.0379 47.5868C54.32 47.7708 54.5353 48.0415 54.6518 48.3584L54.1436 48.5218C54.0597 48.3067 53.9116 48.123 53.7196 47.9959C53.5276 47.8688 53.3011 47.8046 53.0713 47.8121C52.2836 47.8121 51.8567 48.3789 51.8567 49.303C51.8567 50.2272 52.2683 50.794 53.0713 50.794C53.2976 50.8075 53.5223 50.7479 53.7125 50.6238C53.9028 50.4998 54.0485 50.3179 54.1283 50.1047L54.6365 50.2578C54.5144 50.572 54.2971 50.8396 54.0153 51.0229C53.7335 51.2061 53.4015 51.2957 53.0662 51.279C51.9634 51.2995 51.3281 50.5182 51.3281 49.3184Z" fill="#182F27"/>
<path d="M56.9186 51.1922V47.9295H55.6074V47.4189H58.743V47.9295H57.4268V51.1922H56.9186Z" fill="#182F27"/>
<path d="M62.8696 48.8997V51.1922H62.3614V50.5489C62.2262 50.7866 62.0274 50.9814 61.7876 51.1114C61.5477 51.2413 61.2765 51.3012 61.0045 51.2841C60.2066 51.2841 59.7188 50.8706 59.7188 50.1966C59.7188 49.4052 60.3235 49.1039 61.2434 48.9916L62.3665 48.8486C62.3665 48.1082 62.0616 47.7917 61.3501 47.7917C61.1242 47.7638 60.896 47.8202 60.7087 47.95C60.5214 48.0799 60.3879 48.2742 60.3337 48.4963L59.8509 48.3789C59.9357 48.0477 60.1366 47.7585 60.4167 47.5643C60.6968 47.3702 61.0373 47.2841 61.3755 47.3219C62.3817 47.3373 62.8696 47.8529 62.8696 48.8997ZM61.2891 49.4103C60.5319 49.5073 60.227 49.7217 60.227 50.1711C60.227 50.6204 60.5217 50.8348 61.1011 50.8348C61.3879 50.8504 61.6705 50.7597 61.8953 50.5799C62.12 50.4002 62.2714 50.1439 62.3208 49.8596C62.3552 49.6676 62.3705 49.4726 62.3665 49.2775L61.2891 49.4103Z" fill="#182F27"/>
<path d="M64.4609 51.1922V47.4394H64.9691V49.0733H67.0833V47.4394H67.5915V51.1922H67.0833V49.5634H64.9742V51.1922H64.4609Z" fill="#182F27"/>
<path d="M69.0391 49.3133C69.0391 48.1389 69.7099 47.3372 70.8025 47.3372C71.8952 47.3372 72.5762 48.1491 72.5762 49.3133C72.5762 50.4774 71.9104 51.2995 70.8025 51.2995C69.6946 51.2995 69.0391 50.4825 69.0391 49.3133ZM72.0375 49.3133C72.0375 48.3993 71.6157 47.8274 70.8025 47.8274C69.9894 47.8274 69.5778 48.4197 69.5778 49.3133C69.5778 50.2068 69.9996 50.8093 70.8025 50.8093C71.6055 50.8093 72.0375 50.2119 72.0375 49.3133Z" fill="#182F27"/>
<path d="M74.0254 51.1922V47.4394H75.4687C76.3428 47.4394 76.8104 47.7866 76.8104 48.4606C76.8218 48.6312 76.7787 48.801 76.6872 48.9452C76.5958 49.0894 76.4609 49.2005 76.3021 49.2622C76.4909 49.3233 76.6545 49.4446 76.7683 49.6077C76.8821 49.7709 76.9397 49.9669 76.9323 50.1659C76.9323 50.845 76.4241 51.1871 75.5246 51.1871L74.0254 51.1922ZM74.5336 47.8785V49.0631H75.6262C76.048 49.0631 76.3326 48.8844 76.3326 48.4963C76.3326 48.1082 76.0989 47.8785 75.489 47.8785H74.5336ZM75.5195 50.7582C76.1344 50.7582 76.4394 50.5693 76.4394 50.1353C76.4394 49.7013 76.0989 49.4971 75.6669 49.4971H74.5387V50.7582H75.5195Z" fill="#182F27"/>
<path d="M77.9531 50.794C78.0054 50.8006 78.0584 50.8006 78.1107 50.794C78.502 50.794 78.6189 50.1864 78.6189 49.1754V47.4394H81.3124V51.1922H80.8042V47.9295H79.1169V49.3184C79.1169 50.6816 78.8476 51.2995 78.2784 51.2995C78.1733 51.2958 78.0691 51.2787 77.9684 51.2484L77.9531 50.794Z" fill="#182F27"/>
<path d="M85.6882 50.0945L86.1659 50.2681C86.0295 50.5836 85.801 50.8501 85.5107 51.0324C85.2203 51.2148 84.8817 51.3043 84.5397 51.2893C83.4572 51.2893 82.7559 50.5131 82.7559 49.3081C82.7559 48.1031 83.447 47.327 84.5193 47.327C85.5917 47.327 86.2777 48.1287 86.2422 49.4511H83.2946C83.3454 50.3038 83.8028 50.8042 84.5397 50.8042C84.78 50.8159 85.0182 50.7544 85.2232 50.6278C85.4281 50.5011 85.5902 50.3152 85.6882 50.0945ZM85.6882 49.0324C85.6272 48.2461 85.2054 47.807 84.5041 47.807C84.3436 47.8042 84.1842 47.834 84.0356 47.8948C83.8869 47.9555 83.752 48.0458 83.639 48.1603C83.526 48.2748 83.4372 48.4111 83.378 48.561C83.3188 48.7109 83.2904 48.8712 83.2946 49.0324H85.6882Z" fill="#182F27"/>
<path d="M87.6953 51.1922V47.4394H88.2035V49.0733H90.3075V47.4394H90.8157V51.1922H90.3075V49.5634H88.2035V51.1922H87.6953Z" fill="#182F27"/>
<path d="M95.4468 47.4394V51.1922H94.9386V48.2512L93.0023 51.1922H92.4941V47.4394H93.0023V50.3855L94.959 47.4394H95.4468Z" fill="#182F27"/>
<path d="M96.935 51.1922L97.6516 49.6605C97.4282 49.5875 97.2352 49.4421 97.1028 49.2472C96.9704 49.0522 96.906 48.8187 96.9198 48.5831C96.9146 48.4176 96.9454 48.253 97.01 48.1007C97.0746 47.9484 97.1714 47.8121 97.2938 47.7013C97.4162 47.5905 97.5612 47.5078 97.7187 47.459C97.8761 47.4103 98.0423 47.3966 98.2056 47.4189H99.8623V51.1718H99.3541V49.7677H98.1547L97.4737 51.1922H96.935ZM98.2615 47.8836C97.6974 47.8836 97.428 48.1899 97.428 48.6035C97.428 49.0171 97.6974 49.3235 98.2615 49.3235H99.3541V47.8836H98.2615Z" fill="#182F27"/>
<path d="M103.598 51.1922V47.4394H104.106L105.437 50.0894L106.774 47.4394H107.282V51.1922H106.774V48.4606L105.666 50.6714H105.199L104.091 48.4606V51.1922H103.598Z" fill="#182F27"/>
<path d="M108.757 51.1922L109.473 49.6605C109.256 49.5857 109.069 49.4423 108.94 49.2518C108.811 49.0613 108.747 48.8338 108.757 48.6035C108.752 48.4381 108.782 48.2734 108.847 48.1212C108.912 47.9689 109.009 47.8326 109.131 47.7217C109.253 47.6109 109.398 47.5282 109.556 47.4795C109.713 47.4307 109.879 47.417 110.043 47.4394H111.699V51.1922H111.191V49.7677H109.992L109.311 51.1922H108.757ZM110.083 47.8836C109.519 47.8836 109.25 48.1899 109.25 48.6035C109.25 49.0171 109.519 49.3235 110.083 49.3235H111.176V47.8836H110.083Z" fill="#182F27"/>
<path d="M113.355 51.1922V47.4394H115.78V47.95H113.864V51.2127L113.355 51.1922Z" fill="#182F27"/>
<path d="M117.121 47.4394H117.629V49.2469L119.296 47.4394H119.977L118.229 49.3184L120.206 51.1922H119.464L117.629 49.3847V51.1922H117.121V47.4394Z" fill="#182F27"/>
<path d="M120.953 49.3133C120.953 48.1389 121.624 47.3372 122.722 47.3372C123.819 47.3372 124.511 48.1491 124.511 49.3133C124.511 50.4774 123.845 51.2995 122.742 51.2995C121.639 51.2995 120.953 50.4825 120.953 49.3133ZM123.952 49.3133C123.952 48.3993 123.53 47.8274 122.722 47.8274C121.914 47.8274 121.492 48.4197 121.492 49.3133C121.492 50.2068 121.919 50.8093 122.722 50.8093C123.525 50.8093 123.967 50.2119 123.967 49.3133H123.952Z" fill="#182F27"/>
<path d="M128.926 47.4394V51.1922H128.418V48.2512L126.461 51.1922H125.953V47.4394H126.461V50.3855L128.418 47.4394H128.926ZM126.736 46.5458C126.654 46.4122 126.612 46.2583 126.614 46.1016H127.051C127.063 46.2184 127.118 46.3265 127.205 46.4052C127.291 46.4838 127.404 46.5273 127.521 46.5273C127.638 46.5273 127.751 46.4838 127.837 46.4052C127.924 46.3265 127.979 46.2184 127.991 46.1016H128.413C128.414 46.2579 128.373 46.4117 128.295 46.5471C128.218 46.6826 128.106 46.7949 127.971 46.8726C127.836 46.9539 127.681 46.9963 127.523 46.9951C127.364 46.9986 127.207 46.9586 127.068 46.8795C126.929 46.8004 126.815 46.6851 126.736 46.5458Z" fill="#182F27"/>
<path d="M132.643 51.1922V47.4394H133.151L134.482 50.0894L135.814 47.4394H136.322V51.1922H135.814V48.4606L134.706 50.6714H134.254L133.151 48.4606V51.1922H132.643Z" fill="#182F27"/>
<path d="M140.727 50.0945L141.205 50.2681C141.069 50.5836 140.84 50.8501 140.55 51.0324C140.259 51.2148 139.921 51.3043 139.579 51.2893C138.496 51.2893 137.795 50.5131 137.795 49.3081C137.795 48.1031 138.486 47.327 139.558 47.327C140.631 47.327 141.317 48.1287 141.281 49.4511H138.339C138.384 50.3038 138.847 50.8042 139.579 50.8042C139.819 50.8159 140.057 50.7544 140.262 50.6278C140.467 50.5011 140.629 50.3152 140.727 50.0945ZM140.727 49.0324C140.666 48.2461 140.244 47.807 139.543 47.807C139.382 47.8042 139.223 47.834 139.074 47.8947C138.925 47.9554 138.79 48.0456 138.676 48.16C138.563 48.2745 138.474 48.4107 138.414 48.5606C138.354 48.7105 138.325 48.871 138.329 49.0324H140.727Z" fill="#182F27"/>
<path d="M142.536 49.2775C142.524 48.9248 142.535 48.5716 142.572 48.2206C142.673 47.4292 142.861 46.9288 143.329 46.6275C144 46.1986 144.737 46.3314 145.728 46.0863L145.768 46.5714C144.859 46.8011 144.152 46.699 143.629 47.0156C143.268 47.2402 143.12 47.5874 143.049 48.384C143.181 48.1639 143.37 47.9839 143.595 47.8634C143.821 47.7429 144.075 47.6863 144.33 47.6998C145.285 47.6998 145.941 48.4197 145.941 49.4971C145.961 49.734 145.93 49.9725 145.851 50.1965C145.771 50.4204 145.645 50.6247 145.48 50.7955C145.315 50.9662 145.116 51.0996 144.896 51.1865C144.676 51.2735 144.439 51.312 144.203 51.2995C143.151 51.2944 142.572 50.5489 142.536 49.2775ZM145.407 49.5073C145.407 48.7005 144.991 48.1899 144.259 48.1899C143.527 48.1899 143.08 48.7005 143.08 49.5073C143.065 49.67 143.083 49.8341 143.135 49.9891C143.187 50.1441 143.27 50.2866 143.379 50.4075C143.489 50.5283 143.622 50.6248 143.771 50.6909C143.92 50.7569 144.081 50.791 144.244 50.791C144.406 50.791 144.567 50.7569 144.716 50.6909C144.865 50.6248 144.998 50.5283 145.108 50.4075C145.217 50.2866 145.301 50.1441 145.352 49.9891C145.404 49.8341 145.423 49.67 145.407 49.5073Z" fill="#182F27"/>
<path d="M150.124 50.0945L150.632 50.2681C150.494 50.5827 150.266 50.8484 149.976 51.0306C149.685 51.2128 149.347 51.3029 149.006 51.2892C147.923 51.2892 147.217 50.5131 147.217 49.3081C147.217 48.1031 147.908 47.327 148.985 47.327C150.063 47.327 150.744 48.1287 150.703 49.4511H147.735C147.786 50.3038 148.243 50.8042 148.98 50.8042C149.22 50.817 149.458 50.7559 149.663 50.6291C149.867 50.5022 150.028 50.3157 150.124 50.0945ZM150.124 49.0324C150.058 48.2461 149.616 47.807 148.94 47.807C148.779 47.8042 148.619 47.834 148.47 47.8947C148.321 47.9554 148.186 48.0456 148.073 48.16C147.959 48.2745 147.87 48.4107 147.81 48.5606C147.751 48.7105 147.722 48.871 147.725 49.0324H150.124Z" fill="#182F27"/>
<path d="M151.79 50.794C151.841 50.8006 151.892 50.8006 151.943 50.794C152.334 50.794 152.451 50.1864 152.451 49.1754V47.4394H155.129V51.1922H154.621V47.9295H152.934V49.3184C152.934 50.6816 152.659 51.2995 152.09 51.2995C151.987 51.2958 151.884 51.2786 151.785 51.2484L151.79 50.794Z" fill="#182F27"/>
<path d="M159.764 47.4394V51.1922H159.256V48.2512L157.299 51.1922H156.791V47.4394H157.299V50.3855L159.256 47.4394H159.764Z" fill="#182F27"/>
</g>
<defs>
<clipPath id="clip0">
<rect width="170" height="60" fill="white"/>
</clipPath>
</defs>
</svg>
