<svg width="30" height="30" viewBox="0 0 30 30" fill="none" xmlns="http://www.w3.org/2000/svg">
<path fill-rule="evenodd" clip-rule="evenodd" d="M15 30C23.2843 30 30 23.2843 30 15C30 6.71573 23.2843 0 15 0C6.71573 0 0 6.71573 0 15C0 23.2843 6.71573 30 15 30ZM10.4499 16.5665L7.00131 15.2805C6.65061 15.1636 6.65061 14.6376 7.00131 14.5207L21.2047 9.02638C21.497 8.90948 21.7892 9.20173 21.7308 9.49398L19.159 21.7685C19.1005 22.0608 18.7498 22.1777 18.516 22.0023L15.0674 19.489C14.8336 19.3136 14.5414 19.3136 14.366 19.489L12.4372 21.0671C12.2034 21.2425 11.8527 21.184 11.7942 20.8918L10.4499 16.5665ZM18.3991 11.7735L11.6189 15.9235C11.3266 16.0404 11.2097 16.3911 11.3851 16.6833L12.0865 19.2552C12.1449 19.489 12.4372 19.4305 12.4372 19.2552L12.6125 17.8524C12.6125 17.5601 12.7879 17.3263 12.9632 17.151L18.516 11.9489C18.6329 11.8904 18.516 11.7151 18.3991 11.7735Z" fill="#182F27"/>
</svg>
