<svg width="16" height="17" viewBox="0 0 16 17" fill="none" xmlns="http://www.w3.org/2000/svg">
<path fill-rule="evenodd" clip-rule="evenodd" d="M15.4393 2.56066C16.0251 1.97487 16.0251 1.02513 15.4393 0.43934C14.8536 -0.146447 13.9038 -0.146447 13.318 0.43934L7.76149 5.99587L2.56089 0.795266C1.9751 0.20948 1.02535 0.20948 0.439566 0.795266C-0.14622 1.38105 -0.14622 2.3308 0.439566 2.91659L5.64017 8.11719L0.43934 13.318C-0.146446 13.9038 -0.146447 14.8536 0.43934 15.4393C1.02513 16.0251 1.97487 16.0251 2.56066 15.4393L7.76149 10.2385L13.3182 15.7953C13.904 16.3811 14.8538 16.3811 15.4396 15.7953C16.0254 15.2095 16.0254 14.2597 15.4396 13.6739L9.88281 8.11719L15.4393 2.56066Z" fill="black"/>
</svg>
