<svg width="40" height="40" viewBox="0 0 40 40" fill="none" xmlns="http://www.w3.org/2000/svg">
<g opacity="0.54">
<path fill-rule="evenodd" clip-rule="evenodd" d="M20 40C31.0457 40 40 31.0457 40 20C40 8.9543 31.0457 0 20 0C8.9543 0 0 8.9543 0 20C0 31.0457 8.9543 40 20 40ZM26.1814 11C27.6788 11 29 12.3212 29 13.8186V25.1813C29 26.6787 27.6788 28 26.1814 28H23.1865V21.5699H26.0052V18.7513H23.1865V17.6062C23.1865 17.0777 23.4508 16.8135 23.715 16.8135H26.0052V13.9948H23.715C21.9534 13.9948 20.544 15.6684 20.544 17.6062V18.7513H18.4301V21.5699H20.544V28H14.8186C13.3212 28 12 26.6787 12 25.1813V13.8186C12 12.3212 13.3212 11 14.8186 11H26.1814Z" fill="#F6E294"/>
</g>
</svg>
