<svg width="245" height="74" viewBox="0 0 245 74" fill="none" xmlns="http://www.w3.org/2000/svg">
<path d="M242.352 35.9872C240.793 40.4367 236.258 44.9455 228.788 49.2914C221.346 53.6206 211.281 57.6104 199.242 61.0188C175.183 67.8304 143.612 72.2177 110.265 72.5197C76.9177 72.8218 48.2301 68.9804 28.8064 62.5627C19.087 59.3514 11.7622 55.5191 7.31655 51.2976C2.85374 47.0598 1.45964 42.6047 3.01869 38.1552C4.57774 33.7057 9.11268 29.197 16.5832 24.851C24.0249 20.5218 34.0905 16.5321 46.1293 13.1236C70.1884 6.31202 101.759 1.92478 135.106 1.6227C168.453 1.32063 197.141 5.16201 216.565 11.5797C226.284 14.7911 233.609 18.6233 238.054 22.8448C242.517 27.0826 243.911 31.5377 242.352 35.9872Z" stroke="#F6E294" stroke-width="3"/>
</svg>
