<svg width="36" height="36" viewBox="0 0 36 36" fill="none" xmlns="http://www.w3.org/2000/svg">
<g opacity="0.4">
<path d="M25.5426 0H10.4574C4.69118 0 0 4.69118 0 10.4574V25.5426C0 31.3088 4.69118 36 10.4574 36H25.5426C31.3088 36 36 31.3088 36 25.5426V10.4574C36 4.69118 31.3088 0 25.5426 0ZM33.1875 25.5426C33.1875 29.758 29.758 33.1875 25.5426 33.1875H10.4574C6.24199 33.1875 2.8125 29.758 2.8125 25.5426V10.4574C2.8125 6.24199 6.24199 2.8125 10.4574 2.8125H25.5426C29.758 2.8125 33.1875 6.24199 33.1875 10.4574V25.5426Z" fill="#182F27"/>
<path d="M18 8.29688C12.6496 8.29688 8.29688 12.6496 8.29688 18C8.29688 23.3504 12.6496 27.7031 18 27.7031C23.3504 27.7031 27.7031 23.3504 27.7031 18C27.7031 12.6496 23.3504 8.29688 18 8.29688ZM18 24.8906C14.2005 24.8906 11.1094 21.7995 11.1094 18C11.1094 14.2005 14.2005 11.1094 18 11.1094C21.7995 11.1094 24.8906 14.2005 24.8906 18C24.8906 21.7995 21.7995 24.8906 18 24.8906Z" fill="#182F27"/>
<path d="M27.8438 9.5625C28.6204 9.5625 29.25 8.9329 29.25 8.15625C29.25 7.3796 28.6204 6.75 27.8438 6.75C27.0671 6.75 26.4375 7.3796 26.4375 8.15625C26.4375 8.9329 27.0671 9.5625 27.8438 9.5625Z" fill="#182F27"/>
</g>
</svg>
