<svg width="40" height="40" viewBox="0 0 40 40" fill="none" xmlns="http://www.w3.org/2000/svg">
<g opacity="0.54">
<path fill-rule="evenodd" clip-rule="evenodd" d="M20 40C31.0457 40 40 31.0457 40 20C40 8.9543 31.0457 0 20 0C8.9543 0 0 8.9543 0 20C0 31.0457 8.9543 40 20 40ZM14.4192 12H26.5808C27.9538 12 29 13.0462 29 14.4192V26.5808C29 27.9538 27.9538 29 26.5808 29H14.4192C13.0462 29 12 27.9538 12 26.5808V14.4192C12 13.0462 13.0462 12 14.4192 12ZM25.6 20.6962C25.6 23.3769 23.3115 25.6 20.5 25.6C17.6885 25.6 15.4 23.3769 15.4654 20.6308C15.4654 20.1731 15.5308 19.7154 15.6615 19.2577H14.1577V26.2538C14.1577 26.6462 14.4846 26.9077 14.8115 26.9077H26.1885C26.5808 26.9077 26.8423 26.5808 26.8423 26.2538V19.3231H25.4038C25.5346 19.7154 25.6 20.2385 25.6 20.6962ZM17.2308 20.4346C17.2308 22.2 18.6692 23.6385 20.5 23.6385C22.3308 23.6385 23.7692 22.2654 23.7692 20.4346C23.7692 18.6692 22.3308 17.2308 20.5 17.2308C18.6692 17.2308 17.2308 18.6692 17.2308 20.4346ZM26.0577 17.3615C26.45 17.3615 26.7769 17.0346 26.7769 16.6423V14.8769C26.7769 14.4846 26.45 14.1577 26.0577 14.1577H24.2269C23.8346 14.1577 23.5077 14.4846 23.5077 14.8769V16.6423C23.5077 17.0346 23.8346 17.3615 24.2269 17.3615H26.0577Z" fill="#F6E294"/>
</g>
</svg>
