<svg width="161" height="41" viewBox="0 0 161 41" fill="none" xmlns="http://www.w3.org/2000/svg">
<path d="M46.5808 19.3642L45.6074 26.7856H26.0802V26.3512C28.5296 26.3512 28.6971 24.5508 28.6971 21.8868V5.47901C28.6971 2.81503 28.5505 1.01462 26.0802 1.01462V0.585449H45.0107L45.5864 7.21138H45.1573C42.7079 3.02438 40.9702 1.59033 36.9455 1.59033H35.5899V12.5603H36.307C40.0543 12.5603 41.2058 11.4821 42.2159 9.17404H42.6451V17.548H42.2159C41.1325 14.8841 40.0543 13.8059 36.307 13.8059H35.5899V24.1321C35.5899 25.1056 35.8412 25.7912 37.0292 25.7912H37.3171C40.8813 25.7912 43.3307 24.6398 46.1412 19.3799L46.5808 19.3642Z" fill="white"/>
<path d="M46.8937 13.7648C46.8937 5.73621 52.7294 0.15703 60.2555 0.15703C63.0756 0.139011 65.8802 0.575518 68.5615 1.44977V8.65141H68.1271C66.1121 4.18702 63.8092 1.16191 60.0619 1.16191C55.5975 1.16191 54.2315 6.16538 54.2315 13.6549C54.2315 20.9298 55.2782 26.2159 59.8839 26.2159C61.8989 26.2159 62.3647 24.9179 62.3647 22.8297V19.3649C62.3647 16.7009 62.2234 15.0471 60.1351 14.9005V14.4714H70.2154V14.9005C69.1372 15.0471 69.0639 16.7009 69.0639 19.3649V24.5987C67.0489 25.9647 63.5894 27.2155 59.6432 27.2155C51.5047 27.2155 46.8937 22.0446 46.8937 13.7648Z" fill="white"/>
<path d="M88.8795 22.1911C89.9262 25.033 90.6799 26.2263 92.1558 26.3781V26.8125H79.8094V26.3781C82.039 26.2368 82.688 25.0801 82.0023 23.175L80.6363 19.323H73.9005C72.4612 23.4263 72.7857 25.7291 75.1985 26.3781V26.8125H68.7871V26.3781C69.9385 25.7291 71.1632 23.2378 72.7491 18.9252L79.6629 0H80.673L88.8795 22.1911ZM74.4396 17.868H80.0763L77.2658 9.98076L74.4396 17.868Z" fill="white"/>
<path d="M97.8711 1.01462C95.4949 1.73688 94.7779 4.25954 94.7779 7.64055V15.6377L104.832 0.585449H114.096V1.01462C112.73 1.30247 111.144 2.45913 111.144 5.41097V18.3174C111.144 23.1429 112.007 26.0948 114.096 26.3826V26.817H106.596V26.3826C108.689 26.2413 109.909 23.1429 109.909 18.3174V4.79862L94.5005 27.377H93.5637V7.64055C93.5637 4.25954 93.1293 1.16116 91.041 1.01462V0.585449H97.8711V1.01462Z" fill="white"/>
<path d="M114.096 13.7652C114.096 5.70002 118.89 0.157471 126.521 0.157471C134.152 0.157471 138.873 5.4174 138.873 13.6239C138.873 21.6944 134.084 27.2317 126.448 27.2317C118.812 27.2317 114.096 21.9822 114.096 13.7652ZM131.524 13.692C131.524 6.41704 130.158 1.16235 126.484 1.16235C122.81 1.16235 121.423 6.20246 121.423 13.692C121.423 20.9669 122.758 26.253 126.5 26.253C130.242 26.253 131.514 21.1815 131.514 13.692H131.524Z" fill="white"/>
<path d="M143.363 1.01462C140.913 1.6636 140.625 4.03973 142.138 8.2529L145.451 17.4015L150.161 4.22291C150.847 2.31259 150.198 1.16116 147.968 1.01462V0.585449H160.32V1.01462C158.844 1.16116 158.085 2.34922 157.044 5.20162L148.837 27.377H147.827L140.913 8.47272C139.343 4.14964 138.108 1.66884 136.951 1.01462V0.585449H143.363V1.01462Z" fill="white"/>
<path d="M13.5595 26.94C4.88195 26.94 0.1297 21.8632 0.1297 13.5102C0.1297 5.29842 4.41614 0.724121 13.2141 0.724121H24.8853V1.15852C22.436 1.15852 22.2685 2.95893 22.2685 5.62291V22.0412C22.2685 24.7051 22.415 26.5056 24.8853 26.5056V26.94H13.5595ZM12.8058 25.9298C14.8994 25.9298 15.4227 25.2128 15.4227 23.627V3.02697C15.4227 2.1634 14.8994 1.73423 14.0567 1.73423H13.01C8.97998 1.73423 7.50406 6.01544 7.50406 13.7247C7.47789 22.0778 8.89624 25.9298 12.8058 25.9298Z" fill="white"/>
<path d="M2.06773 38.3859C0.920138 38.3859 0 37.7398 0 36.4268C0 35.1138 0.935646 34.478 2.06773 34.4573V33.3252H2.58466V34.4573C3.73224 34.4573 4.65238 35.1086 4.65238 36.4268C4.65238 37.745 3.71674 38.3653 2.58466 38.3859V39.9057H2.06773V38.3859ZM2.06773 34.9484C1.67699 34.9484 1.30227 35.1036 1.02598 35.3799C0.749689 35.6562 0.594471 36.0309 0.594471 36.4216C0.594471 36.8123 0.749689 37.1871 1.02598 37.4634C1.30227 37.7396 1.67699 37.8949 2.06773 37.8949V34.9484ZM2.58466 37.8949C2.97539 37.8949 3.35012 37.7396 3.6264 37.4634C3.90269 37.1871 4.05791 36.8123 4.05791 36.4216C4.05791 36.0309 3.90269 35.6562 3.6264 35.3799C3.35012 35.1036 2.97539 34.9484 2.58466 34.9484V37.8949Z" fill="white"/>
<path d="M9.1391 35.9704V38.2914H8.62218V37.6401C8.48547 37.8803 8.28417 38.0774 8.04112 38.2089C7.79807 38.3405 7.52301 38.4013 7.24714 38.3845C6.4304 38.3845 5.93414 37.9657 5.93414 37.2834C5.93414 36.4822 6.54929 36.1772 7.48493 36.0634L8.62735 35.9187C8.62735 35.1692 8.31719 34.8487 7.6245 34.8487C7.39492 34.8216 7.16334 34.8791 6.97307 35.0104C6.7828 35.1417 6.64685 35.3378 6.59064 35.562L6.10473 35.4431C6.19003 35.1073 6.39418 34.8139 6.67934 34.6171C6.96449 34.4203 7.31132 34.3336 7.65552 34.3731C8.63768 34.3886 9.1391 34.9107 9.1391 35.9704ZM7.53145 36.4873C6.75606 36.5855 6.4459 36.8027 6.4459 37.2576C6.4459 37.7125 6.75089 37.9296 7.33502 37.9296C7.62731 37.9476 7.91592 37.8566 8.14506 37.6743C8.3742 37.4919 8.52761 37.2311 8.57565 36.9422C8.61325 36.7482 8.62885 36.5505 8.62218 36.3529L7.53145 36.4873Z" fill="white"/>
<path d="M10.562 36.3627C10.5467 36.0056 10.5588 35.6479 10.5981 35.2926C10.7015 34.4914 10.8928 33.9848 11.3684 33.6798C12.0507 33.2456 12.7951 33.38 13.8083 33.1318L13.8496 33.6229C12.9243 33.8555 12.2006 33.7522 11.6734 34.0727C11.3063 34.3001 11.1564 34.6516 11.0789 35.458C11.214 35.2352 11.4069 35.0531 11.6372 34.9311C11.8675 34.8092 12.1265 34.7519 12.3867 34.7653C13.3586 34.7653 14.0306 35.4942 14.0306 36.5849C14.0508 36.8248 14.0195 37.0663 13.9386 37.293C13.8577 37.5198 13.7292 37.7266 13.5617 37.8995C13.3942 38.0724 13.1915 38.2074 12.9675 38.2954C12.7434 38.3834 12.5031 38.4224 12.2627 38.4097C11.1823 38.4045 10.5878 37.6498 10.562 36.3627ZM13.4826 36.5953C13.4826 35.7785 13.0587 35.2616 12.3144 35.2616C11.57 35.2616 11.1099 35.7785 11.1099 36.5953C11.0908 36.7625 11.1072 36.9318 11.1581 37.0922C11.2089 37.2526 11.2931 37.4004 11.4052 37.526C11.5172 37.6516 11.6545 37.7521 11.808 37.8209C11.9616 37.8897 12.128 37.9252 12.2963 37.9252C12.4645 37.9252 12.6309 37.8897 12.7845 37.8209C12.9381 37.7521 13.0753 37.6516 13.1874 37.526C13.2994 37.4004 13.3836 37.2526 13.4345 37.0922C13.4854 36.9318 13.5018 36.7625 13.4826 36.5953V36.5953Z" fill="white"/>
<path d="M15.5023 40.0016V34.5118H16.0193V35.1528C16.1436 34.9146 16.3343 34.7176 16.5682 34.5855C16.8021 34.4534 17.0693 34.3919 17.3375 34.4084C18.4178 34.4084 19.0692 35.2355 19.0692 36.4089C19.0692 37.5823 18.4075 38.4198 17.3375 38.4198C17.0678 38.4342 16.7997 38.3701 16.5657 38.2352C16.3317 38.1004 16.1419 37.9005 16.0193 37.6599V39.9861L15.5023 40.0016ZM18.5161 36.3831C18.5161 35.4681 18.1025 34.8788 17.2651 34.8788C16.4277 34.8788 16.0193 35.4991 16.0193 36.3831C16.0193 37.267 16.4432 37.8977 17.2651 37.8977C18.087 37.8977 18.5161 37.3084 18.5161 36.4089V36.3831Z" fill="white"/>
<path d="M23.5659 34.502V38.3014H23.049V35.3239L21.0588 38.3014H20.5419V34.502H21.0588V37.4846L23.049 34.502H23.5659Z" fill="white"/>
<path d="M25.2525 34.502H25.7695V36.3319L27.465 34.502H28.137L26.3588 36.4043L28.3696 38.3014H27.6201L25.754 36.4715V38.3014H25.237L25.2525 34.502Z" fill="white"/>
<path d="M32.4367 35.9704V38.2914H31.9198V37.6401C31.783 37.8803 31.5817 38.0774 31.3387 38.2089C31.0956 38.3405 30.8206 38.4013 30.5447 38.3845C29.728 38.3845 29.2317 37.9657 29.2317 37.2834C29.2317 36.4822 29.8469 36.1772 30.7825 36.0634L31.9249 35.9187C31.9249 35.1692 31.6148 34.8487 30.9221 34.8487C30.6925 34.8216 30.4609 34.8791 30.2706 35.0104C30.0804 35.1417 29.9444 35.3378 29.8882 35.562L29.4023 35.4431C29.4876 35.1073 29.6918 34.8139 29.9769 34.6171C30.2621 34.4203 30.6089 34.3336 30.9531 34.3731C31.9353 34.3886 32.4367 34.9107 32.4367 35.9704ZM30.829 36.4873C30.0536 36.5855 29.7435 36.8027 29.7435 37.2576C29.7435 37.7125 30.0485 37.9296 30.6326 37.9296C30.9246 37.9464 31.2126 37.8551 31.4415 37.6729C31.6704 37.4907 31.8241 37.2306 31.8732 36.9422C31.9108 36.7482 31.9264 36.5505 31.9198 36.3529L30.829 36.4873Z" fill="white"/>
<path d="M36.1639 38.3014V34.502H37.6268C38.5211 34.502 38.9967 34.8535 38.9967 35.5358C39.0075 35.7084 38.9633 35.88 38.8704 36.0258C38.7775 36.1717 38.6407 36.2843 38.4797 36.3474C38.6726 36.4083 38.8403 36.5307 38.957 36.696C39.0737 36.8612 39.133 37.0602 39.1259 37.2624C39.1259 37.9499 38.609 38.2962 37.6888 38.2962L36.1639 38.3014ZM36.6498 34.9465V36.1458H37.7612C38.1902 36.1458 38.4849 35.9649 38.4849 35.572C38.4849 35.1791 38.2471 34.9465 37.6216 34.9465H36.6498ZM37.6837 37.862C38.304 37.862 38.6193 37.6707 38.6193 37.2313C38.6193 36.792 38.273 36.5852 37.8284 36.5852H36.655V37.862H37.6837Z" fill="white"/>
<path d="M40.2996 36.4117C40.2996 35.2227 40.9871 34.4111 42.0985 34.4111C43.2099 34.4111 43.8974 35.2331 43.8974 36.4117C43.8974 37.5903 43.2254 38.4225 42.0985 38.4225C40.9716 38.4225 40.2996 37.5954 40.2996 36.4117ZM43.3495 36.4117C43.3495 35.4863 42.9256 34.9074 42.0985 34.9074C41.2714 34.9074 40.8475 35.507 40.8475 36.4117C40.8475 37.3163 41.2818 37.9263 42.0985 37.9263C42.9153 37.9263 43.3495 37.3214 43.3495 36.4117Z" fill="white"/>
<path d="M45.1952 36.4134C45.1952 35.1882 45.8724 34.4077 46.9838 34.4077C47.3252 34.3854 47.6646 34.474 47.9515 34.6603C48.2384 34.8466 48.4574 35.1206 48.5759 35.4415L48.059 35.607C47.9737 35.3892 47.823 35.2032 47.6277 35.0745C47.4324 34.9459 47.202 34.8808 46.9683 34.8884C46.167 34.8884 45.7328 35.4622 45.7328 36.3979C45.7328 37.3335 46.1515 37.9073 46.9683 37.9073C47.1985 37.921 47.4271 37.8606 47.6206 37.7351C47.814 37.6095 47.9622 37.4253 48.0435 37.2094L48.5604 37.3645C48.4362 37.6826 48.2151 37.9535 47.9285 38.139C47.6419 38.3246 47.3041 38.4153 46.9631 38.3984C45.8414 38.4191 45.1952 37.6282 45.1952 36.4134Z" fill="white"/>
<path d="M49.6366 36.4134C49.6366 35.1882 50.3138 34.4077 51.4252 34.4077C51.7666 34.3854 52.106 34.474 52.3929 34.6603C52.6798 34.8466 52.8988 35.1206 53.0173 35.4415L52.5004 35.607C52.4151 35.3892 52.2644 35.2032 52.0691 35.0745C51.8738 34.9459 51.6435 34.8808 51.4097 34.8884C50.6085 34.8884 50.1742 35.4622 50.1742 36.3979C50.1742 37.3335 50.5929 37.9073 51.4097 37.9073C51.6399 37.921 51.8685 37.8606 52.062 37.7351C52.2554 37.6095 52.4037 37.4253 52.4849 37.2094L53.0018 37.3645C52.8776 37.6826 52.6565 37.9535 52.3699 38.139C52.0833 38.3246 51.7455 38.4153 51.4045 38.3984C50.2828 38.4191 49.6366 37.6282 49.6366 36.4134Z" fill="white"/>
<path d="M55.5413 38.3177V35.0145H54.2076V34.4976H57.3971V35.0145H56.0583V38.3177H55.5413Z" fill="white"/>
<path d="M61.5956 35.9704V38.2914H61.0787V37.6401C60.9412 37.8807 60.7389 38.078 60.495 38.2095C60.2511 38.3411 59.9751 38.4017 59.6985 38.3845C58.8869 38.3845 58.3907 37.9658 58.3907 37.2834C58.3907 36.4822 59.0058 36.1772 59.9415 36.0635L61.0839 35.9187C61.0839 35.1692 60.7737 34.8487 60.05 34.8487C59.8203 34.8205 59.5881 34.8775 59.3976 35.009C59.2071 35.1405 59.0714 35.3372 59.0162 35.562L58.5251 35.4431C58.6114 35.1079 58.8157 34.8151 59.1007 34.6185C59.3856 34.4219 59.7319 34.3348 60.0759 34.3731C61.0994 34.3886 61.5956 34.9107 61.5956 35.9704ZM59.988 36.4873C59.2178 36.5856 58.9076 36.8027 58.9076 37.2576C58.9076 37.7125 59.2074 37.9296 59.7967 37.9296C60.0885 37.9453 60.3759 37.8535 60.6046 37.6715C60.8332 37.4896 60.9872 37.2301 61.0374 36.9422C61.0724 36.7478 61.088 36.5504 61.0839 36.3529L59.988 36.4873Z" fill="white"/>
<path d="M63.2133 38.3014V34.502H63.7302V36.1561H65.8807V34.502H66.3976V38.3014H65.8807V36.6524H63.7354V38.3014H63.2133Z" fill="white"/>
<path d="M67.8707 36.4117C67.8707 35.2227 68.5531 34.4111 69.6645 34.4111C70.7759 34.4111 71.4686 35.2331 71.4686 36.4117C71.4686 37.5903 70.7914 38.4225 69.6645 38.4225C68.5376 38.4225 67.8707 37.5954 67.8707 36.4117ZM70.9206 36.4117C70.9206 35.4863 70.4916 34.9074 69.6645 34.9074C68.8374 34.9074 68.4187 35.507 68.4187 36.4117C68.4187 37.3163 68.8477 37.9263 69.6645 37.9263C70.4812 37.9263 70.9206 37.3214 70.9206 36.4117Z" fill="white"/>
<path d="M72.942 38.3014V34.502H74.4101C75.2992 34.502 75.7748 34.8535 75.7748 35.5358C75.7865 35.7085 75.7426 35.8805 75.6496 36.0265C75.5566 36.1725 75.4193 36.2849 75.2579 36.3474C75.4498 36.4092 75.6163 36.5321 75.732 36.6972C75.8477 36.8624 75.9063 37.0608 75.8989 37.2624C75.8989 37.9499 75.3819 38.2962 74.467 38.2962L72.942 38.3014ZM73.4589 34.9465V36.1458H74.5703C74.9994 36.1458 75.2889 35.9649 75.2889 35.572C75.2889 35.1791 75.0511 34.9465 74.4308 34.9465H73.4589ZM74.4618 37.862C75.0873 37.862 75.3974 37.6707 75.3974 37.2313C75.3974 36.792 75.0511 36.5852 74.6117 36.5852H73.4641V37.862H74.4618Z" fill="white"/>
<path d="M76.9373 37.8982C76.9905 37.9049 77.0444 37.9049 77.0976 37.8982C77.4956 37.8982 77.6145 37.283 77.6145 36.2595V34.502H80.3542V38.3014H79.8373V34.9982H78.1211V36.4043C78.1211 37.7845 77.8471 38.4099 77.2682 38.4099C77.1613 38.4063 77.0553 38.3889 76.9528 38.3583L76.9373 37.8982Z" fill="white"/>
<path d="M84.8048 37.1929L85.2908 37.3686C85.152 37.6881 84.9196 37.9579 84.6242 38.1425C84.3289 38.3271 83.9845 38.4177 83.6366 38.4025C82.5355 38.4025 81.8221 37.6168 81.8221 36.3968C81.8221 35.1768 82.5252 34.3911 83.6159 34.3911C84.7066 34.3911 85.4045 35.2027 85.3683 36.5415H82.3701C82.4218 37.4048 82.887 37.9114 83.6366 37.9114C83.881 37.9233 84.1233 37.861 84.3318 37.7328C84.5403 37.6046 84.7051 37.4164 84.8048 37.1929ZM84.8048 36.1177C84.7428 35.3216 84.3138 34.877 83.6004 34.877C83.4372 34.8742 83.2751 34.9044 83.1238 34.9659C82.9726 35.0274 82.8354 35.1188 82.7204 35.2347C82.6055 35.3506 82.5152 35.4886 82.455 35.6404C82.3947 35.7921 82.3659 35.9545 82.3701 36.1177H84.8048Z" fill="white"/>
<path d="M86.847 38.3014V34.502H87.3639V36.1561H89.504V34.502H90.021V38.3014H89.504V36.6524H87.3639V38.3014H86.847Z" fill="white"/>
<path d="M94.7304 34.502V38.3014H94.2134V35.3239L92.2439 38.3014H91.727V34.502H92.2439V37.4846L94.2341 34.502H94.7304Z" fill="white"/>
<path d="M96.2447 38.3082L96.9736 36.7574C96.7464 36.6835 96.5501 36.5364 96.4154 36.339C96.2807 36.1417 96.2152 35.9052 96.2292 35.6667C96.2239 35.4992 96.2552 35.3325 96.3209 35.1783C96.3866 35.0242 96.4852 34.8862 96.6097 34.774C96.7342 34.6618 96.8817 34.5781 97.0418 34.5287C97.202 34.4793 97.371 34.4655 97.537 34.4881H99.2222V38.2875H98.7053V36.866H97.4854L96.7927 38.3082H96.2447ZM97.5939 34.9585C97.0201 34.9585 96.7461 35.2687 96.7461 35.6874C96.7461 36.1061 97.0201 36.4162 97.5939 36.4162H98.7053V34.9585H97.5939Z" fill="white"/>
<path d="M103.022 38.3014V34.502H103.539L104.893 37.1848L106.253 34.502H106.77V38.3014H106.253V35.5358L105.126 37.7741H104.65L103.523 35.5358V38.3014H103.022Z" fill="white"/>
<path d="M108.269 38.312L108.997 36.7612C108.777 36.6855 108.586 36.5403 108.455 36.3474C108.324 36.1545 108.258 35.9243 108.269 35.6911C108.263 35.5236 108.295 35.3569 108.36 35.2028C108.426 35.0486 108.524 34.9106 108.649 34.7984C108.773 34.6862 108.921 34.6025 109.081 34.5531C109.241 34.5037 109.41 34.4899 109.576 34.5125H111.262V38.312H110.745V36.8697H109.525L108.832 38.312H108.269ZM109.618 34.9622C109.044 34.9622 108.77 35.2724 108.77 35.6911C108.77 36.1098 109.044 36.42 109.618 36.42H110.729V34.9622H109.618Z" fill="white"/>
<path d="M112.947 38.3014V34.502H115.412V35.0189H113.464V38.3221L112.947 38.3014Z" fill="white"/>
<path d="M116.777 34.502H117.294V36.3319L118.99 34.502H119.683L117.904 36.4043L119.915 38.3014H119.161L117.294 36.4715V38.3014H116.777V34.502Z" fill="white"/>
<path d="M120.675 36.4117C120.675 35.2227 121.358 34.4111 122.474 34.4111C123.591 34.4111 124.294 35.2331 124.294 36.4117C124.294 37.5903 123.617 38.4225 122.495 38.4225C121.373 38.4225 120.675 37.5954 120.675 36.4117ZM123.725 36.4117C123.725 35.4863 123.296 34.9074 122.474 34.9074C121.652 34.9074 121.223 35.507 121.223 36.4117C121.223 37.3163 121.657 37.9263 122.474 37.9263C123.291 37.9263 123.741 37.3214 123.741 36.4117H123.725Z" fill="white"/>
<path d="M128.786 34.516V38.3154H128.269V35.3379L126.279 38.3154H125.762V34.516H126.279V37.4987L128.269 34.516H128.786ZM126.558 33.6114C126.475 33.4761 126.432 33.3202 126.434 33.1616H126.878C126.891 33.2799 126.946 33.3894 127.035 33.4689C127.123 33.5485 127.238 33.5926 127.357 33.5926C127.476 33.5926 127.59 33.5485 127.678 33.4689C127.767 33.3894 127.822 33.2799 127.835 33.1616H128.264C128.265 33.3199 128.223 33.4755 128.144 33.6127C128.065 33.7498 127.951 33.8635 127.814 33.9422C127.677 34.0245 127.519 34.0674 127.359 34.0662C127.197 34.0697 127.037 34.0293 126.896 33.9492C126.755 33.8691 126.638 33.7524 126.558 33.6114V33.6114Z" fill="white"/>
<path d="M132.564 38.3014V34.502H133.081L134.436 37.1848L135.79 34.502H136.307V38.3014H135.79V35.5358L134.663 37.7741H134.203L133.081 35.5358V38.3014H132.564Z" fill="white"/>
<path d="M140.789 37.1929L141.275 37.3686C141.136 37.6881 140.904 37.9579 140.609 38.1425C140.313 38.3271 139.969 38.4177 139.621 38.4025C138.52 38.4025 137.807 37.6168 137.807 36.3968C137.807 35.1768 138.51 34.3911 139.6 34.3911C140.691 34.3911 141.389 35.2027 141.353 36.5415H138.36C138.406 37.4048 138.877 37.9114 139.621 37.9114C139.865 37.9233 140.108 37.861 140.316 37.7328C140.525 37.6046 140.69 37.4164 140.789 37.1929ZM140.789 36.1177C140.727 35.3216 140.298 34.877 139.585 34.877C139.421 34.8742 139.259 34.9044 139.107 34.9658C138.956 35.0272 138.818 35.1186 138.703 35.2344C138.588 35.3503 138.497 35.4882 138.436 35.64C138.375 35.7917 138.346 35.9542 138.349 36.1177H140.789Z" fill="white"/>
<path d="M142.629 36.3627C142.616 36.0056 142.628 35.648 142.665 35.2926C142.768 34.4914 142.959 33.9848 143.435 33.6798C144.117 33.2456 144.867 33.38 145.875 33.1318L145.916 33.6229C144.991 33.8555 144.272 33.7522 143.74 34.0727C143.373 34.3001 143.223 34.6516 143.151 35.458C143.284 35.2352 143.476 35.053 143.706 34.931C143.935 34.809 144.194 34.7517 144.453 34.7653C145.425 34.7653 146.092 35.4942 146.092 36.5849C146.112 36.8248 146.081 37.0663 146 37.293C145.919 37.5198 145.791 37.7266 145.623 37.8995C145.456 38.0724 145.253 38.2074 145.029 38.2954C144.805 38.3834 144.564 38.4224 144.324 38.4097C143.254 38.4045 142.665 37.6498 142.629 36.3627ZM145.549 36.5953C145.549 35.7785 145.125 35.2616 144.381 35.2616C143.637 35.2616 143.182 35.7785 143.182 36.5953C143.166 36.76 143.185 36.9262 143.238 37.0831C143.29 37.24 143.375 37.3843 143.486 37.5066C143.598 37.629 143.734 37.7267 143.885 37.7936C144.036 37.8604 144.2 37.895 144.365 37.895C144.531 37.895 144.695 37.8604 144.846 37.7936C144.997 37.7267 145.133 37.629 145.244 37.5066C145.356 37.3843 145.441 37.24 145.493 37.0831C145.545 36.9262 145.565 36.76 145.549 36.5953V36.5953Z" fill="white"/>
<path d="M150.347 37.1929L150.864 37.3686C150.724 37.6872 150.491 37.9562 150.196 38.1406C149.901 38.325 149.557 38.4163 149.21 38.4025C148.109 38.4025 147.39 37.6168 147.39 36.3968C147.39 35.1768 148.093 34.3911 149.189 34.3911C150.285 34.3911 150.978 35.2027 150.936 36.5415H147.917C147.969 37.4048 148.434 37.9114 149.184 37.9114C149.428 37.9244 149.67 37.8625 149.878 37.7341C150.086 37.6057 150.249 37.4169 150.347 37.1929V37.1929ZM150.347 36.1177C150.28 35.3216 149.83 34.877 149.143 34.877C148.979 34.8742 148.817 34.9044 148.665 34.9658C148.514 35.0272 148.376 35.1186 148.261 35.2344C148.145 35.3503 148.055 35.4882 147.994 35.64C147.933 35.7917 147.904 35.9542 147.907 36.1177H150.347Z" fill="white"/>
<path d="M152.042 37.8982C152.094 37.9048 152.146 37.9048 152.197 37.8982C152.595 37.8982 152.714 37.283 152.714 36.2595V34.502H155.438V38.3014H154.921V34.9982H153.205V36.4043C153.205 37.7845 152.926 38.4099 152.347 38.4099C152.242 38.4062 152.138 38.3889 152.037 38.3583L152.042 37.8982Z" fill="white"/>
<path d="M160.152 34.502V38.3014H159.635V35.3239L157.645 38.3014H157.128V34.502H157.645V37.4846L159.635 34.502H160.152Z" fill="white"/>
</svg>
