<svg width="161" height="41" viewBox="0 0 161 41" fill="none" xmlns="http://www.w3.org/2000/svg">
<path d="M46.5783 19.3642L45.6048 26.7856H26.0776V26.3512C28.527 26.3512 28.6945 24.5508 28.6945 21.8868V5.47901C28.6945 2.81503 28.548 1.01462 26.0776 1.01462V0.585449H45.0082L45.5839 7.21138H45.1547C42.7053 3.02438 40.9677 1.59033 36.9429 1.59033H35.5874V12.5603H36.3044C40.0518 12.5603 41.2032 11.4821 42.2133 9.17404H42.6425V17.548H42.2133C41.1299 14.8841 40.0518 13.8059 36.3044 13.8059H35.5874V24.1321C35.5874 25.1056 35.8386 25.7912 37.0267 25.7912H37.3145C40.8787 25.7912 43.3281 24.6398 46.1387 19.3799L46.5783 19.3642Z" fill="#182F27"/>
<path d="M46.8978 13.7648C46.8978 5.73622 52.7335 0.15703 60.2596 0.15703C63.0797 0.139011 65.8843 0.575519 68.5656 1.44977V8.65143H68.1312C66.1162 4.18703 63.8133 1.16191 60.066 1.16191C55.6016 1.16191 54.2356 6.16539 54.2356 13.6549C54.2356 20.9298 55.2823 26.2159 59.888 26.2159C61.903 26.2159 62.3688 24.918 62.3688 22.8297V19.3649C62.3688 16.701 62.2275 15.0471 60.1392 14.9005V14.4714H70.2195V14.9005C69.1413 15.0471 69.068 16.701 69.068 19.3649V24.5987C67.053 25.9647 63.5935 27.2156 59.6473 27.2156C51.5088 27.2156 46.8978 22.0446 46.8978 13.7648Z" fill="#182F27"/>
<path d="M88.8781 22.1911C89.9248 25.033 90.6785 26.2263 92.1544 26.3781V26.8125H79.8079V26.3781C82.0375 26.2368 82.6865 25.0802 82.0009 23.1751L80.6349 19.323H73.899C72.4597 23.4263 72.7842 25.7291 75.197 26.3781V26.8125H68.7856V26.3781C69.9371 25.7291 71.1618 23.2379 72.7476 18.9253L79.6614 0H80.6715L88.8781 22.1911ZM74.4381 17.868H80.0749L77.2643 9.98077L74.4381 17.868Z" fill="#182F27"/>
<path d="M97.871 1.01462C95.4948 1.73688 94.7778 4.25954 94.7778 7.64055V15.6377L104.832 0.585449H114.096V1.01462C112.73 1.30247 111.144 2.45913 111.144 5.41097V18.3174C111.144 23.1429 112.007 26.0948 114.096 26.3826V26.817H106.596V26.3826C108.689 26.2413 109.909 23.1429 109.909 18.3174V4.79862L94.5004 27.377H93.5636V7.64055C93.5636 4.25954 93.1292 1.16116 91.0409 1.01462V0.585449H97.871V1.01462Z" fill="#182F27"/>
<path d="M114.096 13.7653C114.096 5.70003 118.89 0.157471 126.521 0.157471C134.152 0.157471 138.873 5.4174 138.873 13.6239C138.873 21.6944 134.084 27.2317 126.448 27.2317C118.812 27.2317 114.096 21.9823 114.096 13.7653ZM131.525 13.692C131.525 6.41705 130.159 1.16235 126.484 1.16235C122.81 1.16235 121.423 6.20247 121.423 13.692C121.423 20.9669 122.758 26.253 126.5 26.253C130.242 26.253 131.514 21.1815 131.514 13.692H131.525Z" fill="#182F27"/>
<path d="M143.363 1.01462C140.913 1.6636 140.625 4.03973 142.138 8.2529L145.451 17.4015L150.161 4.22291C150.847 2.31259 150.198 1.16116 147.968 1.01462V0.585449H160.32V1.01462C158.844 1.16116 158.085 2.34922 157.044 5.20162L148.837 27.377H147.827L140.913 8.47272C139.343 4.14964 138.108 1.66884 136.951 1.01462V0.585449H143.363V1.01462Z" fill="#182F27"/>
<path d="M13.557 26.94C4.87945 26.94 0.127197 21.8632 0.127197 13.5102C0.127197 5.29842 4.41364 0.724121 13.2116 0.724121H24.8829V1.15852C22.4335 1.15852 22.266 2.95893 22.266 5.62291V22.0412C22.266 24.7052 22.4125 26.5056 24.8829 26.5056V26.94H13.557ZM12.8034 25.9299C14.8969 25.9299 15.4202 25.2129 15.4202 23.627V3.02697C15.4202 2.1634 14.8969 1.73424 14.0542 1.73424H13.0075C8.97748 1.73424 7.50156 6.01545 7.50156 13.7248C7.47539 22.0778 8.89374 25.9299 12.8034 25.9299Z" fill="#182F27"/>
<path d="M2.06773 38.386C0.920138 38.386 0 37.7398 0 36.4268C0 35.1138 0.935646 34.478 2.06773 34.4573V33.3252H2.58466V34.4573C3.73225 34.4573 4.65238 35.1086 4.65238 36.4268C4.65238 37.745 3.71674 38.3653 2.58466 38.386V39.9057H2.06773V38.386ZM2.06773 34.9484C1.67699 34.9484 1.30227 35.1036 1.02598 35.3799C0.749689 35.6562 0.594472 36.0309 0.594472 36.4216C0.594472 36.8123 0.749689 37.1871 1.02598 37.4634C1.30227 37.7396 1.67699 37.8949 2.06773 37.8949V34.9484ZM2.58466 37.8949C2.97539 37.8949 3.35012 37.7396 3.62641 37.4634C3.9027 37.1871 4.05791 36.8123 4.05791 36.4216C4.05791 36.0309 3.9027 35.6562 3.62641 35.3799C3.35012 35.1036 2.97539 34.9484 2.58466 34.9484V37.8949Z" fill="#182F27"/>
<path d="M9.14356 35.9704V38.2914H8.62663V37.6401C8.48993 37.8803 8.28863 38.0774 8.04558 38.2089C7.80253 38.3405 7.52746 38.4013 7.2516 38.3845C6.43485 38.3845 5.9386 37.9657 5.9386 37.2834C5.9386 36.4822 6.55375 36.1772 7.48939 36.0634L8.6318 35.9187C8.6318 35.1692 8.32165 34.8487 7.62896 34.8487C7.39937 34.8216 7.1678 34.8791 6.97753 35.0104C6.78725 35.1417 6.65131 35.3378 6.5951 35.562L6.10919 35.4431C6.19449 35.1073 6.39864 34.8139 6.68379 34.6171C6.96895 34.4203 7.31577 34.3336 7.65998 34.3731C8.64214 34.3886 9.14356 34.9107 9.14356 35.9704ZM7.53591 36.4873C6.76052 36.5855 6.45036 36.8027 6.45036 37.2576C6.45036 37.7125 6.75535 37.9296 7.33948 37.9296C7.63177 37.9476 7.92038 37.8566 8.14952 37.6743C8.37866 37.4919 8.53207 37.2311 8.58011 36.9422C8.61771 36.7482 8.63331 36.5505 8.62663 36.3529L7.53591 36.4873Z" fill="#182F27"/>
<path d="M10.5646 36.3627C10.5494 36.0056 10.5615 35.6479 10.6008 35.2926C10.7042 34.4914 10.8954 33.9848 11.371 33.6798C12.0533 33.2456 12.7977 33.38 13.8109 33.1318L13.8523 33.6229C12.927 33.8555 12.2033 33.7522 11.676 34.0727C11.309 34.3001 11.1591 34.6516 11.0815 35.458C11.2166 35.2352 11.4095 35.0531 11.6398 34.9311C11.8701 34.8092 12.1291 34.7519 12.3894 34.7653C13.3612 34.7653 14.0332 35.4942 14.0332 36.5849C14.0535 36.8248 14.0221 37.0663 13.9412 37.293C13.8603 37.5198 13.7318 37.7266 13.5643 37.8995C13.3968 38.0724 13.1942 38.2074 12.9701 38.2954C12.746 38.3834 12.5057 38.4224 12.2653 38.4097C11.1849 38.4045 10.5904 37.6498 10.5646 36.3627ZM13.4852 36.5953C13.4852 35.7785 13.0614 35.2616 12.317 35.2616C11.5726 35.2616 11.1125 35.7785 11.1125 36.5953C11.0934 36.7625 11.1098 36.9318 11.1607 37.0922C11.2116 37.2526 11.2958 37.4004 11.4078 37.526C11.5198 37.6516 11.6571 37.7521 11.8107 37.8209C11.9642 37.8897 12.1306 37.9253 12.2989 37.9253C12.4672 37.9253 12.6335 37.8897 12.7871 37.8209C12.9407 37.7521 13.078 37.6516 13.19 37.526C13.302 37.4004 13.3862 37.2526 13.4371 37.0922C13.488 36.9318 13.5044 36.7625 13.4852 36.5953V36.5953Z" fill="#182F27"/>
<path d="M15.5056 40.0016V34.5118H16.0225V35.1528C16.1469 34.9146 16.3375 34.7176 16.5715 34.5855C16.8054 34.4534 17.0726 34.3919 17.3407 34.4084C18.4211 34.4084 19.0724 35.2355 19.0724 36.4089C19.0724 37.5823 18.4108 38.4198 17.3407 38.4198C17.071 38.4342 16.803 38.3701 16.569 38.2352C16.335 38.1004 16.1452 37.9005 16.0225 37.6599V39.9861L15.5056 40.0016ZM18.5193 36.3831C18.5193 35.4681 18.1058 34.8788 17.2683 34.8788C16.4309 34.8788 16.0225 35.4991 16.0225 36.3831C16.0225 37.267 16.4464 37.8977 17.2683 37.8977C18.0903 37.8977 18.5193 37.3084 18.5193 36.4089V36.3831Z" fill="#182F27"/>
<path d="M23.5631 34.502V38.3014H23.0462V35.3239L21.056 38.3014H20.5391V34.502H21.056V37.4846L23.0462 34.502H23.5631Z" fill="#182F27"/>
<path d="M25.2515 34.502H25.7684V36.3319L27.4639 34.502H28.1359L26.3577 36.4043L28.3686 38.3014H27.619L25.7529 36.4715V38.3014H25.236L25.2515 34.502Z" fill="#182F27"/>
<path d="M32.4334 35.9704V38.2914H31.9164V37.6401C31.7797 37.8803 31.5784 38.0774 31.3354 38.2089C31.0923 38.3405 30.8173 38.4013 30.5414 38.3845C29.7246 38.3845 29.2284 37.9657 29.2284 37.2834C29.2284 36.4822 29.8435 36.1772 30.7792 36.0634L31.9216 35.9187C31.9216 35.1692 31.6114 34.8487 30.9188 34.8487C30.6892 34.8216 30.4576 34.8791 30.2673 35.0104C30.077 35.1417 29.9411 35.3378 29.8849 35.562L29.399 35.4431C29.4843 35.1073 29.6884 34.8139 29.9736 34.6171C30.2587 34.4203 30.6056 34.3336 30.9498 34.3731C31.9319 34.3886 32.4334 34.9107 32.4334 35.9704ZM30.8257 36.4873C30.0503 36.5855 29.7402 36.8027 29.7402 37.2576C29.7402 37.7125 30.0451 37.9296 30.6293 37.9296C30.9213 37.9464 31.2093 37.8551 31.4382 37.6729C31.6671 37.4907 31.8208 37.2306 31.8699 36.9422C31.9075 36.7482 31.9231 36.5505 31.9164 36.3529L30.8257 36.4873Z" fill="#182F27"/>
<path d="M36.163 38.3014V34.502H37.6259C38.5202 34.502 38.9957 34.8535 38.9957 35.5358C39.0066 35.7084 38.9624 35.88 38.8695 36.0258C38.7766 36.1717 38.6398 36.2843 38.4788 36.3474C38.6717 36.4083 38.8394 36.5307 38.9561 36.696C39.0728 36.8612 39.1321 37.0602 39.125 37.2624C39.125 37.9499 38.608 38.2962 37.6879 38.2962L36.163 38.3014ZM36.6489 34.9465V36.1458H37.7603C38.1893 36.1458 38.484 35.9649 38.484 35.572C38.484 35.1791 38.2462 34.9465 37.6207 34.9465H36.6489ZM37.6827 37.862C38.3031 37.862 38.6184 37.6707 38.6184 37.2313C38.6184 36.792 38.272 36.5852 37.8275 36.5852H36.654V37.862H37.6827Z" fill="#182F27"/>
<path d="M40.304 36.4117C40.304 35.2227 40.9915 34.4111 42.1029 34.4111C43.2143 34.4111 43.9018 35.2331 43.9018 36.4117C43.9018 37.5903 43.2298 38.4225 42.1029 38.4225C40.976 38.4225 40.304 37.5954 40.304 36.4117ZM43.3538 36.4117C43.3538 35.4864 42.93 34.9074 42.1029 34.9074C41.2758 34.9074 40.8519 35.507 40.8519 36.4117C40.8519 37.3163 41.2861 37.9263 42.1029 37.9263C42.9196 37.9263 43.3538 37.3215 43.3538 36.4117Z" fill="#182F27"/>
<path d="M45.1976 36.4134C45.1976 35.1882 45.8748 34.4077 46.9862 34.4077C47.3276 34.3854 47.667 34.474 47.9539 34.6603C48.2408 34.8466 48.4599 35.1206 48.5784 35.4415L48.0614 35.607C47.9761 35.3892 47.8254 35.2032 47.6301 35.0745C47.4348 34.9459 47.2045 34.8808 46.9707 34.8884C46.1695 34.8884 45.7352 35.4622 45.7352 36.3979C45.7352 37.3335 46.154 37.9073 46.9707 37.9073C47.2009 37.921 47.4295 37.8606 47.623 37.7351C47.8165 37.6095 47.9647 37.4253 48.0459 37.2094L48.5629 37.3645C48.4386 37.6826 48.2175 37.9535 47.9309 38.139C47.6443 38.3246 47.3066 38.4153 46.9655 38.3984C45.8438 38.4191 45.1976 37.6282 45.1976 36.4134Z" fill="#182F27"/>
<path d="M49.6396 36.4134C49.6396 35.1882 50.3168 34.4077 51.4282 34.4077C51.7696 34.3854 52.109 34.474 52.3959 34.6603C52.6828 34.8466 52.9019 35.1206 53.0204 35.4415L52.5034 35.607C52.4181 35.3892 52.2675 35.2032 52.0722 35.0745C51.8768 34.9459 51.6465 34.8808 51.4127 34.8884C50.6115 34.8884 50.1773 35.4622 50.1773 36.3979C50.1773 37.3335 50.596 37.9073 51.4127 37.9073C51.643 37.921 51.8715 37.8606 52.065 37.7351C52.2585 37.6095 52.4067 37.4253 52.4879 37.2094L53.0049 37.3645C52.8806 37.6826 52.6596 37.9535 52.3729 38.139C52.0863 38.3246 51.7486 38.4153 51.4075 38.3984C50.2858 38.4191 49.6396 37.6282 49.6396 36.4134Z" fill="#182F27"/>
<path d="M55.5399 38.3177V35.0145H54.2062V34.4976H57.3956V35.0145H56.0568V38.3177H55.5399Z" fill="#182F27"/>
<path d="M61.5933 35.9704V38.2914H61.0763V37.6401C60.9388 37.8807 60.7366 38.078 60.4926 38.2095C60.2487 38.3411 59.9728 38.4017 59.6961 38.3845C58.8846 38.3845 58.3883 37.9658 58.3883 37.2834C58.3883 36.4822 59.0035 36.1772 59.9391 36.0635L61.0815 35.9187C61.0815 35.1692 60.7714 34.8487 60.0477 34.8487C59.8179 34.8205 59.5858 34.8775 59.3952 35.009C59.2047 35.1405 59.069 35.3372 59.0138 35.562L58.5227 35.4431C58.609 35.1079 58.8134 34.8151 59.0983 34.6185C59.3832 34.4219 59.7295 34.3348 60.0735 34.3731C61.097 34.3886 61.5933 34.9107 61.5933 35.9704ZM59.9856 36.4873C59.2154 36.5856 58.9052 36.8027 58.9052 37.2576C58.9052 37.7125 59.2051 37.9296 59.7944 37.9296C60.0861 37.9453 60.3736 37.8535 60.6022 37.6715C60.8308 37.4896 60.9848 37.2301 61.035 36.9422C61.07 36.7478 61.0856 36.5504 61.0815 36.3529L59.9856 36.4873Z" fill="#182F27"/>
<path d="M63.2133 38.3014V34.502H63.7302V36.1561H65.8806V34.502H66.3976V38.3014H65.8806V36.6524H63.7354V38.3014H63.2133Z" fill="#182F27"/>
<path d="M67.8707 36.4117C67.8707 35.2227 68.5531 34.4111 69.6645 34.4111C70.7759 34.4111 71.4686 35.2331 71.4686 36.4117C71.4686 37.5903 70.7914 38.4225 69.6645 38.4225C68.5376 38.4225 67.8707 37.5954 67.8707 36.4117ZM70.9206 36.4117C70.9206 35.4864 70.4916 34.9074 69.6645 34.9074C68.8374 34.9074 68.4187 35.507 68.4187 36.4117C68.4187 37.3163 68.8477 37.9263 69.6645 37.9263C70.4812 37.9263 70.9206 37.3215 70.9206 36.4117Z" fill="#182F27"/>
<path d="M72.9435 38.3014V34.502H74.4116C75.3007 34.502 75.7763 34.8535 75.7763 35.5358C75.7879 35.7085 75.744 35.8805 75.651 36.0265C75.558 36.1725 75.4208 36.2849 75.2593 36.3474C75.4513 36.4092 75.6178 36.5321 75.7335 36.6972C75.8492 36.8624 75.9078 37.0608 75.9003 37.2624C75.9003 37.9499 75.3834 38.2962 74.4684 38.2962L72.9435 38.3014ZM73.4604 34.9465V36.1458H74.5718C75.0009 36.1458 75.2903 35.9649 75.2903 35.572C75.2903 35.1791 75.0526 34.9465 74.4322 34.9465H73.4604ZM74.4633 37.862C75.0887 37.862 75.3989 37.6707 75.3989 37.2313C75.3989 36.792 75.0526 36.5852 74.6132 36.5852H73.4656V37.862H74.4633Z" fill="#182F27"/>
<path d="M76.938 37.8982C76.9912 37.9049 77.045 37.9049 77.0982 37.8982C77.4963 37.8982 77.6152 37.283 77.6152 36.2595V34.502H80.3549V38.3014H79.838V34.9982H78.1218V36.4043C78.1218 37.7845 77.8478 38.41 77.2688 38.41C77.1619 38.4063 77.056 38.3889 76.9535 38.3583L76.938 37.8982Z" fill="#182F27"/>
<path d="M84.8037 37.1929L85.2897 37.3686C85.1509 37.6881 84.9185 37.9579 84.6231 38.1425C84.3278 38.3271 83.9834 38.4177 83.6355 38.4025C82.5344 38.4025 81.821 37.6168 81.821 36.3968C81.821 35.1768 82.5241 34.3911 83.6148 34.3911C84.7055 34.3911 85.4034 35.2027 85.3672 36.5415H82.369C82.4207 37.4048 82.8859 37.9114 83.6355 37.9114C83.8799 37.9233 84.1222 37.861 84.3307 37.7328C84.5392 37.6046 84.704 37.4164 84.8037 37.1929ZM84.8037 36.1177C84.7417 35.3216 84.3127 34.877 83.5993 34.877C83.4361 34.8742 83.274 34.9044 83.1227 34.9659C82.9715 35.0274 82.8343 35.1188 82.7193 35.2347C82.6044 35.3506 82.5141 35.4886 82.4539 35.6404C82.3936 35.7921 82.3648 35.9545 82.369 36.1177H84.8037Z" fill="#182F27"/>
<path d="M86.847 38.3014V34.502H87.364V36.1561H89.5041V34.502H90.021V38.3014H89.5041V36.6524H87.364V38.3014H86.847Z" fill="#182F27"/>
<path d="M94.7304 34.502V38.3014H94.2135V35.3239L92.244 38.3014H91.7271V34.502H92.244V37.4846L94.2342 34.502H94.7304Z" fill="#182F27"/>
<path d="M96.2445 38.3082L96.9734 36.7574C96.7462 36.6835 96.5499 36.5364 96.4152 36.339C96.2805 36.1417 96.215 35.9052 96.229 35.6667C96.2237 35.4992 96.255 35.3325 96.3207 35.1783C96.3865 35.0242 96.485 34.8862 96.6095 34.774C96.734 34.6618 96.8815 34.5781 97.0416 34.5287C97.2018 34.4793 97.3708 34.4655 97.5369 34.4881H99.2221V38.2875H98.7051V36.866H97.4852L96.7925 38.3082H96.2445ZM97.5937 34.9585C97.0199 34.9585 96.746 35.2687 96.746 35.6874C96.746 36.1061 97.0199 36.4162 97.5937 36.4162H98.7051V34.9585H97.5937Z" fill="#182F27"/>
<path d="M103.023 38.3014V34.502H103.54L104.894 37.1848L106.254 34.502H106.771V38.3014H106.254V35.5358L105.127 37.7741H104.651L103.524 35.5358V38.3014H103.023Z" fill="#182F27"/>
<path d="M108.27 38.312L108.998 36.7612C108.778 36.6855 108.587 36.5403 108.456 36.3474C108.325 36.1545 108.259 35.9243 108.27 35.6911C108.264 35.5236 108.296 35.3569 108.361 35.2028C108.427 35.0486 108.526 34.9106 108.65 34.7984C108.775 34.6862 108.922 34.6025 109.082 34.5531C109.242 34.5037 109.411 34.4899 109.577 34.5125H111.263V38.312H110.746V36.8697H109.526L108.833 38.312H108.27ZM109.619 34.9622C109.045 34.9622 108.771 35.2724 108.771 35.6911C108.771 36.1098 109.045 36.42 109.619 36.42H110.73V34.9622H109.619Z" fill="#182F27"/>
<path d="M112.947 38.3014V34.502H115.413V35.0189H113.464V38.3221L112.947 38.3014Z" fill="#182F27"/>
<path d="M116.778 34.502H117.295V36.3319L118.99 34.502H119.683L117.905 36.4043L119.916 38.3014H119.161L117.295 36.4715V38.3014H116.778V34.502Z" fill="#182F27"/>
<path d="M120.676 36.4117C120.676 35.2227 121.358 34.4111 122.475 34.4111C123.591 34.4111 124.294 35.2331 124.294 36.4117C124.294 37.5903 123.617 38.4225 122.496 38.4225C121.374 38.4225 120.676 37.5954 120.676 36.4117ZM123.726 36.4117C123.726 35.4864 123.297 34.9074 122.475 34.9074C121.653 34.9074 121.224 35.507 121.224 36.4117C121.224 37.3163 121.658 37.9263 122.475 37.9263C123.292 37.9263 123.741 37.3215 123.741 36.4117H123.726Z" fill="#182F27"/>
<path d="M128.787 34.516V38.3154H128.27V35.3379L126.28 38.3154H125.763V34.516H126.28V37.4987L128.27 34.516H128.787ZM126.559 33.6114C126.476 33.4761 126.433 33.3202 126.435 33.1616H126.879C126.891 33.2799 126.947 33.3894 127.035 33.4689C127.124 33.5485 127.238 33.5926 127.357 33.5926C127.476 33.5926 127.591 33.5485 127.679 33.4689C127.767 33.3894 127.823 33.2799 127.835 33.1616H128.265C128.265 33.3199 128.224 33.4755 128.145 33.6127C128.066 33.7498 127.952 33.8635 127.815 33.9422C127.677 34.0245 127.52 34.0674 127.36 34.0662C127.198 34.0697 127.038 34.0293 126.897 33.9492C126.756 33.8691 126.639 33.7524 126.559 33.6114V33.6114Z" fill="#182F27"/>
<path d="M132.564 38.3014V34.502H133.081L134.436 37.1848L135.79 34.502H136.307V38.3014H135.79V35.5358L134.663 37.7741H134.203L133.081 35.5358V38.3014H132.564Z" fill="#182F27"/>
<path d="M140.789 37.1929L141.275 37.3686C141.136 37.6881 140.904 37.9579 140.608 38.1425C140.313 38.3271 139.969 38.4177 139.621 38.4025C138.52 38.4025 137.806 37.6168 137.806 36.3968C137.806 35.1768 138.509 34.3911 139.6 34.3911C140.691 34.3911 141.389 35.2027 141.352 36.5415H138.359C138.406 37.4048 138.876 37.9114 139.621 37.9114C139.865 37.9233 140.107 37.861 140.316 37.7328C140.524 37.6046 140.689 37.4164 140.789 37.1929ZM140.789 36.1177C140.727 35.3216 140.298 34.877 139.584 34.877C139.421 34.8742 139.259 34.9044 139.107 34.9658C138.956 35.0272 138.818 35.1186 138.703 35.2344C138.587 35.3503 138.497 35.4882 138.436 35.64C138.375 35.7917 138.346 35.9542 138.349 36.1177H140.789Z" fill="#182F27"/>
<path d="M142.628 36.3627C142.616 36.0056 142.628 35.648 142.665 35.2926C142.768 34.4914 142.959 33.9848 143.435 33.6798C144.117 33.2456 144.867 33.38 145.875 33.1318L145.916 33.6229C144.991 33.8555 144.272 33.7522 143.74 34.0727C143.373 34.3001 143.223 34.6516 143.151 35.458C143.284 35.2352 143.476 35.053 143.706 34.931C143.935 34.809 144.194 34.7517 144.453 34.7653C145.425 34.7653 146.092 35.4942 146.092 36.5849C146.112 36.8248 146.081 37.0663 146 37.293C145.919 37.5198 145.791 37.7266 145.623 37.8995C145.456 38.0724 145.253 38.2074 145.029 38.2954C144.805 38.3834 144.564 38.4224 144.324 38.4097C143.254 38.4045 142.665 37.6498 142.628 36.3627ZM145.549 36.5953C145.549 35.7785 145.125 35.2616 144.381 35.2616C143.636 35.2616 143.182 35.7785 143.182 36.5953C143.166 36.76 143.185 36.9262 143.238 37.0831C143.29 37.24 143.375 37.3843 143.486 37.5066C143.598 37.629 143.734 37.7267 143.885 37.7936C144.036 37.8604 144.2 37.895 144.365 37.895C144.531 37.895 144.694 37.8604 144.846 37.7936C144.997 37.7267 145.133 37.629 145.244 37.5066C145.356 37.3843 145.44 37.24 145.493 37.0831C145.545 36.9262 145.565 36.76 145.549 36.5953V36.5953Z" fill="#182F27"/>
<path d="M150.347 37.1929L150.864 37.3686C150.724 37.6872 150.492 37.9562 150.197 38.1406C149.902 38.325 149.558 38.4163 149.21 38.4025C148.109 38.4025 147.391 37.6168 147.391 36.3968C147.391 35.1768 148.094 34.3911 149.19 34.3911C150.285 34.3911 150.978 35.2027 150.937 36.5415H147.918C147.97 37.4048 148.435 37.9114 149.184 37.9114C149.428 37.9244 149.67 37.8625 149.878 37.7341C150.086 37.6057 150.25 37.4169 150.347 37.1929V37.1929ZM150.347 36.1177C150.28 35.3216 149.831 34.877 149.143 34.877C148.98 34.8742 148.817 34.9044 148.666 34.9658C148.514 35.0272 148.377 35.1186 148.261 35.2344C148.146 35.3503 148.055 35.4882 147.994 35.64C147.934 35.7917 147.904 35.9542 147.908 36.1177H150.347Z" fill="#182F27"/>
<path d="M152.042 37.8982C152.094 37.9048 152.146 37.9048 152.197 37.8982C152.595 37.8982 152.714 37.283 152.714 36.2595V34.502H155.438V38.3014H154.921V34.9982H153.205V36.4043C153.205 37.7845 152.926 38.41 152.347 38.41C152.242 38.4062 152.138 38.3889 152.037 38.3583L152.042 37.8982Z" fill="#182F27"/>
<path d="M160.153 34.502V38.3014H159.636V35.3239L157.645 38.3014H157.129V34.502H157.645V37.4846L159.636 34.502H160.153Z" fill="#182F27"/>
</svg>
