<svg width="170" height="60" viewBox="0 0 170 60" fill="none" xmlns="http://www.w3.org/2000/svg">
<path d="M49.3928 29.0394L48.3605 40.1686H27.6544V39.5171C30.2517 39.5171 30.4293 36.8173 30.4293 32.8224V8.21746C30.4293 4.2226 30.2739 1.52272 27.6544 1.52272V0.87915H47.7279L48.3383 10.8153H47.8833C45.286 4.53653 43.4435 2.38606 39.1757 2.38606H37.7383V18.8364H38.4986C42.4723 18.8364 43.6932 17.2197 44.7643 13.7585H45.2194V26.316H44.7643C43.6155 22.3211 42.4723 20.7044 38.4986 20.7044H37.7383V36.1894C37.7383 37.6492 38.0047 38.6773 39.2645 38.6773H39.5697C43.3491 38.6773 45.9464 36.9507 48.9266 29.063L49.3928 29.0394Z" fill="#182F27"/>
<path d="M49.7257 20.6414C49.7257 8.60189 55.9137 0.235423 63.8942 0.235423C66.8846 0.208401 69.8585 0.862982 72.7017 2.17399V12.9735H72.241C70.1044 6.27874 67.6625 1.74233 63.6889 1.74233C58.9549 1.74233 57.5065 9.24546 57.5065 20.4766C57.5065 31.386 58.6164 39.3129 63.5002 39.3129C65.6368 39.3129 66.1308 37.3665 66.1308 34.235V29.0393C66.1308 25.0444 65.9809 22.5643 63.7666 22.3445V21.701H74.4554V22.3445C73.3122 22.5643 73.2345 25.0444 73.2345 29.0393V36.8877C71.0978 38.9362 67.4294 40.812 63.2449 40.812C54.615 40.812 49.7257 33.0577 49.7257 20.6414Z" fill="#182F27"/>
<path d="M94.2459 33.2775C95.3559 37.5392 96.155 39.3287 97.7201 39.5563V40.2077H84.6282V39.5563C86.9924 39.3444 87.6806 37.6098 86.9536 34.753L85.5051 28.9765H78.3625C76.8364 35.1297 77.1804 38.583 79.7389 39.5563V40.2077H72.9404V39.5563C74.1614 38.583 75.46 34.8472 77.1416 28.38L84.4728 0H85.5439L94.2459 33.2775ZM78.9342 26.7947H84.9112L81.931 14.967L78.9342 26.7947Z" fill="#182F27"/>
<path d="M103.78 1.52272C101.261 2.60581 100.5 6.38877 100.5 11.4589V23.4513L111.162 0.87915H120.985V1.52272C119.536 1.95439 117.855 3.6889 117.855 8.11543V27.4697C117.855 34.706 118.77 39.1326 120.985 39.5642V40.2156H113.032V39.5642C115.252 39.3523 116.545 34.706 116.545 27.4697V7.19716L100.206 41.0554H99.2129V11.4589C99.2129 6.38877 98.7523 1.74248 96.538 1.52272V0.87915H103.78V1.52272Z" fill="#182F27"/>
<path d="M120.985 20.6416C120.985 8.54712 126.068 0.235596 134.16 0.235596C142.251 0.235596 147.257 8.1233 147.257 20.4297C147.257 32.532 142.179 40.8357 134.082 40.8357C125.985 40.8357 120.985 32.9637 120.985 20.6416ZM139.465 20.5317C139.465 9.62236 138.017 1.7425 134.121 1.7425C130.225 1.7425 128.754 9.30057 128.754 20.5317C128.754 31.4411 130.169 39.368 134.138 39.368C138.106 39.368 139.454 31.7629 139.454 20.5317H139.465Z" fill="#182F27"/>
<path d="M152.019 1.52272C149.422 2.49593 149.116 6.05914 150.72 12.3771L154.233 26.0963L159.228 6.33383C159.955 3.46914 159.267 1.74248 156.903 1.52272V0.87915H170V1.52272C168.435 1.74248 167.63 3.52408 166.526 7.80149L157.824 41.0554H156.753L149.422 12.7068C147.757 6.22395 146.447 2.50378 145.22 1.52272V0.87915H152.019V1.52272Z" fill="#182F27"/>
<path d="M14.3795 40.4038C5.17797 40.4038 0.138794 32.7908 0.138794 20.2646C0.138794 7.95038 4.68404 1.09082 14.0132 1.09082H26.3891V1.74224C23.7918 1.74224 23.6142 4.44211 23.6142 8.43698V33.0576C23.6142 37.0525 23.7696 39.7524 26.3891 39.7524V40.4038H14.3795ZM13.5803 38.889C15.8002 38.889 16.3552 37.8138 16.3552 35.4357V4.54415C16.3552 3.24915 15.8002 2.60557 14.9067 2.60557H13.7967C9.52343 2.60557 7.95839 9.02562 7.95839 20.5864C7.93065 33.1126 9.43463 38.889 13.5803 38.889Z" fill="#182F27"/>
<path d="M2.19256 57.5661C0.975691 57.5661 0 56.5971 0 54.6281C0 52.6592 0.992135 51.7057 2.19256 51.6747V49.9771H2.74071V51.6747C3.95758 51.6747 4.93327 52.6514 4.93327 54.6281C4.93327 56.6049 3.94113 57.5351 2.74071 57.5661V59.8451H2.19256V57.5661ZM2.19256 52.4111C1.77824 52.4111 1.38089 52.6439 1.08792 53.0582C0.794951 53.4725 0.630362 54.0345 0.630362 54.6204C0.630362 55.2063 0.794951 55.7683 1.08792 56.1826C1.38089 56.5969 1.77824 56.8297 2.19256 56.8297V52.4111ZM2.74071 56.8297C3.15503 56.8297 3.55238 56.5969 3.84535 56.1826C4.13832 55.7683 4.30291 55.2063 4.30291 54.6204C4.30291 54.0345 4.13832 53.4725 3.84535 53.0582C3.55238 52.6439 3.15503 52.4111 2.74071 52.4111V56.8297Z" fill="#182F27"/>
<path d="M9.6912 53.9849V57.4655H9.14306V56.4888C8.9981 56.849 8.78464 57.1445 8.52692 57.3418C8.26919 57.5391 7.97752 57.6303 7.685 57.6051C6.81894 57.6051 6.29272 56.9772 6.29272 55.9539C6.29272 54.7524 6.94501 54.295 7.93715 54.1245L9.14854 53.9074C9.14854 52.7834 8.81965 52.3028 8.08515 52.3028C7.8417 52.2623 7.59614 52.3485 7.39438 52.5454C7.19262 52.7422 7.04846 53.0363 6.98886 53.3726L6.47361 53.1943C6.56406 52.6907 6.78054 52.2506 7.08291 51.9556C7.38529 51.6605 7.75305 51.5305 8.11803 51.5896C9.1595 51.6129 9.6912 52.3958 9.6912 53.9849ZM7.98648 54.7601C7.16427 54.9074 6.83539 55.233 6.83539 55.9152C6.83539 56.5973 7.15879 56.9229 7.77819 56.9229C8.08813 56.9499 8.39416 56.8135 8.63713 56.5401C8.88011 56.2666 9.04279 55.8755 9.09373 55.4423C9.13359 55.1513 9.15014 54.8548 9.14306 54.5586L7.98648 54.7601Z" fill="#182F27"/>
<path d="M11.1985 54.5583C11.1824 54.0228 11.1952 53.4863 11.2369 52.9536C11.3465 51.7521 11.5493 50.9924 12.0536 50.5351C12.7772 49.8839 13.5665 50.0855 14.6408 49.7134L14.6847 50.4498C13.7035 50.7986 12.9361 50.6436 12.377 51.1242C11.9878 51.4653 11.8289 51.9924 11.7467 53.2017C11.8899 52.8675 12.0945 52.5945 12.3387 52.4116C12.5828 52.2287 12.8575 52.1428 13.1335 52.1629C14.164 52.1629 14.8765 53.256 14.8765 54.8916C14.898 55.2513 14.8648 55.6134 14.779 55.9534C14.6933 56.2934 14.557 56.6035 14.3793 56.8628C14.2017 57.1221 13.9869 57.3245 13.7493 57.4565C13.5117 57.5885 13.2568 57.647 13.0019 57.628C11.8563 57.6202 11.2259 56.4885 11.1985 54.5583ZM14.2955 54.9071C14.2955 53.6823 13.846 52.9071 13.0567 52.9071C12.2674 52.9071 11.7795 53.6823 11.7795 54.9071C11.7592 55.1578 11.7766 55.4117 11.8306 55.6523C11.8846 55.8928 11.9738 56.1145 12.0926 56.3028C12.2114 56.4911 12.357 56.6418 12.5198 56.745C12.6827 56.8482 12.8591 56.9015 13.0375 56.9015C13.216 56.9015 13.3924 56.8482 13.5552 56.745C13.7181 56.6418 13.8637 56.4911 13.9824 56.3028C14.1012 56.1145 14.1905 55.8928 14.2445 55.6523C14.2984 55.4117 14.3158 55.1578 14.2955 54.9071Z" fill="#182F27"/>
<path d="M16.4388 59.9998V51.7674H16.987V52.7286C17.1188 52.3715 17.321 52.076 17.569 51.8779C17.8171 51.6798 18.1004 51.5876 18.3847 51.6123C19.5304 51.6123 20.221 52.8526 20.221 54.6123C20.221 56.372 19.5194 57.6278 18.3847 57.6278C18.0988 57.6494 17.8145 57.5533 17.5664 57.351C17.3183 57.1488 17.117 56.8491 16.987 56.4882V59.9766L16.4388 59.9998ZM19.6345 54.5735C19.6345 53.2015 19.196 52.3178 18.308 52.3178C17.42 52.3178 16.987 53.248 16.987 54.5735C16.987 55.8991 17.4365 56.8448 18.308 56.8448C19.1795 56.8448 19.6345 55.9611 19.6345 54.6123V54.5735Z" fill="#182F27"/>
<path d="M24.9898 51.7676V57.4652H24.4417V53.0001L22.3313 57.4652H21.7832V51.7676H22.3313V56.2404L24.4417 51.7676H24.9898Z" fill="#182F27"/>
<path d="M26.7767 51.7676H27.3248V54.5117L29.1227 51.7676H29.8353L27.9497 54.6202L30.082 57.4652H29.2872L27.3084 54.721V57.4652H26.7603L26.7767 51.7676Z" fill="#182F27"/>
<path d="M34.3959 53.9849V57.4655H33.8478V56.4888C33.7028 56.849 33.4894 57.1445 33.2316 57.3418C32.9739 57.5391 32.6822 57.6303 32.3897 57.6051C31.5237 57.6051 30.9974 56.9772 30.9974 55.9539C30.9974 54.7524 31.6497 54.295 32.6419 54.1245L33.8533 53.9074C33.8533 52.7834 33.5244 52.3028 32.7899 52.3028C32.5464 52.2623 32.3009 52.3485 32.0991 52.5454C31.8973 52.7422 31.7532 53.0363 31.6936 53.3726L31.1783 53.1943C31.2688 52.6907 31.4852 52.2506 31.7876 51.9556C32.09 51.6605 32.4578 51.5305 32.8227 51.5896C33.8642 51.6129 34.3959 52.3958 34.3959 53.9849ZM32.6912 54.7601C31.869 54.9074 31.5401 55.233 31.5401 55.9152C31.5401 56.5973 31.8635 56.9229 32.4829 56.9229C32.7926 56.9482 33.098 56.8112 33.3407 56.538C33.5834 56.2648 33.7464 55.8747 33.7984 55.4423C33.8383 55.1513 33.8548 54.8548 33.8478 54.5586L32.6912 54.7601Z" fill="#182F27"/>
<path d="M38.3479 57.4652V51.7676H39.8991C40.8474 51.7676 41.3517 52.2947 41.3517 53.3179C41.3632 53.5767 41.3163 53.834 41.2178 54.0527C41.1193 54.2714 40.9743 54.4403 40.8036 54.535C41.0081 54.6263 41.1859 54.8099 41.3096 55.0577C41.4334 55.3055 41.4963 55.6039 41.4887 55.907C41.4887 56.938 40.9406 57.4574 39.9649 57.4574L38.3479 57.4652ZM38.8632 52.4342V54.2326H40.0417C40.4966 54.2326 40.8091 53.9613 40.8091 53.3722C40.8091 52.7831 40.5569 52.4342 39.8937 52.4342H38.8632ZM39.9594 56.8063C40.6172 56.8063 40.9516 56.5194 40.9516 55.8605C40.9516 55.2016 40.5843 54.8916 40.1129 54.8916H38.8686V56.8063H39.9594Z" fill="#182F27"/>
<path d="M42.733 54.6127C42.733 52.8298 43.4621 51.6128 44.6406 51.6128C45.8191 51.6128 46.5481 52.8453 46.5481 54.6127C46.5481 56.3802 45.8355 57.6282 44.6406 57.6282C43.4456 57.6282 42.733 56.3879 42.733 54.6127ZM45.9671 54.6127C45.9671 53.2252 45.5176 52.357 44.6406 52.357C43.7635 52.357 43.3141 53.2562 43.3141 54.6127C43.3141 55.9693 43.7745 56.884 44.6406 56.884C45.5066 56.884 45.9671 55.9771 45.9671 54.6127Z" fill="#182F27"/>
<path d="M47.924 54.6202C47.924 52.783 48.642 51.6125 49.8205 51.6125C50.1825 51.579 50.5424 51.7119 50.8467 51.9913C51.1509 52.2707 51.3831 52.6816 51.5088 53.1628L50.9607 53.4109C50.8702 53.0843 50.7104 52.8054 50.5033 52.6125C50.2962 52.4195 50.0519 52.322 49.8041 52.3334C48.9545 52.3334 48.494 53.1939 48.494 54.5969C48.494 56 48.938 56.8605 49.8041 56.8605C50.0482 56.881 50.2906 56.7905 50.4957 56.6022C50.7009 56.4139 50.858 56.1377 50.9442 55.814L51.4923 56.0465C51.3606 56.5234 51.1262 56.9297 50.8222 57.208C50.5183 57.4862 50.1602 57.6222 49.7986 57.5969C48.6091 57.6279 47.924 56.4419 47.924 54.6202Z" fill="#182F27"/>
<path d="M52.6329 54.6202C52.6329 52.783 53.351 51.6125 54.5295 51.6125C54.8915 51.579 55.2514 51.7119 55.5556 51.9913C55.8599 52.2707 56.0921 52.6816 56.2178 53.1628L55.6696 53.4109C55.5792 53.0843 55.4194 52.8054 55.2123 52.6125C55.0052 52.4195 54.7609 52.322 54.5131 52.3334C53.6634 52.3334 53.203 53.1939 53.203 54.5969C53.203 56 53.647 56.8605 54.5131 56.8605C54.7572 56.881 54.9996 56.7905 55.2047 56.6022C55.4099 56.4139 55.567 56.1377 55.6532 55.814L56.2013 56.0465C56.0696 56.5234 55.8352 56.9297 55.5312 57.208C55.2273 57.4862 54.8692 57.6222 54.5076 57.5969C53.3181 57.6279 52.6329 56.4419 52.6329 54.6202Z" fill="#182F27"/>
<path d="M58.8952 57.4654V52.512H57.481V51.7368H60.863V52.512H59.4433V57.4654H58.8952Z" fill="#182F27"/>
<path d="M65.3138 53.9847V57.4653H64.7656V56.4886C64.6197 56.8494 64.4053 57.1452 64.1467 57.3425C63.888 57.5398 63.5954 57.6307 63.3021 57.6048C62.4415 57.6048 61.9153 56.9769 61.9153 55.9537C61.9153 54.7522 62.5676 54.2948 63.5597 54.1243L64.7711 53.9072C64.7711 52.7832 64.4422 52.3026 63.6748 52.3026C63.4312 52.2603 63.185 52.3459 62.983 52.543C62.781 52.7402 62.6371 53.0352 62.5785 53.3723L62.0578 53.194C62.1493 52.6913 62.366 52.2522 62.6681 51.9574C62.9702 51.6626 63.3374 51.532 63.7022 51.5894C64.7875 51.6127 65.3138 52.3956 65.3138 53.9847ZM63.609 54.7599C62.7923 54.9072 62.4634 55.2328 62.4634 55.9149C62.4634 56.5971 62.7813 56.9227 63.4062 56.9227C63.7156 56.9462 64.0204 56.8086 64.2628 56.5357C64.5053 56.2629 64.6686 55.8738 64.7218 55.4421C64.7589 55.1505 64.7754 54.8545 64.7711 54.5584L63.609 54.7599Z" fill="#182F27"/>
<path d="M67.0295 57.4652V51.7676H67.5777V54.2482H69.858V51.7676H70.4061V57.4652H69.858V54.9923H67.5832V57.4652H67.0295Z" fill="#182F27"/>
<path d="M71.9683 54.6127C71.9683 52.8298 72.6918 51.6128 73.8703 51.6128C75.0488 51.6128 75.7833 52.8453 75.7833 54.6127C75.7833 56.3802 75.0653 57.6282 73.8703 57.6282C72.6754 57.6282 71.9683 56.3879 71.9683 54.6127ZM75.2023 54.6127C75.2023 53.2252 74.7473 52.357 73.8703 52.357C72.9933 52.357 72.5493 53.2562 72.5493 54.6127C72.5493 55.9693 73.0042 56.884 73.8703 56.884C74.7364 56.884 75.2023 55.9771 75.2023 54.6127Z" fill="#182F27"/>
<path d="M77.3456 57.4652V51.7676H78.9023C79.8451 51.7676 80.3494 52.2947 80.3494 53.3179C80.3618 53.577 80.3152 53.8348 80.2166 54.0537C80.118 54.2727 79.9725 54.4413 79.8013 54.535C80.0048 54.6277 80.1813 54.8119 80.304 55.0596C80.4267 55.3073 80.4889 55.6048 80.4809 55.907C80.4809 56.938 79.9328 57.4574 78.9626 57.4574L77.3456 57.4652ZM77.8937 52.4342V54.2326H79.0722C79.5272 54.2326 79.8341 53.9613 79.8341 53.3722C79.8341 52.7831 79.582 52.4342 78.9242 52.4342H77.8937ZM78.9571 56.8063C79.6204 56.8063 79.9493 56.5194 79.9493 55.8605C79.9493 55.2016 79.582 54.8916 79.1161 54.8916H77.8992V56.8063H78.9571Z" fill="#182F27"/>
<path d="M81.5826 56.8605C81.6391 56.8706 81.6961 56.8706 81.7526 56.8605C82.1746 56.8605 82.3007 55.938 82.3007 54.4032V51.7676H85.2059V57.4652H84.6577V52.5118H82.8379V54.6202C82.8379 56.69 82.5474 57.6279 81.9335 57.6279C81.8201 57.6224 81.7077 57.5964 81.5991 57.5504L81.5826 56.8605Z" fill="#182F27"/>
<path d="M89.9253 55.7986L90.4406 56.0622C90.2935 56.5412 90.047 56.9459 89.7338 57.2227C89.4207 57.4995 89.0555 57.6354 88.6866 57.6126C87.519 57.6126 86.7626 56.4343 86.7626 54.6049C86.7626 52.7754 87.508 51.5972 88.6646 51.5972C89.8212 51.5972 90.5612 52.8142 90.5228 54.8219H87.3436C87.3984 56.1165 87.8917 56.8762 88.6866 56.8762C88.9458 56.8939 89.2027 56.8006 89.4238 56.6083C89.6448 56.416 89.8196 56.1338 89.9253 55.7986ZM89.9253 54.1863C89.8596 52.9925 89.4046 52.3258 88.6482 52.3258C88.4751 52.3216 88.3032 52.3669 88.1428 52.4591C87.9825 52.5513 87.837 52.6884 87.7151 52.8622C87.5932 53.0361 87.4974 53.243 87.4336 53.4705C87.3697 53.6981 87.3391 53.9415 87.3436 54.1863H89.9253Z" fill="#182F27"/>
<path d="M92.0906 57.4652V51.7676H92.6387V54.2482H94.908V51.7676H95.4562V57.4652H94.908V54.9923H92.6387V57.4652H92.0906Z" fill="#182F27"/>
<path d="M100.45 51.7676V57.4652H99.9015V53.0001L97.8131 57.4652H97.265V51.7676H97.8131V56.2404L99.9234 51.7676H100.45Z" fill="#182F27"/>
<path d="M102.056 57.4651L102.829 55.1396C102.588 55.0288 102.38 54.8081 102.237 54.5122C102.094 54.2162 102.024 53.8616 102.039 53.5039C102.034 53.2527 102.067 53.0028 102.137 52.7716C102.206 52.5404 102.311 52.3335 102.443 52.1652C102.575 51.997 102.731 51.8714 102.901 51.7974C103.071 51.7234 103.25 51.7026 103.426 51.7365H105.213V57.4341H104.665V55.3024H103.371L102.637 57.4651H102.056ZM103.486 52.4419C102.878 52.4419 102.587 52.9071 102.587 53.535C102.587 54.1629 102.878 54.628 103.486 54.628H104.665V52.4419H103.486Z" fill="#182F27"/>
<path d="M109.242 57.4652V51.7676H109.79L111.226 55.7908L112.668 51.7676H113.216V57.4652H112.668V53.3179L111.473 56.6745H110.968L109.774 53.3179V57.4652H109.242Z" fill="#182F27"/>
<path d="M114.805 57.4654L115.578 55.1398C115.344 55.0263 115.142 54.8086 115.003 54.5194C114.864 54.2301 114.794 53.8848 114.805 53.5352C114.8 53.284 114.833 53.0341 114.903 52.8029C114.972 52.5717 115.077 52.3647 115.209 52.1965C115.341 52.0282 115.497 51.9027 115.667 51.8287C115.837 51.7546 116.016 51.7338 116.192 51.7678H117.979V57.4654H117.431V55.3026H116.137L115.403 57.4654H114.805ZM116.236 52.4422C115.628 52.4422 115.337 52.9073 115.337 53.5352C115.337 54.1631 115.628 54.6282 116.236 54.6282H117.415V52.4422H116.236Z" fill="#182F27"/>
<path d="M119.766 57.4652V51.7676H122.381V52.5428H120.314V57.4962L119.766 57.4652Z" fill="#182F27"/>
<path d="M123.828 51.7676H124.376V54.5117L126.174 51.7676H126.908L125.023 54.6202L127.155 57.4652H126.355L124.376 54.721V57.4652H123.828V51.7676Z" fill="#182F27"/>
<path d="M127.961 54.6127C127.961 52.8298 128.684 51.6128 129.868 51.6128C131.052 51.6128 131.798 52.8453 131.798 54.6127C131.798 56.3802 131.08 57.6282 129.89 57.6282C128.701 57.6282 127.961 56.3879 127.961 54.6127ZM131.195 54.6127C131.195 53.2252 130.74 52.357 129.868 52.357C128.997 52.357 128.542 53.2562 128.542 54.6127C128.542 55.9693 129.002 56.884 129.868 56.884C130.734 56.884 131.211 55.9771 131.211 54.6127H131.195Z" fill="#182F27"/>
<path d="M136.561 51.7678V57.4654H136.013V53.0003L133.903 57.4654H133.355V51.7678H133.903V56.2406L136.013 51.7678H136.561ZM134.199 50.4112C134.111 50.2084 134.065 49.9746 134.067 49.7368H134.539C134.552 49.9141 134.611 50.0783 134.704 50.1977C134.798 50.317 134.92 50.3831 135.046 50.3831C135.172 50.3831 135.293 50.317 135.387 50.1977C135.48 50.0783 135.54 49.9141 135.553 49.7368H136.008C136.008 49.9741 135.965 50.2076 135.881 50.4132C135.797 50.6188 135.676 50.7894 135.531 50.9073C135.385 51.0307 135.218 51.0951 135.048 51.0934C134.876 51.0986 134.707 51.0379 134.557 50.9178C134.407 50.7977 134.284 50.6227 134.199 50.4112Z" fill="#182F27"/>
<path d="M140.568 57.4652V51.7676H141.116L142.552 55.7908L143.989 51.7676H144.537V57.4652H143.989V53.3179L142.794 56.6745H142.306L141.116 53.3179V57.4652H140.568Z" fill="#182F27"/>
<path d="M149.289 55.7986L149.804 56.0622C149.657 56.5412 149.411 56.9459 149.098 57.2227C148.784 57.4995 148.419 57.6354 148.05 57.6126C146.883 57.6126 146.126 56.4343 146.126 54.6049C146.126 52.7754 146.872 51.5972 148.028 51.5972C149.185 51.5972 149.925 52.8142 149.887 54.8219H146.713C146.762 56.1165 147.261 56.8762 148.05 56.8762C148.309 56.8939 148.566 56.8006 148.787 56.6083C149.009 56.416 149.183 56.1338 149.289 55.7986ZM149.289 54.1863C149.223 52.9925 148.768 52.3258 148.012 52.3258C147.839 52.3216 147.666 52.3669 147.506 52.459C147.345 52.5511 147.199 52.6881 147.077 52.8618C146.955 53.0355 146.858 53.2424 146.794 53.47C146.729 53.6975 146.698 53.9412 146.702 54.1863H149.289Z" fill="#182F27"/>
<path d="M151.24 54.5583C151.227 54.0228 151.24 53.4866 151.279 52.9536C151.388 51.7521 151.591 50.9924 152.096 50.5351C152.819 49.8839 153.614 50.0855 154.683 49.7134L154.727 50.4498C153.745 50.7986 152.983 50.6436 152.419 51.1242C152.03 51.4653 151.871 51.9924 151.794 53.2017C151.936 52.8676 152.139 52.5944 152.383 52.4114C152.626 52.2284 152.9 52.1425 153.175 52.1629C154.206 52.1629 154.913 53.256 154.913 54.8916C154.934 55.2513 154.901 55.6134 154.815 55.9534C154.73 56.2934 154.593 56.6035 154.416 56.8628C154.238 57.1221 154.023 57.3245 153.786 57.4565C153.548 57.5885 153.293 57.647 153.038 57.628C151.904 57.6202 151.279 56.4885 151.24 54.5583ZM154.337 54.9071C154.337 53.6823 153.888 52.9071 153.099 52.9071C152.309 52.9071 151.827 53.6823 151.827 54.9071C151.811 55.1542 151.831 55.4033 151.887 55.6386C151.942 55.874 152.032 56.0903 152.15 56.2737C152.268 56.4572 152.412 56.6037 152.573 56.704C152.733 56.8043 152.907 56.8561 153.082 56.8561C153.258 56.8561 153.431 56.8043 153.592 56.704C153.752 56.6037 153.896 56.4572 154.014 56.2737C154.132 56.0903 154.222 55.874 154.278 55.6386C154.333 55.4033 154.354 55.1542 154.337 54.9071Z" fill="#182F27"/>
<path d="M159.424 55.7986L159.972 56.0622C159.824 56.5399 159.577 56.9433 159.264 57.2199C158.951 57.4964 158.587 57.6333 158.218 57.6126C157.051 57.6126 156.289 56.4343 156.289 54.6049C156.289 52.7754 157.034 51.5972 158.196 51.5972C159.358 51.5972 160.093 52.8142 160.049 54.8219H156.848C156.903 56.1165 157.396 56.8762 158.191 56.8762C158.45 56.8956 158.706 56.8028 158.927 56.6103C159.147 56.4177 159.321 56.1345 159.424 55.7986ZM159.424 54.1863C159.353 52.9925 158.876 52.3258 158.147 52.3258C157.974 52.3216 157.802 52.3669 157.641 52.459C157.48 52.5511 157.334 52.6881 157.212 52.8618C157.09 53.0355 156.993 53.2424 156.929 53.47C156.865 53.6975 156.833 53.9412 156.837 54.1863H159.424Z" fill="#182F27"/>
<path d="M161.222 56.8605C161.277 56.8705 161.332 56.8705 161.387 56.8605C161.809 56.8605 161.935 55.938 161.935 54.4032V51.7676H164.823V57.4652H164.275V52.5118H162.455V54.6202C162.455 56.69 162.159 57.6279 161.545 57.6279C161.434 57.6224 161.323 57.5963 161.217 57.5504L161.222 56.8605Z" fill="#182F27"/>
<path d="M169.822 51.7676V57.4652H169.274V53.0001L167.164 57.4652H166.616V51.7676H167.164V56.2404L169.274 51.7676H169.822Z" fill="#182F27"/>
</svg>
