<svg width="607" height="200" viewBox="0 0 607 200" fill="none" xmlns="http://www.w3.org/2000/svg">
<path d="M0 0.814941H788.632V86.6415H0V0.814941Z" fill="#F6E294"/>
<g opacity="0.7">
<mask id="path-2-outside-1" maskUnits="userSpaceOnUse" x="19.4648" y="20.4863" width="750" height="47" fill="black">
<rect fill="white" x="19.4648" y="20.4863" width="750" height="47"/>
<path d="M56.0443 54.0788C53.6488 59.4714 47.9527 63.2566 41.5645 63.3084H31.6629C31.3968 60.7677 30.9709 54.6492 30.9709 44.4344C30.9709 35.4122 31.3968 28.7233 31.6629 25.7678H43.5342C49.6562 25.8197 55.0328 30.59 56.6831 35.9826C57.5881 38.7826 58.1737 41.427 58.1737 44.227C58.1737 47.8048 57.109 51.7455 56.0443 54.0788ZM31.3968 24.1085L25.1151 24.1604H23.4648C23.4648 24.1604 25.1151 24.99 25.2748 25.8715C25.541 28.8271 25.9669 35.3604 25.9669 44.4344C25.9669 54.6492 25.4878 60.7677 25.2748 63.3084C25.1151 63.9825 23.4648 64.9158 23.4648 64.9158H41.5113H41.8307C53.5423 64.9158 63.5504 56.4122 63.5504 44.5381C63.5504 33.753 54.9264 24.1604 43.7472 24.1604C39.2755 24.1604 35.4958 24.1085 31.8226 24.1085H31.3968Z"/>
<path d="M97.0884 53.7677C97.0884 53.7677 94.9058 63.2566 88.6774 63.3084H77.0723C76.8594 60.8195 76.4335 55.0122 76.3803 45.4196H84.4719C88.7839 45.5751 89.955 48.2714 89.955 48.2714V40.8566C89.955 40.8566 88.7839 43.5529 84.259 43.6566H76.3803C76.4335 35.153 76.8594 28.8271 77.0723 25.9234H88.6242C94.9058 25.9234 97.0884 35.3604 97.0884 35.3604C97.0884 35.3604 97.1417 30.7456 97.4611 28.153C97.7805 26.0789 98.4193 23.4863 98.4193 23.4863C98.4193 23.4863 94.48 24.1604 88.9968 24.1604H68.8742C68.8742 24.1604 70.5777 24.99 70.7374 25.9234C70.9504 28.8271 71.3762 35.4122 71.3762 44.4344C71.3762 54.6492 70.9504 60.7677 70.7374 63.3084C70.5777 63.9825 68.8742 64.9677 68.8742 64.9677L88.9968 64.9158C94.48 64.9158 98.4193 65.5899 98.4193 65.5899C98.4193 65.5899 97.7805 63.0492 97.4611 60.9233C97.1417 58.3307 97.0884 53.7677 97.0884 53.7677Z"/>
<path d="M140.503 44.2789L134.221 44.3307C134.221 44.3307 135.978 45.4714 136.084 49.9307V59.9381C134.434 61.2862 132.251 62.0121 129.377 62.6344C128.259 62.8936 127.141 62.9973 126.023 62.9973C120.859 62.9973 116.015 60.4566 113.247 56.2566C111.969 54.3381 110.319 50.9159 109.627 47.9085C109.254 46.2492 109.148 44.6418 109.148 43.0344C109.148 41.3752 109.254 39.7159 109.52 38.0048C110.319 32.3011 115.163 27.6345 121.285 26.3382C122.35 26.1308 123.468 25.9752 124.532 25.9752C129.27 25.9752 133.742 28.153 136.617 31.7307L134.807 24.6271C134.647 25.0419 133.636 25.1974 133.423 25.1456C130.867 24.1085 128.099 23.5382 125.278 23.5382C123.787 23.5382 122.19 23.6937 120.646 24.0567C110.585 26.1826 103.718 34.79 103.718 44.4344C103.718 45.9381 103.931 47.4418 104.25 48.9455C106.486 58.6936 115.323 65.3825 125.171 65.3825C130.229 65.3825 134.221 63.8269 137.362 61.6492C137.788 61.3899 138.373 60.9751 138.693 60.7677L138.746 58.5381V49.6714C138.799 45.4196 140.503 44.2789 140.503 44.2789Z"/>
<path d="M158.292 26.8048C159.197 29.7604 160.847 35.3604 162.817 43.6566H153.395L158.292 26.8048ZM148.178 61.8566L152.916 45.4196H163.19C164.893 52.9381 165.905 58.6418 166.437 61.8566V62.1158C166.437 63.7232 163.882 64.9677 163.882 64.9677L175.114 64.9158C175.114 64.9158 173.304 64.1381 172.666 62.064C171.654 58.7455 169.844 52.627 167.981 44.5381C165.905 35.7233 164.947 30.0196 164.467 26.9604C164.467 26.8048 164.414 26.7011 164.414 26.5974C164.414 24.7308 166.597 24.1604 166.597 24.1604H154.246C154.246 24.1604 156.11 24.9382 156.11 25.8715V25.9234C156.11 26.2863 154.938 32.2493 151.265 44.5381C148.923 52.3677 147.699 55.7899 145.569 61.701C144.877 63.6195 142.109 64.9677 142.109 64.9677H150.733C150.68 64.864 148.124 64.1381 148.124 62.3751C148.124 62.2195 148.124 62.0121 148.178 61.8566Z"/>
<path d="M216.435 64.9158C216.435 64.9158 214.092 64.0862 213.933 61.9084C213.666 58.7973 213.347 53.0936 213.347 44.4344C213.347 36.2937 213.666 30.1752 213.933 26.9085C214.092 24.7308 216.435 24.1604 216.435 24.1604H205.309C205.309 24.1604 207.651 25.1974 207.757 26.9085C208.024 30.2271 208.343 36.3455 208.343 44.4344C208.343 51.7974 208.13 57.0344 207.917 60.3529C205.734 56.7751 202.594 51.227 199.027 44.0714C192.905 31.7307 189.924 24.7826 189.924 24.1604H180.98C180.98 24.1604 183.376 25.1974 183.482 26.9085C183.695 30.2271 184.068 36.3455 184.068 44.4344C184.068 53.0418 183.802 58.7973 183.482 61.9084C183.323 63.6195 181.034 64.9158 181.034 64.9158H192.16C192.16 64.9158 189.817 64.0862 189.658 61.9084C189.392 58.7973 189.072 53.0936 189.072 44.4344C189.072 37.5381 189.338 32.1456 189.551 28.6196L207.491 64.9158H216.435Z"/>
<path d="M258.748 50.3974C257.737 56.3084 253.265 61.8566 246.93 63.2047C245.919 63.4121 244.961 63.5158 244.003 63.5158C238.679 63.5158 233.622 60.5084 230.747 56.2566C229.044 53.8196 227.819 50.9159 227.127 47.8566C226.755 46.1455 226.595 44.4344 226.595 42.7752C226.595 41.1678 226.755 39.5604 227.021 38.0048C228.192 32.353 232.504 26.9085 238.626 25.6122C239.584 25.4048 240.542 25.353 241.501 25.353C246.771 25.353 251.615 28.3085 254.649 32.3011C257.045 35.827 259.121 40.7011 259.121 46.3011C259.121 47.6492 259.015 48.9974 258.748 50.3974ZM238.147 24.0048C228.085 26.1308 221.218 34.79 221.218 44.4344C221.218 45.9381 221.431 47.39 221.751 48.8937C223.933 58.6936 232.823 65.3825 242.725 65.3825C244.269 65.3825 245.759 65.1751 247.303 64.864C257.364 62.7381 264.232 54.0788 264.232 44.4344C264.232 42.9307 264.019 41.4789 263.699 39.9752C261.517 30.1752 252.627 23.4863 242.725 23.4863C241.181 23.4863 239.691 23.6937 238.147 24.0048Z"/>
<path d="M289.67 24.1604C289.67 24.1604 292.225 24.7308 292.225 26.5456C292.225 26.753 292.225 26.9604 292.172 27.1678L282.057 62.1158C281.099 59.0047 279.396 53.1973 277.373 44.59C275.509 36.6567 274.445 30.6419 273.966 27.2715C273.966 27.1678 273.912 27.0641 273.912 26.9604C273.912 25.0419 276.521 24.2123 276.521 24.2123L265.288 24.1604C265.288 24.1604 267.098 24.99 267.737 27.0641C268.749 30.3826 270.559 36.5011 272.422 44.59C274.498 53.4048 275.456 59.1603 275.935 62.2195V62.5825C275.935 64.3973 273.859 64.9677 273.859 64.9677H286.21C286.21 64.9677 284.133 64.0862 284.133 62.7899C284.133 60.4566 286.103 54.0788 288.924 44.7455C291.32 36.7085 293.396 30.6937 294.674 27.4271C295.579 25.0937 298.347 24.1604 298.347 24.1604H289.67Z"/>
<path d="M362.28 64.9158H373.459C373.459 64.9158 371.65 64.1381 371.011 62.064C369.999 58.7455 368.242 52.627 366.379 44.5381C364.303 35.7233 363.292 29.9678 362.813 26.9085V26.5456C362.813 24.7308 364.942 24.1604 364.942 24.1604H352.538C352.538 24.1604 354.402 24.9382 354.402 26.39C354.402 29.0863 352.325 35.3604 349.504 44.7455C348.972 46.5603 348.439 48.2714 347.907 49.8788C347.534 48.3233 347.108 46.4048 346.683 44.5381C344.606 35.7233 343.595 29.9678 343.116 26.9085V26.5456C343.116 24.7308 345.192 24.1604 345.192 24.1604H332.842C332.842 24.1604 334.865 25.0419 334.865 26.3382C334.865 26.4419 334.811 26.4937 334.811 26.5974C334.226 29.4493 332.735 35.2567 330.18 43.8122C327.678 52.1603 325.442 58.3307 324.271 61.5455C323.579 63.3603 320.704 64.9677 320.704 64.9677H329.381C329.381 64.9677 326.773 64.0862 326.773 62.3232C326.773 62.1677 326.826 62.0121 326.879 61.8047L336.941 26.8567C337.899 29.9159 339.656 35.7752 341.679 44.5381C344.606 57.0862 345.565 64.864 345.565 64.864C349.238 52.1603 352.964 39.5085 356.637 26.8048C357.596 29.8641 359.299 35.7233 361.375 44.5381C363.238 52.4714 364.836 58.6418 364.836 62.1158C364.836 63.7232 362.28 64.9158 362.28 64.9158Z"/>
<path d="M407.545 53.7677C407.545 53.7677 405.362 63.2566 399.134 63.3084H387.529C387.316 60.8195 386.89 55.0122 386.837 45.4196H394.928C399.24 45.5751 400.411 48.2714 400.411 48.2714V40.8566C400.411 40.8566 399.24 43.5529 394.715 43.6566H386.837C386.89 35.153 387.316 28.8271 387.529 25.9234H399.081C405.362 25.9234 407.545 35.3604 407.545 35.3604C407.545 35.3604 407.598 30.7456 407.918 28.153C408.237 26.0789 408.876 23.4863 408.876 23.4863C408.876 23.4863 404.936 24.1604 399.453 24.1604H379.331C379.331 24.1604 381.034 24.99 381.194 25.9234C381.407 28.8271 381.833 35.4122 381.833 44.4344C381.833 54.6492 381.407 60.7677 381.194 63.3084C381.034 63.9825 379.331 64.9677 379.331 64.9677L399.453 64.9158C404.936 64.9158 408.876 65.5899 408.876 65.5899C408.876 65.5899 408.237 63.0492 407.918 60.9233C407.598 58.3307 407.545 53.7677 407.545 53.7677Z"/>
<path d="M416.623 25.9234C417.102 28.5678 417.209 34.79 417.209 44.59C417.209 54.3381 416.836 60.3529 416.57 63.0492C416.463 63.9306 414.76 64.9158 414.76 64.9158H433.392C439.461 64.9158 444.411 60.0936 444.411 54.1307C444.411 48.5307 440.046 43.9677 434.403 43.4492C437.544 41.6344 439.62 38.3159 439.62 34.5307C439.62 28.8271 434.829 24.1085 428.92 24.1085L418.593 24.1604H414.707C414.707 24.1604 416.463 25.0937 416.623 25.9234ZM440.046 54.1307C440.046 58.7455 436.107 63.2047 431.369 63.2047C429.027 63.2047 425.673 62.9973 422.851 62.7899C422.585 59.9381 422.266 54.1825 422.213 45.1085C423.65 45.1085 425.407 45.0566 427.11 45.0566C428.76 45.0566 430.357 45.1085 431.582 45.1603C436.32 45.3677 440.046 49.5677 440.046 54.1307ZM427.27 25.8715C431.795 26.0271 435.415 30.1233 435.415 34.5307C435.415 38.9381 431.582 43.2418 427.057 43.2418C425.353 43.2418 423.703 43.2937 422.213 43.2937C422.266 34.8937 422.692 28.6715 422.905 25.9234C423.81 25.8715 424.768 25.8197 425.673 25.8197C426.205 25.8197 426.738 25.8197 427.27 25.8715Z"/>
<path d="M478.505 53.7677C478.505 53.7677 476.322 63.2566 470.094 63.3084H458.489C458.276 60.8195 457.85 55.0122 457.797 45.4196H465.888C470.2 45.5751 471.371 48.2714 471.371 48.2714V40.8566C471.371 40.8566 470.2 43.5529 465.675 43.6566H457.797C457.85 35.153 458.276 28.8271 458.489 25.9234H470.04C476.322 25.9234 478.505 35.3604 478.505 35.3604C478.505 35.3604 478.558 30.7456 478.877 28.153C479.197 26.0789 479.836 23.4863 479.836 23.4863C479.836 23.4863 475.896 24.1604 470.413 24.1604H450.29C450.29 24.1604 451.994 24.99 452.154 25.9234C452.367 28.8271 452.792 35.4122 452.792 44.4344C452.792 54.6492 452.367 60.7677 452.154 63.3084C451.994 63.9825 450.29 64.9677 450.29 64.9677L470.413 64.9158C475.896 64.9158 479.836 65.5899 479.836 65.5899C479.836 65.5899 479.197 63.0492 478.877 60.9233C478.558 58.3307 478.505 53.7677 478.505 53.7677Z"/>
<path d="M514.839 60.9751C514.466 58.3825 514.466 53.7677 514.466 53.7677C514.466 53.7677 512.23 63.2047 506.002 63.2047H494.45C494.184 60.2492 493.758 53.6122 493.758 44.6937C493.758 35.9826 494.077 30.2789 494.344 27.1678C494.557 25.4567 496.846 24.1604 496.846 24.1604H485.666C485.666 24.1604 488.062 24.99 488.222 27.1678C488.435 30.2789 488.754 35.9826 488.754 44.6937C488.754 53.7677 488.381 60.2492 488.115 63.2047C487.955 64.1381 486.252 64.9158 486.252 64.9158H506.321C511.858 64.9158 515.797 65.5899 515.797 65.5899C515.797 65.5899 515.105 63.0492 514.839 60.9751Z"/>
<path d="M549.604 30.1752L537.626 62.2714C538.478 62.1677 540.98 60.5603 541.193 59.9381C544.227 51.7455 553.224 27.7382 553.224 27.7382C552.851 27.7382 549.763 30.0196 549.604 30.1752Z"/>
<path d="M608.127 54.0788C605.731 59.4714 600.035 63.2566 593.647 63.3084H583.745C583.479 60.7677 583.053 54.6492 583.053 44.4344C583.053 35.4122 583.479 28.7233 583.745 25.7678H595.617C601.739 25.8197 607.115 30.59 608.766 35.9826C609.671 38.7826 610.256 41.427 610.256 44.227C610.256 47.8048 609.191 51.7455 608.127 54.0788ZM583.479 24.1085L577.198 24.1604H575.547C575.547 24.1604 577.198 24.99 577.357 25.8715C577.623 28.8271 578.049 35.3604 578.049 44.4344C578.049 54.6492 577.57 60.7677 577.357 63.3084C577.198 63.9825 575.547 64.9158 575.547 64.9158H593.594H593.913C605.625 64.9158 615.633 56.4122 615.633 44.5381C615.633 33.753 607.009 24.1604 595.83 24.1604C591.358 24.1604 587.578 24.1085 583.905 24.1085H583.479Z"/>
<path d="M649.171 53.7677C649.171 53.7677 646.988 63.2566 640.76 63.3084H629.155C628.942 60.8195 628.516 55.0122 628.463 45.4196H636.554C640.866 45.5751 642.037 48.2714 642.037 48.2714V40.8566C642.037 40.8566 640.866 43.5529 636.341 43.6566H628.463C628.516 35.153 628.942 28.8271 629.155 25.9234H640.707C646.988 25.9234 649.171 35.3604 649.171 35.3604C649.171 35.3604 649.224 30.7456 649.544 28.153C649.863 26.0789 650.502 23.4863 650.502 23.4863C650.502 23.4863 646.562 24.1604 641.079 24.1604H620.957C620.957 24.1604 622.66 24.99 622.82 25.9234C623.033 28.8271 623.459 35.4122 623.459 44.4344C623.459 54.6492 623.033 60.7677 622.82 63.3084C622.66 63.9825 620.957 64.9677 620.957 64.9677L641.079 64.9158C646.562 64.9158 650.502 65.5899 650.502 65.5899C650.502 65.5899 649.863 63.0492 649.544 60.9233C649.224 58.3307 649.171 53.7677 649.171 53.7677Z"/>
<path d="M692.585 44.2789L686.304 44.3307C686.304 44.3307 688.06 45.4714 688.167 49.9307V59.9381C686.516 61.2862 684.334 62.0121 681.459 62.6344C680.341 62.8936 679.223 62.9973 678.105 62.9973C672.942 62.9973 668.097 60.4566 665.329 56.2566C664.052 54.3381 662.401 50.9159 661.709 47.9085C661.337 46.2492 661.23 44.6418 661.23 43.0344C661.23 41.3752 661.337 39.7159 661.603 38.0048C662.401 32.3011 667.246 27.6345 673.368 26.3382C674.432 26.1308 675.55 25.9752 676.615 25.9752C681.353 25.9752 685.824 28.153 688.699 31.7307L686.889 24.6271C686.729 25.0419 685.718 25.1974 685.505 25.1456C682.95 24.1085 680.182 23.5382 677.36 23.5382C675.87 23.5382 674.273 23.6937 672.729 24.0567C662.667 26.1826 655.8 34.79 655.8 44.4344C655.8 45.9381 656.013 47.4418 656.333 48.9455C658.568 58.6936 667.405 65.3825 677.254 65.3825C682.311 65.3825 686.304 63.8269 689.444 61.6492C689.87 61.3899 690.456 60.9751 690.775 60.7677L690.828 58.5381V49.6714C690.882 45.4196 692.585 44.2789 692.585 44.2789Z"/>
<path d="M710.375 26.8048C711.28 29.7604 712.93 35.3604 714.9 43.6566H705.477L710.375 26.8048ZM700.26 61.8566L704.998 45.4196H715.272C716.976 52.9381 717.987 58.6418 718.52 61.8566V62.1158C718.52 63.7232 715.964 64.9677 715.964 64.9677L727.197 64.9158C727.197 64.9158 725.387 64.1381 724.748 62.064C723.736 58.7455 721.927 52.627 720.063 44.5381C717.987 35.7233 717.029 30.0196 716.55 26.9604C716.55 26.8048 716.497 26.7011 716.497 26.5974C716.497 24.7308 718.679 24.1604 718.679 24.1604H706.329C706.329 24.1604 708.192 24.9382 708.192 25.8715V25.9234C708.192 26.2863 707.021 32.2493 703.348 44.5381C701.005 52.3677 699.781 55.7899 697.652 61.701C696.96 63.6195 694.191 64.9677 694.191 64.9677H702.815C702.762 64.864 700.207 64.1381 700.207 62.3751C700.207 62.2195 700.207 62.0121 700.26 61.8566Z"/>
<path d="M768.517 64.9158C768.517 64.9158 766.175 64.0862 766.015 61.9084C765.749 58.7973 765.429 53.0936 765.429 44.4344C765.429 36.2937 765.749 30.1752 766.015 26.9085C766.175 24.7308 768.517 24.1604 768.517 24.1604H757.391C757.391 24.1604 759.733 25.1974 759.84 26.9085C760.106 30.2271 760.425 36.3455 760.425 44.4344C760.425 51.7974 760.212 57.0344 760 60.3529C757.817 56.7751 754.676 51.227 751.109 44.0714C744.987 31.7307 742.006 24.7826 742.006 24.1604H733.063C733.063 24.1604 735.458 25.1974 735.565 26.9085C735.778 30.2271 736.15 36.3455 736.15 44.4344C736.15 53.0418 735.884 58.7973 735.565 61.9084C735.405 63.6195 733.116 64.9158 733.116 64.9158H744.242C744.242 64.9158 741.9 64.0862 741.74 61.9084C741.474 58.7973 741.155 53.0936 741.155 44.4344C741.155 37.5381 741.421 32.1456 741.634 28.6196L759.574 64.9158H768.517Z"/>
</mask>
<path d="M56.0443 54.0788C53.6488 59.4714 47.9527 63.2566 41.5645 63.3084H31.6629C31.3968 60.7677 30.9709 54.6492 30.9709 44.4344C30.9709 35.4122 31.3968 28.7233 31.6629 25.7678H43.5342C49.6562 25.8197 55.0328 30.59 56.6831 35.9826C57.5881 38.7826 58.1737 41.427 58.1737 44.227C58.1737 47.8048 57.109 51.7455 56.0443 54.0788ZM31.3968 24.1085L25.1151 24.1604H23.4648C23.4648 24.1604 25.1151 24.99 25.2748 25.8715C25.541 28.8271 25.9669 35.3604 25.9669 44.4344C25.9669 54.6492 25.4878 60.7677 25.2748 63.3084C25.1151 63.9825 23.4648 64.9158 23.4648 64.9158H41.5113H41.8307C53.5423 64.9158 63.5504 56.4122 63.5504 44.5381C63.5504 33.753 54.9264 24.1604 43.7472 24.1604C39.2755 24.1604 35.4958 24.1085 31.8226 24.1085H31.3968Z" fill="black"/>
<path d="M97.0884 53.7677C97.0884 53.7677 94.9058 63.2566 88.6774 63.3084H77.0723C76.8594 60.8195 76.4335 55.0122 76.3803 45.4196H84.4719C88.7839 45.5751 89.955 48.2714 89.955 48.2714V40.8566C89.955 40.8566 88.7839 43.5529 84.259 43.6566H76.3803C76.4335 35.153 76.8594 28.8271 77.0723 25.9234H88.6242C94.9058 25.9234 97.0884 35.3604 97.0884 35.3604C97.0884 35.3604 97.1417 30.7456 97.4611 28.153C97.7805 26.0789 98.4193 23.4863 98.4193 23.4863C98.4193 23.4863 94.48 24.1604 88.9968 24.1604H68.8742C68.8742 24.1604 70.5777 24.99 70.7374 25.9234C70.9504 28.8271 71.3762 35.4122 71.3762 44.4344C71.3762 54.6492 70.9504 60.7677 70.7374 63.3084C70.5777 63.9825 68.8742 64.9677 68.8742 64.9677L88.9968 64.9158C94.48 64.9158 98.4193 65.5899 98.4193 65.5899C98.4193 65.5899 97.7805 63.0492 97.4611 60.9233C97.1417 58.3307 97.0884 53.7677 97.0884 53.7677Z" fill="black"/>
<path d="M140.503 44.2789L134.221 44.3307C134.221 44.3307 135.978 45.4714 136.084 49.9307V59.9381C134.434 61.2862 132.251 62.0121 129.377 62.6344C128.259 62.8936 127.141 62.9973 126.023 62.9973C120.859 62.9973 116.015 60.4566 113.247 56.2566C111.969 54.3381 110.319 50.9159 109.627 47.9085C109.254 46.2492 109.148 44.6418 109.148 43.0344C109.148 41.3752 109.254 39.7159 109.52 38.0048C110.319 32.3011 115.163 27.6345 121.285 26.3382C122.35 26.1308 123.468 25.9752 124.532 25.9752C129.27 25.9752 133.742 28.153 136.617 31.7307L134.807 24.6271C134.647 25.0419 133.636 25.1974 133.423 25.1456C130.867 24.1085 128.099 23.5382 125.278 23.5382C123.787 23.5382 122.19 23.6937 120.646 24.0567C110.585 26.1826 103.718 34.79 103.718 44.4344C103.718 45.9381 103.931 47.4418 104.25 48.9455C106.486 58.6936 115.323 65.3825 125.171 65.3825C130.229 65.3825 134.221 63.8269 137.362 61.6492C137.788 61.3899 138.373 60.9751 138.693 60.7677L138.746 58.5381V49.6714C138.799 45.4196 140.503 44.2789 140.503 44.2789Z" fill="black"/>
<path d="M158.292 26.8048C159.197 29.7604 160.847 35.3604 162.817 43.6566H153.395L158.292 26.8048ZM148.178 61.8566L152.916 45.4196H163.19C164.893 52.9381 165.905 58.6418 166.437 61.8566V62.1158C166.437 63.7232 163.882 64.9677 163.882 64.9677L175.114 64.9158C175.114 64.9158 173.304 64.1381 172.666 62.064C171.654 58.7455 169.844 52.627 167.981 44.5381C165.905 35.7233 164.947 30.0196 164.467 26.9604C164.467 26.8048 164.414 26.7011 164.414 26.5974C164.414 24.7308 166.597 24.1604 166.597 24.1604H154.246C154.246 24.1604 156.11 24.9382 156.11 25.8715V25.9234C156.11 26.2863 154.938 32.2493 151.265 44.5381C148.923 52.3677 147.699 55.7899 145.569 61.701C144.877 63.6195 142.109 64.9677 142.109 64.9677H150.733C150.68 64.864 148.124 64.1381 148.124 62.3751C148.124 62.2195 148.124 62.0121 148.178 61.8566Z" fill="black"/>
<path d="M216.435 64.9158C216.435 64.9158 214.092 64.0862 213.933 61.9084C213.666 58.7973 213.347 53.0936 213.347 44.4344C213.347 36.2937 213.666 30.1752 213.933 26.9085C214.092 24.7308 216.435 24.1604 216.435 24.1604H205.309C205.309 24.1604 207.651 25.1974 207.757 26.9085C208.024 30.2271 208.343 36.3455 208.343 44.4344C208.343 51.7974 208.13 57.0344 207.917 60.3529C205.734 56.7751 202.594 51.227 199.027 44.0714C192.905 31.7307 189.924 24.7826 189.924 24.1604H180.98C180.98 24.1604 183.376 25.1974 183.482 26.9085C183.695 30.2271 184.068 36.3455 184.068 44.4344C184.068 53.0418 183.802 58.7973 183.482 61.9084C183.323 63.6195 181.034 64.9158 181.034 64.9158H192.16C192.16 64.9158 189.817 64.0862 189.658 61.9084C189.392 58.7973 189.072 53.0936 189.072 44.4344C189.072 37.5381 189.338 32.1456 189.551 28.6196L207.491 64.9158H216.435Z" fill="black"/>
<path d="M258.748 50.3974C257.737 56.3084 253.265 61.8566 246.93 63.2047C245.919 63.4121 244.961 63.5158 244.003 63.5158C238.679 63.5158 233.622 60.5084 230.747 56.2566C229.044 53.8196 227.819 50.9159 227.127 47.8566C226.755 46.1455 226.595 44.4344 226.595 42.7752C226.595 41.1678 226.755 39.5604 227.021 38.0048C228.192 32.353 232.504 26.9085 238.626 25.6122C239.584 25.4048 240.542 25.353 241.501 25.353C246.771 25.353 251.615 28.3085 254.649 32.3011C257.045 35.827 259.121 40.7011 259.121 46.3011C259.121 47.6492 259.015 48.9974 258.748 50.3974ZM238.147 24.0048C228.085 26.1308 221.218 34.79 221.218 44.4344C221.218 45.9381 221.431 47.39 221.751 48.8937C223.933 58.6936 232.823 65.3825 242.725 65.3825C244.269 65.3825 245.759 65.1751 247.303 64.864C257.364 62.7381 264.232 54.0788 264.232 44.4344C264.232 42.9307 264.019 41.4789 263.699 39.9752C261.517 30.1752 252.627 23.4863 242.725 23.4863C241.181 23.4863 239.691 23.6937 238.147 24.0048Z" fill="black"/>
<path d="M289.67 24.1604C289.67 24.1604 292.225 24.7308 292.225 26.5456C292.225 26.753 292.225 26.9604 292.172 27.1678L282.057 62.1158C281.099 59.0047 279.396 53.1973 277.373 44.59C275.509 36.6567 274.445 30.6419 273.966 27.2715C273.966 27.1678 273.912 27.0641 273.912 26.9604C273.912 25.0419 276.521 24.2123 276.521 24.2123L265.288 24.1604C265.288 24.1604 267.098 24.99 267.737 27.0641C268.749 30.3826 270.559 36.5011 272.422 44.59C274.498 53.4048 275.456 59.1603 275.935 62.2195V62.5825C275.935 64.3973 273.859 64.9677 273.859 64.9677H286.21C286.21 64.9677 284.133 64.0862 284.133 62.7899C284.133 60.4566 286.103 54.0788 288.924 44.7455C291.32 36.7085 293.396 30.6937 294.674 27.4271C295.579 25.0937 298.347 24.1604 298.347 24.1604H289.67Z" fill="black"/>
<path d="M362.28 64.9158H373.459C373.459 64.9158 371.65 64.1381 371.011 62.064C369.999 58.7455 368.242 52.627 366.379 44.5381C364.303 35.7233 363.292 29.9678 362.813 26.9085V26.5456C362.813 24.7308 364.942 24.1604 364.942 24.1604H352.538C352.538 24.1604 354.402 24.9382 354.402 26.39C354.402 29.0863 352.325 35.3604 349.504 44.7455C348.972 46.5603 348.439 48.2714 347.907 49.8788C347.534 48.3233 347.108 46.4048 346.683 44.5381C344.606 35.7233 343.595 29.9678 343.116 26.9085V26.5456C343.116 24.7308 345.192 24.1604 345.192 24.1604H332.842C332.842 24.1604 334.865 25.0419 334.865 26.3382C334.865 26.4419 334.811 26.4937 334.811 26.5974C334.226 29.4493 332.735 35.2567 330.18 43.8122C327.678 52.1603 325.442 58.3307 324.271 61.5455C323.579 63.3603 320.704 64.9677 320.704 64.9677H329.381C329.381 64.9677 326.773 64.0862 326.773 62.3232C326.773 62.1677 326.826 62.0121 326.879 61.8047L336.941 26.8567C337.899 29.9159 339.656 35.7752 341.679 44.5381C344.606 57.0862 345.565 64.864 345.565 64.864C349.238 52.1603 352.964 39.5085 356.637 26.8048C357.596 29.8641 359.299 35.7233 361.375 44.5381C363.238 52.4714 364.836 58.6418 364.836 62.1158C364.836 63.7232 362.28 64.9158 362.28 64.9158Z" fill="black"/>
<path d="M407.545 53.7677C407.545 53.7677 405.362 63.2566 399.134 63.3084H387.529C387.316 60.8195 386.89 55.0122 386.837 45.4196H394.928C399.24 45.5751 400.411 48.2714 400.411 48.2714V40.8566C400.411 40.8566 399.24 43.5529 394.715 43.6566H386.837C386.89 35.153 387.316 28.8271 387.529 25.9234H399.081C405.362 25.9234 407.545 35.3604 407.545 35.3604C407.545 35.3604 407.598 30.7456 407.918 28.153C408.237 26.0789 408.876 23.4863 408.876 23.4863C408.876 23.4863 404.936 24.1604 399.453 24.1604H379.331C379.331 24.1604 381.034 24.99 381.194 25.9234C381.407 28.8271 381.833 35.4122 381.833 44.4344C381.833 54.6492 381.407 60.7677 381.194 63.3084C381.034 63.9825 379.331 64.9677 379.331 64.9677L399.453 64.9158C404.936 64.9158 408.876 65.5899 408.876 65.5899C408.876 65.5899 408.237 63.0492 407.918 60.9233C407.598 58.3307 407.545 53.7677 407.545 53.7677Z" fill="black"/>
<path d="M416.623 25.9234C417.102 28.5678 417.209 34.79 417.209 44.59C417.209 54.3381 416.836 60.3529 416.57 63.0492C416.463 63.9306 414.76 64.9158 414.76 64.9158H433.392C439.461 64.9158 444.411 60.0936 444.411 54.1307C444.411 48.5307 440.046 43.9677 434.403 43.4492C437.544 41.6344 439.62 38.3159 439.62 34.5307C439.62 28.8271 434.829 24.1085 428.92 24.1085L418.593 24.1604H414.707C414.707 24.1604 416.463 25.0937 416.623 25.9234ZM440.046 54.1307C440.046 58.7455 436.107 63.2047 431.369 63.2047C429.027 63.2047 425.673 62.9973 422.851 62.7899C422.585 59.9381 422.266 54.1825 422.213 45.1085C423.65 45.1085 425.407 45.0566 427.11 45.0566C428.76 45.0566 430.357 45.1085 431.582 45.1603C436.32 45.3677 440.046 49.5677 440.046 54.1307ZM427.27 25.8715C431.795 26.0271 435.415 30.1233 435.415 34.5307C435.415 38.9381 431.582 43.2418 427.057 43.2418C425.353 43.2418 423.703 43.2937 422.213 43.2937C422.266 34.8937 422.692 28.6715 422.905 25.9234C423.81 25.8715 424.768 25.8197 425.673 25.8197C426.205 25.8197 426.738 25.8197 427.27 25.8715Z" fill="black"/>
<path d="M478.505 53.7677C478.505 53.7677 476.322 63.2566 470.094 63.3084H458.489C458.276 60.8195 457.85 55.0122 457.797 45.4196H465.888C470.2 45.5751 471.371 48.2714 471.371 48.2714V40.8566C471.371 40.8566 470.2 43.5529 465.675 43.6566H457.797C457.85 35.153 458.276 28.8271 458.489 25.9234H470.04C476.322 25.9234 478.505 35.3604 478.505 35.3604C478.505 35.3604 478.558 30.7456 478.877 28.153C479.197 26.0789 479.836 23.4863 479.836 23.4863C479.836 23.4863 475.896 24.1604 470.413 24.1604H450.29C450.29 24.1604 451.994 24.99 452.154 25.9234C452.367 28.8271 452.792 35.4122 452.792 44.4344C452.792 54.6492 452.367 60.7677 452.154 63.3084C451.994 63.9825 450.29 64.9677 450.29 64.9677L470.413 64.9158C475.896 64.9158 479.836 65.5899 479.836 65.5899C479.836 65.5899 479.197 63.0492 478.877 60.9233C478.558 58.3307 478.505 53.7677 478.505 53.7677Z" fill="black"/>
<path d="M514.839 60.9751C514.466 58.3825 514.466 53.7677 514.466 53.7677C514.466 53.7677 512.23 63.2047 506.002 63.2047H494.45C494.184 60.2492 493.758 53.6122 493.758 44.6937C493.758 35.9826 494.077 30.2789 494.344 27.1678C494.557 25.4567 496.846 24.1604 496.846 24.1604H485.666C485.666 24.1604 488.062 24.99 488.222 27.1678C488.435 30.2789 488.754 35.9826 488.754 44.6937C488.754 53.7677 488.381 60.2492 488.115 63.2047C487.955 64.1381 486.252 64.9158 486.252 64.9158H506.321C511.858 64.9158 515.797 65.5899 515.797 65.5899C515.797 65.5899 515.105 63.0492 514.839 60.9751Z" fill="black"/>
<path d="M549.604 30.1752L537.626 62.2714C538.478 62.1677 540.98 60.5603 541.193 59.9381C544.227 51.7455 553.224 27.7382 553.224 27.7382C552.851 27.7382 549.763 30.0196 549.604 30.1752Z" fill="black"/>
<path d="M608.127 54.0788C605.731 59.4714 600.035 63.2566 593.647 63.3084H583.745C583.479 60.7677 583.053 54.6492 583.053 44.4344C583.053 35.4122 583.479 28.7233 583.745 25.7678H595.617C601.739 25.8197 607.115 30.59 608.766 35.9826C609.671 38.7826 610.256 41.427 610.256 44.227C610.256 47.8048 609.191 51.7455 608.127 54.0788ZM583.479 24.1085L577.198 24.1604H575.547C575.547 24.1604 577.198 24.99 577.357 25.8715C577.623 28.8271 578.049 35.3604 578.049 44.4344C578.049 54.6492 577.57 60.7677 577.357 63.3084C577.198 63.9825 575.547 64.9158 575.547 64.9158H593.594H593.913C605.625 64.9158 615.633 56.4122 615.633 44.5381C615.633 33.753 607.009 24.1604 595.83 24.1604C591.358 24.1604 587.578 24.1085 583.905 24.1085H583.479Z" fill="black"/>
<path d="M649.171 53.7677C649.171 53.7677 646.988 63.2566 640.76 63.3084H629.155C628.942 60.8195 628.516 55.0122 628.463 45.4196H636.554C640.866 45.5751 642.037 48.2714 642.037 48.2714V40.8566C642.037 40.8566 640.866 43.5529 636.341 43.6566H628.463C628.516 35.153 628.942 28.8271 629.155 25.9234H640.707C646.988 25.9234 649.171 35.3604 649.171 35.3604C649.171 35.3604 649.224 30.7456 649.544 28.153C649.863 26.0789 650.502 23.4863 650.502 23.4863C650.502 23.4863 646.562 24.1604 641.079 24.1604H620.957C620.957 24.1604 622.66 24.99 622.82 25.9234C623.033 28.8271 623.459 35.4122 623.459 44.4344C623.459 54.6492 623.033 60.7677 622.82 63.3084C622.66 63.9825 620.957 64.9677 620.957 64.9677L641.079 64.9158C646.562 64.9158 650.502 65.5899 650.502 65.5899C650.502 65.5899 649.863 63.0492 649.544 60.9233C649.224 58.3307 649.171 53.7677 649.171 53.7677Z" fill="black"/>
<path d="M692.585 44.2789L686.304 44.3307C686.304 44.3307 688.06 45.4714 688.167 49.9307V59.9381C686.516 61.2862 684.334 62.0121 681.459 62.6344C680.341 62.8936 679.223 62.9973 678.105 62.9973C672.942 62.9973 668.097 60.4566 665.329 56.2566C664.052 54.3381 662.401 50.9159 661.709 47.9085C661.337 46.2492 661.23 44.6418 661.23 43.0344C661.23 41.3752 661.337 39.7159 661.603 38.0048C662.401 32.3011 667.246 27.6345 673.368 26.3382C674.432 26.1308 675.55 25.9752 676.615 25.9752C681.353 25.9752 685.824 28.153 688.699 31.7307L686.889 24.6271C686.729 25.0419 685.718 25.1974 685.505 25.1456C682.95 24.1085 680.182 23.5382 677.36 23.5382C675.87 23.5382 674.273 23.6937 672.729 24.0567C662.667 26.1826 655.8 34.79 655.8 44.4344C655.8 45.9381 656.013 47.4418 656.333 48.9455C658.568 58.6936 667.405 65.3825 677.254 65.3825C682.311 65.3825 686.304 63.8269 689.444 61.6492C689.87 61.3899 690.456 60.9751 690.775 60.7677L690.828 58.5381V49.6714C690.882 45.4196 692.585 44.2789 692.585 44.2789Z" fill="black"/>
<path d="M710.375 26.8048C711.28 29.7604 712.93 35.3604 714.9 43.6566H705.477L710.375 26.8048ZM700.26 61.8566L704.998 45.4196H715.272C716.976 52.9381 717.987 58.6418 718.52 61.8566V62.1158C718.52 63.7232 715.964 64.9677 715.964 64.9677L727.197 64.9158C727.197 64.9158 725.387 64.1381 724.748 62.064C723.736 58.7455 721.927 52.627 720.063 44.5381C717.987 35.7233 717.029 30.0196 716.55 26.9604C716.55 26.8048 716.497 26.7011 716.497 26.5974C716.497 24.7308 718.679 24.1604 718.679 24.1604H706.329C706.329 24.1604 708.192 24.9382 708.192 25.8715V25.9234C708.192 26.2863 707.021 32.2493 703.348 44.5381C701.005 52.3677 699.781 55.7899 697.652 61.701C696.96 63.6195 694.191 64.9677 694.191 64.9677H702.815C702.762 64.864 700.207 64.1381 700.207 62.3751C700.207 62.2195 700.207 62.0121 700.26 61.8566Z" fill="black"/>
<path d="M768.517 64.9158C768.517 64.9158 766.175 64.0862 766.015 61.9084C765.749 58.7973 765.429 53.0936 765.429 44.4344C765.429 36.2937 765.749 30.1752 766.015 26.9085C766.175 24.7308 768.517 24.1604 768.517 24.1604H757.391C757.391 24.1604 759.733 25.1974 759.84 26.9085C760.106 30.2271 760.425 36.3455 760.425 44.4344C760.425 51.7974 760.212 57.0344 760 60.3529C757.817 56.7751 754.676 51.227 751.109 44.0714C744.987 31.7307 742.006 24.7826 742.006 24.1604H733.063C733.063 24.1604 735.458 25.1974 735.565 26.9085C735.778 30.2271 736.15 36.3455 736.15 44.4344C736.15 53.0418 735.884 58.7973 735.565 61.9084C735.405 63.6195 733.116 64.9158 733.116 64.9158H744.242C744.242 64.9158 741.9 64.0862 741.74 61.9084C741.474 58.7973 741.155 53.0936 741.155 44.4344C741.155 37.5381 741.421 32.1456 741.634 28.6196L759.574 64.9158H768.517Z" fill="black"/>
<path d="M56.0443 54.0788C53.6488 59.4714 47.9527 63.2566 41.5645 63.3084H31.6629C31.3968 60.7677 30.9709 54.6492 30.9709 44.4344C30.9709 35.4122 31.3968 28.7233 31.6629 25.7678H43.5342C49.6562 25.8197 55.0328 30.59 56.6831 35.9826C57.5881 38.7826 58.1737 41.427 58.1737 44.227C58.1737 47.8048 57.109 51.7455 56.0443 54.0788ZM31.3968 24.1085L25.1151 24.1604H23.4648C23.4648 24.1604 25.1151 24.99 25.2748 25.8715C25.541 28.8271 25.9669 35.3604 25.9669 44.4344C25.9669 54.6492 25.4878 60.7677 25.2748 63.3084C25.1151 63.9825 23.4648 64.9158 23.4648 64.9158H41.5113H41.8307C53.5423 64.9158 63.5504 56.4122 63.5504 44.5381C63.5504 33.753 54.9264 24.1604 43.7472 24.1604C39.2755 24.1604 35.4958 24.1085 31.8226 24.1085H31.3968Z" stroke="black" stroke-width="2" mask="url(#path-2-outside-1)"/>
<path d="M97.0884 53.7677C97.0884 53.7677 94.9058 63.2566 88.6774 63.3084H77.0723C76.8594 60.8195 76.4335 55.0122 76.3803 45.4196H84.4719C88.7839 45.5751 89.955 48.2714 89.955 48.2714V40.8566C89.955 40.8566 88.7839 43.5529 84.259 43.6566H76.3803C76.4335 35.153 76.8594 28.8271 77.0723 25.9234H88.6242C94.9058 25.9234 97.0884 35.3604 97.0884 35.3604C97.0884 35.3604 97.1417 30.7456 97.4611 28.153C97.7805 26.0789 98.4193 23.4863 98.4193 23.4863C98.4193 23.4863 94.48 24.1604 88.9968 24.1604H68.8742C68.8742 24.1604 70.5777 24.99 70.7374 25.9234C70.9504 28.8271 71.3762 35.4122 71.3762 44.4344C71.3762 54.6492 70.9504 60.7677 70.7374 63.3084C70.5777 63.9825 68.8742 64.9677 68.8742 64.9677L88.9968 64.9158C94.48 64.9158 98.4193 65.5899 98.4193 65.5899C98.4193 65.5899 97.7805 63.0492 97.4611 60.9233C97.1417 58.3307 97.0884 53.7677 97.0884 53.7677Z" stroke="black" stroke-width="2" mask="url(#path-2-outside-1)"/>
<path d="M140.503 44.2789L134.221 44.3307C134.221 44.3307 135.978 45.4714 136.084 49.9307V59.9381C134.434 61.2862 132.251 62.0121 129.377 62.6344C128.259 62.8936 127.141 62.9973 126.023 62.9973C120.859 62.9973 116.015 60.4566 113.247 56.2566C111.969 54.3381 110.319 50.9159 109.627 47.9085C109.254 46.2492 109.148 44.6418 109.148 43.0344C109.148 41.3752 109.254 39.7159 109.52 38.0048C110.319 32.3011 115.163 27.6345 121.285 26.3382C122.35 26.1308 123.468 25.9752 124.532 25.9752C129.27 25.9752 133.742 28.153 136.617 31.7307L134.807 24.6271C134.647 25.0419 133.636 25.1974 133.423 25.1456C130.867 24.1085 128.099 23.5382 125.278 23.5382C123.787 23.5382 122.19 23.6937 120.646 24.0567C110.585 26.1826 103.718 34.79 103.718 44.4344C103.718 45.9381 103.931 47.4418 104.25 48.9455C106.486 58.6936 115.323 65.3825 125.171 65.3825C130.229 65.3825 134.221 63.8269 137.362 61.6492C137.788 61.3899 138.373 60.9751 138.693 60.7677L138.746 58.5381V49.6714C138.799 45.4196 140.503 44.2789 140.503 44.2789Z" stroke="black" stroke-width="2" mask="url(#path-2-outside-1)"/>
<path d="M158.292 26.8048C159.197 29.7604 160.847 35.3604 162.817 43.6566H153.395L158.292 26.8048ZM148.178 61.8566L152.916 45.4196H163.19C164.893 52.9381 165.905 58.6418 166.437 61.8566V62.1158C166.437 63.7232 163.882 64.9677 163.882 64.9677L175.114 64.9158C175.114 64.9158 173.304 64.1381 172.666 62.064C171.654 58.7455 169.844 52.627 167.981 44.5381C165.905 35.7233 164.947 30.0196 164.467 26.9604C164.467 26.8048 164.414 26.7011 164.414 26.5974C164.414 24.7308 166.597 24.1604 166.597 24.1604H154.246C154.246 24.1604 156.11 24.9382 156.11 25.8715V25.9234C156.11 26.2863 154.938 32.2493 151.265 44.5381C148.923 52.3677 147.699 55.7899 145.569 61.701C144.877 63.6195 142.109 64.9677 142.109 64.9677H150.733C150.68 64.864 148.124 64.1381 148.124 62.3751C148.124 62.2195 148.124 62.0121 148.178 61.8566Z" stroke="black" stroke-width="2" mask="url(#path-2-outside-1)"/>
<path d="M216.435 64.9158C216.435 64.9158 214.092 64.0862 213.933 61.9084C213.666 58.7973 213.347 53.0936 213.347 44.4344C213.347 36.2937 213.666 30.1752 213.933 26.9085C214.092 24.7308 216.435 24.1604 216.435 24.1604H205.309C205.309 24.1604 207.651 25.1974 207.757 26.9085C208.024 30.2271 208.343 36.3455 208.343 44.4344C208.343 51.7974 208.13 57.0344 207.917 60.3529C205.734 56.7751 202.594 51.227 199.027 44.0714C192.905 31.7307 189.924 24.7826 189.924 24.1604H180.98C180.98 24.1604 183.376 25.1974 183.482 26.9085C183.695 30.2271 184.068 36.3455 184.068 44.4344C184.068 53.0418 183.802 58.7973 183.482 61.9084C183.323 63.6195 181.034 64.9158 181.034 64.9158H192.16C192.16 64.9158 189.817 64.0862 189.658 61.9084C189.392 58.7973 189.072 53.0936 189.072 44.4344C189.072 37.5381 189.338 32.1456 189.551 28.6196L207.491 64.9158H216.435Z" stroke="black" stroke-width="2" mask="url(#path-2-outside-1)"/>
<path d="M258.748 50.3974C257.737 56.3084 253.265 61.8566 246.93 63.2047C245.919 63.4121 244.961 63.5158 244.003 63.5158C238.679 63.5158 233.622 60.5084 230.747 56.2566C229.044 53.8196 227.819 50.9159 227.127 47.8566C226.755 46.1455 226.595 44.4344 226.595 42.7752C226.595 41.1678 226.755 39.5604 227.021 38.0048C228.192 32.353 232.504 26.9085 238.626 25.6122C239.584 25.4048 240.542 25.353 241.501 25.353C246.771 25.353 251.615 28.3085 254.649 32.3011C257.045 35.827 259.121 40.7011 259.121 46.3011C259.121 47.6492 259.015 48.9974 258.748 50.3974ZM238.147 24.0048C228.085 26.1308 221.218 34.79 221.218 44.4344C221.218 45.9381 221.431 47.39 221.751 48.8937C223.933 58.6936 232.823 65.3825 242.725 65.3825C244.269 65.3825 245.759 65.1751 247.303 64.864C257.364 62.7381 264.232 54.0788 264.232 44.4344C264.232 42.9307 264.019 41.4789 263.699 39.9752C261.517 30.1752 252.627 23.4863 242.725 23.4863C241.181 23.4863 239.691 23.6937 238.147 24.0048Z" stroke="black" stroke-width="2" mask="url(#path-2-outside-1)"/>
<path d="M289.67 24.1604C289.67 24.1604 292.225 24.7308 292.225 26.5456C292.225 26.753 292.225 26.9604 292.172 27.1678L282.057 62.1158C281.099 59.0047 279.396 53.1973 277.373 44.59C275.509 36.6567 274.445 30.6419 273.966 27.2715C273.966 27.1678 273.912 27.0641 273.912 26.9604C273.912 25.0419 276.521 24.2123 276.521 24.2123L265.288 24.1604C265.288 24.1604 267.098 24.99 267.737 27.0641C268.749 30.3826 270.559 36.5011 272.422 44.59C274.498 53.4048 275.456 59.1603 275.935 62.2195V62.5825C275.935 64.3973 273.859 64.9677 273.859 64.9677H286.21C286.21 64.9677 284.133 64.0862 284.133 62.7899C284.133 60.4566 286.103 54.0788 288.924 44.7455C291.32 36.7085 293.396 30.6937 294.674 27.4271C295.579 25.0937 298.347 24.1604 298.347 24.1604H289.67Z" stroke="black" stroke-width="2" mask="url(#path-2-outside-1)"/>
<path d="M362.28 64.9158H373.459C373.459 64.9158 371.65 64.1381 371.011 62.064C369.999 58.7455 368.242 52.627 366.379 44.5381C364.303 35.7233 363.292 29.9678 362.813 26.9085V26.5456C362.813 24.7308 364.942 24.1604 364.942 24.1604H352.538C352.538 24.1604 354.402 24.9382 354.402 26.39C354.402 29.0863 352.325 35.3604 349.504 44.7455C348.972 46.5603 348.439 48.2714 347.907 49.8788C347.534 48.3233 347.108 46.4048 346.683 44.5381C344.606 35.7233 343.595 29.9678 343.116 26.9085V26.5456C343.116 24.7308 345.192 24.1604 345.192 24.1604H332.842C332.842 24.1604 334.865 25.0419 334.865 26.3382C334.865 26.4419 334.811 26.4937 334.811 26.5974C334.226 29.4493 332.735 35.2567 330.18 43.8122C327.678 52.1603 325.442 58.3307 324.271 61.5455C323.579 63.3603 320.704 64.9677 320.704 64.9677H329.381C329.381 64.9677 326.773 64.0862 326.773 62.3232C326.773 62.1677 326.826 62.0121 326.879 61.8047L336.941 26.8567C337.899 29.9159 339.656 35.7752 341.679 44.5381C344.606 57.0862 345.565 64.864 345.565 64.864C349.238 52.1603 352.964 39.5085 356.637 26.8048C357.596 29.8641 359.299 35.7233 361.375 44.5381C363.238 52.4714 364.836 58.6418 364.836 62.1158C364.836 63.7232 362.28 64.9158 362.28 64.9158Z" stroke="black" stroke-width="2" mask="url(#path-2-outside-1)"/>
<path d="M407.545 53.7677C407.545 53.7677 405.362 63.2566 399.134 63.3084H387.529C387.316 60.8195 386.89 55.0122 386.837 45.4196H394.928C399.24 45.5751 400.411 48.2714 400.411 48.2714V40.8566C400.411 40.8566 399.24 43.5529 394.715 43.6566H386.837C386.89 35.153 387.316 28.8271 387.529 25.9234H399.081C405.362 25.9234 407.545 35.3604 407.545 35.3604C407.545 35.3604 407.598 30.7456 407.918 28.153C408.237 26.0789 408.876 23.4863 408.876 23.4863C408.876 23.4863 404.936 24.1604 399.453 24.1604H379.331C379.331 24.1604 381.034 24.99 381.194 25.9234C381.407 28.8271 381.833 35.4122 381.833 44.4344C381.833 54.6492 381.407 60.7677 381.194 63.3084C381.034 63.9825 379.331 64.9677 379.331 64.9677L399.453 64.9158C404.936 64.9158 408.876 65.5899 408.876 65.5899C408.876 65.5899 408.237 63.0492 407.918 60.9233C407.598 58.3307 407.545 53.7677 407.545 53.7677Z" stroke="black" stroke-width="2" mask="url(#path-2-outside-1)"/>
<path d="M416.623 25.9234C417.102 28.5678 417.209 34.79 417.209 44.59C417.209 54.3381 416.836 60.3529 416.57 63.0492C416.463 63.9306 414.76 64.9158 414.76 64.9158H433.392C439.461 64.9158 444.411 60.0936 444.411 54.1307C444.411 48.5307 440.046 43.9677 434.403 43.4492C437.544 41.6344 439.62 38.3159 439.62 34.5307C439.62 28.8271 434.829 24.1085 428.92 24.1085L418.593 24.1604H414.707C414.707 24.1604 416.463 25.0937 416.623 25.9234ZM440.046 54.1307C440.046 58.7455 436.107 63.2047 431.369 63.2047C429.027 63.2047 425.673 62.9973 422.851 62.7899C422.585 59.9381 422.266 54.1825 422.213 45.1085C423.65 45.1085 425.407 45.0566 427.11 45.0566C428.76 45.0566 430.357 45.1085 431.582 45.1603C436.32 45.3677 440.046 49.5677 440.046 54.1307ZM427.27 25.8715C431.795 26.0271 435.415 30.1233 435.415 34.5307C435.415 38.9381 431.582 43.2418 427.057 43.2418C425.353 43.2418 423.703 43.2937 422.213 43.2937C422.266 34.8937 422.692 28.6715 422.905 25.9234C423.81 25.8715 424.768 25.8197 425.673 25.8197C426.205 25.8197 426.738 25.8197 427.27 25.8715Z" stroke="black" stroke-width="2" mask="url(#path-2-outside-1)"/>
<path d="M478.505 53.7677C478.505 53.7677 476.322 63.2566 470.094 63.3084H458.489C458.276 60.8195 457.85 55.0122 457.797 45.4196H465.888C470.2 45.5751 471.371 48.2714 471.371 48.2714V40.8566C471.371 40.8566 470.2 43.5529 465.675 43.6566H457.797C457.85 35.153 458.276 28.8271 458.489 25.9234H470.04C476.322 25.9234 478.505 35.3604 478.505 35.3604C478.505 35.3604 478.558 30.7456 478.877 28.153C479.197 26.0789 479.836 23.4863 479.836 23.4863C479.836 23.4863 475.896 24.1604 470.413 24.1604H450.29C450.29 24.1604 451.994 24.99 452.154 25.9234C452.367 28.8271 452.792 35.4122 452.792 44.4344C452.792 54.6492 452.367 60.7677 452.154 63.3084C451.994 63.9825 450.29 64.9677 450.29 64.9677L470.413 64.9158C475.896 64.9158 479.836 65.5899 479.836 65.5899C479.836 65.5899 479.197 63.0492 478.877 60.9233C478.558 58.3307 478.505 53.7677 478.505 53.7677Z" stroke="black" stroke-width="2" mask="url(#path-2-outside-1)"/>
<path d="M514.839 60.9751C514.466 58.3825 514.466 53.7677 514.466 53.7677C514.466 53.7677 512.23 63.2047 506.002 63.2047H494.45C494.184 60.2492 493.758 53.6122 493.758 44.6937C493.758 35.9826 494.077 30.2789 494.344 27.1678C494.557 25.4567 496.846 24.1604 496.846 24.1604H485.666C485.666 24.1604 488.062 24.99 488.222 27.1678C488.435 30.2789 488.754 35.9826 488.754 44.6937C488.754 53.7677 488.381 60.2492 488.115 63.2047C487.955 64.1381 486.252 64.9158 486.252 64.9158H506.321C511.858 64.9158 515.797 65.5899 515.797 65.5899C515.797 65.5899 515.105 63.0492 514.839 60.9751Z" stroke="black" stroke-width="2" mask="url(#path-2-outside-1)"/>
<path d="M549.604 30.1752L537.626 62.2714C538.478 62.1677 540.98 60.5603 541.193 59.9381C544.227 51.7455 553.224 27.7382 553.224 27.7382C552.851 27.7382 549.763 30.0196 549.604 30.1752Z" stroke="black" stroke-width="2" mask="url(#path-2-outside-1)"/>
<path d="M608.127 54.0788C605.731 59.4714 600.035 63.2566 593.647 63.3084H583.745C583.479 60.7677 583.053 54.6492 583.053 44.4344C583.053 35.4122 583.479 28.7233 583.745 25.7678H595.617C601.739 25.8197 607.115 30.59 608.766 35.9826C609.671 38.7826 610.256 41.427 610.256 44.227C610.256 47.8048 609.191 51.7455 608.127 54.0788ZM583.479 24.1085L577.198 24.1604H575.547C575.547 24.1604 577.198 24.99 577.357 25.8715C577.623 28.8271 578.049 35.3604 578.049 44.4344C578.049 54.6492 577.57 60.7677 577.357 63.3084C577.198 63.9825 575.547 64.9158 575.547 64.9158H593.594H593.913C605.625 64.9158 615.633 56.4122 615.633 44.5381C615.633 33.753 607.009 24.1604 595.83 24.1604C591.358 24.1604 587.578 24.1085 583.905 24.1085H583.479Z" stroke="black" stroke-width="2" mask="url(#path-2-outside-1)"/>
<path d="M649.171 53.7677C649.171 53.7677 646.988 63.2566 640.76 63.3084H629.155C628.942 60.8195 628.516 55.0122 628.463 45.4196H636.554C640.866 45.5751 642.037 48.2714 642.037 48.2714V40.8566C642.037 40.8566 640.866 43.5529 636.341 43.6566H628.463C628.516 35.153 628.942 28.8271 629.155 25.9234H640.707C646.988 25.9234 649.171 35.3604 649.171 35.3604C649.171 35.3604 649.224 30.7456 649.544 28.153C649.863 26.0789 650.502 23.4863 650.502 23.4863C650.502 23.4863 646.562 24.1604 641.079 24.1604H620.957C620.957 24.1604 622.66 24.99 622.82 25.9234C623.033 28.8271 623.459 35.4122 623.459 44.4344C623.459 54.6492 623.033 60.7677 622.82 63.3084C622.66 63.9825 620.957 64.9677 620.957 64.9677L641.079 64.9158C646.562 64.9158 650.502 65.5899 650.502 65.5899C650.502 65.5899 649.863 63.0492 649.544 60.9233C649.224 58.3307 649.171 53.7677 649.171 53.7677Z" stroke="black" stroke-width="2" mask="url(#path-2-outside-1)"/>
<path d="M692.585 44.2789L686.304 44.3307C686.304 44.3307 688.06 45.4714 688.167 49.9307V59.9381C686.516 61.2862 684.334 62.0121 681.459 62.6344C680.341 62.8936 679.223 62.9973 678.105 62.9973C672.942 62.9973 668.097 60.4566 665.329 56.2566C664.052 54.3381 662.401 50.9159 661.709 47.9085C661.337 46.2492 661.23 44.6418 661.23 43.0344C661.23 41.3752 661.337 39.7159 661.603 38.0048C662.401 32.3011 667.246 27.6345 673.368 26.3382C674.432 26.1308 675.55 25.9752 676.615 25.9752C681.353 25.9752 685.824 28.153 688.699 31.7307L686.889 24.6271C686.729 25.0419 685.718 25.1974 685.505 25.1456C682.95 24.1085 680.182 23.5382 677.36 23.5382C675.87 23.5382 674.273 23.6937 672.729 24.0567C662.667 26.1826 655.8 34.79 655.8 44.4344C655.8 45.9381 656.013 47.4418 656.333 48.9455C658.568 58.6936 667.405 65.3825 677.254 65.3825C682.311 65.3825 686.304 63.8269 689.444 61.6492C689.87 61.3899 690.456 60.9751 690.775 60.7677L690.828 58.5381V49.6714C690.882 45.4196 692.585 44.2789 692.585 44.2789Z" stroke="black" stroke-width="2" mask="url(#path-2-outside-1)"/>
<path d="M710.375 26.8048C711.28 29.7604 712.93 35.3604 714.9 43.6566H705.477L710.375 26.8048ZM700.26 61.8566L704.998 45.4196H715.272C716.976 52.9381 717.987 58.6418 718.52 61.8566V62.1158C718.52 63.7232 715.964 64.9677 715.964 64.9677L727.197 64.9158C727.197 64.9158 725.387 64.1381 724.748 62.064C723.736 58.7455 721.927 52.627 720.063 44.5381C717.987 35.7233 717.029 30.0196 716.55 26.9604C716.55 26.8048 716.497 26.7011 716.497 26.5974C716.497 24.7308 718.679 24.1604 718.679 24.1604H706.329C706.329 24.1604 708.192 24.9382 708.192 25.8715V25.9234C708.192 26.2863 707.021 32.2493 703.348 44.5381C701.005 52.3677 699.781 55.7899 697.652 61.701C696.96 63.6195 694.191 64.9677 694.191 64.9677H702.815C702.762 64.864 700.207 64.1381 700.207 62.3751C700.207 62.2195 700.207 62.0121 700.26 61.8566Z" stroke="black" stroke-width="2" mask="url(#path-2-outside-1)"/>
<path d="M768.517 64.9158C768.517 64.9158 766.175 64.0862 766.015 61.9084C765.749 58.7973 765.429 53.0936 765.429 44.4344C765.429 36.2937 765.749 30.1752 766.015 26.9085C766.175 24.7308 768.517 24.1604 768.517 24.1604H757.391C757.391 24.1604 759.733 25.1974 759.84 26.9085C760.106 30.2271 760.425 36.3455 760.425 44.4344C760.425 51.7974 760.212 57.0344 760 60.3529C757.817 56.7751 754.676 51.227 751.109 44.0714C744.987 31.7307 742.006 24.7826 742.006 24.1604H733.063C733.063 24.1604 735.458 25.1974 735.565 26.9085C735.778 30.2271 736.15 36.3455 736.15 44.4344C736.15 53.0418 735.884 58.7973 735.565 61.9084C735.405 63.6195 733.116 64.9158 733.116 64.9158H744.242C744.242 64.9158 741.9 64.0862 741.74 61.9084C741.474 58.7973 741.155 53.0936 741.155 44.4344C741.155 37.5381 741.421 32.1456 741.634 28.6196L759.574 64.9158H768.517Z" stroke="black" stroke-width="2" mask="url(#path-2-outside-1)"/>
</g>
<path d="M0 113.975L788.933 11.3868L800 96.4968L11.0672 199.085L0 113.975Z" fill="#182F27"/>
<path d="M743.996 71.7586C747.091 76.7942 753.283 79.806 759.688 79.0255L769.604 77.736C769.543 75.1818 769.181 69.0589 767.864 58.9294C766.7 49.9825 765.411 43.405 764.763 40.5088L752.874 42.0548C746.75 42.9035 741.98 48.3342 741.023 53.8967C740.477 56.7911 740.232 59.4898 740.593 62.2664C741.054 65.8143 742.629 69.5834 743.996 71.7586ZM764.816 38.8287L771.114 38.0621L772.767 37.8472C772.767 37.8472 771.221 38.8848 771.175 39.7797C771.289 42.7452 771.705 49.2795 772.875 58.2777C774.192 68.4072 775.461 74.4123 776.002 76.9041C776.249 77.5517 778.022 78.2623 778.022 78.2623L759.948 80.6125L759.628 80.6541C747.899 82.1793 736.78 75.05 735.248 63.2751C733.858 52.58 741.258 41.9444 752.454 40.4885C756.932 39.9062 760.711 39.3625 764.39 38.8842L764.816 38.8287Z" fill="white"/>
<path d="M702.85 76.7953C702.85 76.7953 706.259 85.9207 712.504 85.161L724.126 83.6497C724.019 81.1538 723.696 75.3395 722.513 65.82L714.409 66.8738C710.111 67.5896 709.285 70.4159 709.285 70.4159L708.329 63.063C708.329 63.063 709.85 65.5843 714.395 65.0978L722.285 64.0718C721.136 55.6461 719.893 49.4284 719.306 46.5767L707.736 48.0811C701.445 48.8992 700.476 58.5416 700.476 58.5416C700.476 58.5416 699.828 53.9723 699.174 51.4429C698.586 49.4278 697.612 46.94 697.612 46.94C697.612 46.94 701.645 47.0955 707.136 46.3814L727.289 43.7608C727.289 43.7608 725.69 44.8054 725.65 45.7517C725.811 48.6589 726.234 55.2445 727.397 64.1914C728.715 74.3209 729.93 80.3329 730.471 82.8247C730.718 83.4723 732.551 84.2274 732.551 84.2274L712.391 86.7966C706.9 87.5106 703.042 88.6921 703.042 88.6921C703.042 88.6921 703.354 86.0894 703.399 83.9396C703.385 81.3271 702.85 76.7953 702.85 76.7953Z" fill="white"/>
<path d="M658.147 73.0395L664.444 72.2729C664.444 72.2729 662.832 73.6329 663.301 78.0687L664.591 87.9926C666.418 89.1146 668.697 89.5502 671.656 89.7928C672.809 89.9043 673.942 89.8616 675.062 89.716C680.233 89.0435 684.757 85.8931 686.988 81.3677C688.02 79.2988 689.232 75.6903 689.537 72.6179C689.696 70.9239 689.596 69.3161 689.388 67.7221C689.175 66.0767 688.854 64.4452 688.367 62.783C686.831 57.2309 681.378 53.2341 675.08 52.7459C673.987 52.6789 672.847 52.6702 671.781 52.8089C667.036 53.4259 662.838 56.1678 660.421 60.0901L661.317 52.81C661.531 53.2005 662.564 53.2231 662.77 53.1439C665.196 51.7828 667.894 50.8567 670.72 50.4892C672.213 50.2951 673.832 50.2414 675.425 50.4003C685.776 51.1982 693.763 58.8394 695.007 68.4033C695.201 69.8944 695.182 71.4133 695.056 72.946C694.073 82.9039 686.086 90.6878 676.223 91.9703C671.158 92.6289 666.958 91.6063 663.532 89.8558C663.072 89.6541 662.432 89.3191 662.086 89.155L661.745 86.9509L660.601 78.1583C660 73.9489 658.147 73.0395 658.147 73.0395Z" fill="white"/>
<path d="M638.077 58.0281C637.552 61.0768 636.621 66.845 635.718 75.3285L645.155 74.1014L638.077 58.0281ZM652.727 91.47L645.862 75.7872L635.573 77.1253C634.836 84.8028 634.558 90.5906 634.44 93.8479L634.473 94.105C634.681 95.699 637.4 96.6003 637.4 96.6003L626.144 98.0117C626.144 98.0117 627.856 97.0047 628.229 94.8647C628.814 91.4422 629.838 85.1391 630.661 76.8751C631.603 67.8635 631.827 62.0827 631.913 58.9866C631.893 58.8323 631.933 58.7225 631.919 58.6197C631.678 56.7686 629.419 56.4872 629.419 56.4872L641.788 54.8789C641.788 54.8789 640.022 55.8928 640.143 56.8183L640.149 56.8697C640.196 57.2297 642.138 62.9903 647.401 74.6982C650.757 82.1574 652.424 85.3916 655.319 90.976C656.26 92.7884 659.206 93.7648 659.206 93.7648L650.569 94.8879C650.609 94.7781 653.074 93.7255 652.847 91.9773C652.827 91.823 652.8 91.6173 652.727 91.47Z" fill="white"/>
<path d="M584.762 103.393C584.762 103.393 587 102.265 586.88 100.085C586.745 96.9649 586.329 91.2672 585.213 82.6803C584.163 74.6075 583.054 68.5817 582.366 65.377C581.926 63.2382 579.506 62.9776 579.506 62.9776L590.649 61.5287C590.649 61.5287 588.437 62.8621 588.551 64.5728C588.712 67.8983 589.181 74.0073 590.224 82.0286C591.174 89.3301 592.062 94.4956 592.703 97.7587C594.428 93.9266 596.858 88.0157 599.508 80.4555C604.047 67.4205 606.137 60.1422 606.057 59.5251L615.014 58.3604C615.014 58.3604 612.748 59.7008 612.862 61.4115C613.077 64.73 613.493 70.846 614.536 78.8673C615.646 87.4028 616.654 93.0756 617.375 96.1192C617.756 97.7952 620.216 98.7825 620.216 98.7825L609.073 100.231C609.073 100.231 611.312 99.1037 611.191 96.9234C611.056 93.8036 610.641 88.1059 609.524 79.519C608.635 72.6803 607.673 67.3674 607.005 63.8986L593.718 102.228L584.762 103.393Z" fill="white"/>
<path d="M540.512 94.5061C542.287 100.236 547.481 105.156 553.999 105.667C555.039 105.741 556.012 105.719 556.972 105.595C562.303 104.901 566.98 101.261 569.311 96.6698C570.703 94.0313 571.554 90.9924 571.853 87.8685C572.006 86.1232 571.945 84.4056 571.731 82.7602C571.524 81.1662 571.156 79.593 570.689 78.0851C568.788 72.633 563.767 67.7955 557.469 67.3073C556.482 67.2264 555.516 67.2998 554.556 67.4246C549.278 68.1109 544.808 71.6727 542.284 76.0271C540.339 79.8356 538.888 84.9393 539.61 90.4925C539.784 91.8294 540.065 93.1524 540.512 94.5061ZM557.741 65.651C568.092 66.4488 576.086 74.1415 577.33 83.7054C577.524 85.1965 577.498 86.664 577.372 88.1967C576.449 98.1991 568.408 105.99 558.492 107.279C556.946 107.48 555.426 107.469 553.84 107.361C543.489 106.564 535.495 98.8709 534.251 89.307C534.058 87.8159 534.084 86.3484 534.21 84.8157C535.132 74.8133 543.173 67.0225 553.089 65.733C554.635 65.5319 556.155 65.5435 557.741 65.651Z" fill="white"/>
<path d="M506.161 72.5151C506.161 72.5151 503.675 73.4134 503.909 75.2131C503.936 75.4188 503.963 75.6245 504.043 75.8232L518.679 109.162C519.238 105.952 520.195 99.9716 521.111 91.1726C521.954 83.0629 522.244 76.9597 522.29 73.555C522.276 73.4522 522.316 73.3424 522.303 73.2396C522.055 71.3371 519.336 70.8541 519.336 70.8541L530.579 69.3399C530.579 69.3399 528.873 70.3983 528.501 72.5382C527.916 75.9608 526.892 82.2639 526.069 90.5279C525.126 99.5394 524.909 105.372 524.824 108.468L524.87 108.828C525.104 110.627 527.257 110.923 527.257 110.923L514.888 112.531C514.888 112.531 516.854 111.387 516.687 110.101C516.386 107.787 513.591 101.719 509.562 92.8313C506.126 85.1733 503.271 79.4791 501.57 76.4061C500.363 74.2101 497.47 73.6451 497.47 73.6451L506.161 72.5151Z" fill="white"/>
<path d="M438.696 122.386L427.5 123.842C427.5 123.842 429.213 122.835 429.585 120.695C430.17 117.273 431.14 110.977 431.963 102.713C432.906 93.701 433.177 87.8618 433.262 84.7657L433.215 84.4057C432.981 82.6061 430.775 82.3178 430.775 82.3178L443.197 80.7024C443.197 80.7024 441.432 81.7164 441.619 83.1561C441.967 85.8299 444.855 91.7812 448.891 100.721C449.658 102.451 450.412 104.078 451.152 105.603C451.325 104.012 451.504 102.054 451.69 100.147C452.632 91.1359 452.903 85.2967 452.988 82.2006L452.942 81.8406C452.708 80.041 450.555 79.7457 450.555 79.7457L462.924 78.1373C462.924 78.1373 461.012 79.2749 461.179 80.5604C461.192 80.6632 461.252 80.7077 461.265 80.8105C462.22 83.5623 464.461 89.1271 468.124 97.2784C471.706 105.231 474.741 111.059 476.328 114.094C477.255 115.804 480.342 117.023 480.342 117.023L471.651 118.153C471.651 118.153 474.15 116.939 473.923 115.191C473.903 115.037 473.829 114.89 473.749 114.691L459.166 81.3449C458.601 84.5034 457.597 90.5425 456.701 99.4958C455.387 112.32 455.43 120.158 455.43 120.158C450.113 108.039 444.75 95.9779 439.433 83.8586C438.868 87.0171 437.917 93.0493 436.975 102.061C436.132 110.171 435.328 116.497 435.776 119.942C435.983 121.536 438.696 122.386 438.696 122.386Z" fill="white"/>
<path d="M391.926 117.226C391.926 117.226 395.335 126.351 401.58 125.592L413.202 124.08C413.095 121.585 412.772 115.77 411.589 106.251L403.485 107.305C399.187 108.02 398.361 110.847 398.361 110.847L397.405 103.494C397.405 103.494 398.926 106.015 403.471 105.529L411.361 104.503C410.212 96.0768 408.969 89.8592 408.382 87.0075L396.812 88.5119C390.521 89.33 389.552 98.9724 389.552 98.9724C389.552 98.9724 388.904 94.4031 388.25 91.8737C387.662 89.8586 386.688 87.3708 386.688 87.3708C386.688 87.3708 390.72 87.5262 396.212 86.8122L416.365 84.1916C416.365 84.1916 414.766 85.2362 414.726 86.1825C414.887 89.0897 415.31 95.6753 416.473 104.622C417.79 114.752 419.006 120.764 419.547 123.255C419.794 123.903 421.627 124.658 421.627 124.658L401.467 127.227C395.976 127.941 392.117 129.123 392.117 129.123C392.117 129.123 392.43 126.52 392.475 124.37C392.461 121.758 391.926 117.226 391.926 117.226Z" fill="white"/>
<path d="M379.244 90.7964C379.105 93.4812 379.8 99.6653 381.064 109.383C382.321 119.05 383.47 124.966 384.084 127.605C384.304 128.466 386.138 129.221 386.138 129.221L367.477 131.647C361.4 132.438 355.82 128.3 355.051 122.387C354.329 116.834 358.112 111.741 363.696 110.492C360.317 109.101 357.81 106.08 357.322 102.327C356.586 96.6708 360.776 91.3678 366.694 90.5982L377.044 89.3047L380.936 88.7986C380.936 88.7986 379.297 89.9529 379.244 90.7964ZM359.422 121.819C360.018 126.395 364.538 130.304 369.283 129.687C371.629 129.382 374.961 128.739 377.76 128.166C377.658 125.304 377.236 119.555 376.119 110.549C374.68 110.737 372.914 110.914 371.208 111.136C369.555 111.351 367.962 111.61 366.743 111.821C362.024 112.644 358.834 117.294 359.422 121.819ZM368.574 92.1316C364.062 92.8751 360.965 97.4086 361.533 101.779C362.102 106.15 366.495 109.918 371.027 109.329C372.733 109.107 374.393 108.944 375.885 108.75C374.749 100.427 373.52 94.312 372.952 91.6145C372.039 91.6809 371.073 91.7543 370.167 91.8722C369.634 91.9415 369.1 92.0108 368.574 92.1316Z" fill="white"/>
<path d="M320.859 126.467C320.859 126.467 324.269 135.593 330.513 134.833L342.136 133.322C342.028 130.826 341.706 125.011 340.522 115.492L332.418 116.546C328.12 117.262 327.295 120.088 327.295 120.088L326.338 112.735C326.338 112.735 327.859 115.256 332.404 114.77L340.295 113.744C339.145 105.318 337.903 99.1003 337.315 96.2486L325.746 97.753C319.455 98.5711 318.486 108.214 318.486 108.214C318.486 108.214 317.837 103.644 317.183 101.115C316.596 99.0997 315.622 96.6119 315.622 96.6119C315.622 96.6119 319.654 96.7674 325.145 96.0533L345.298 93.4327C345.298 93.4327 343.699 94.4773 343.659 95.4236C343.821 98.3308 344.243 104.916 345.407 113.863C346.724 123.993 347.939 130.005 348.48 132.497C348.727 133.144 350.56 133.899 350.56 133.899L330.401 136.468C324.909 137.183 321.051 138.364 321.051 138.364C321.051 138.364 321.363 135.761 321.409 133.612C321.394 130.999 320.859 126.467 320.859 126.467Z" fill="white"/>
<path d="M285.4 138.346C285.439 135.727 284.843 131.15 284.843 131.15C284.843 131.15 288.3 140.218 294.537 139.406L306.107 137.902C305.992 134.936 305.563 128.299 304.413 119.455C303.289 110.817 302.234 105.203 301.566 102.152C301.132 100.483 298.673 99.4956 298.673 99.4956L309.869 98.0397C309.869 98.0397 307.577 99.1744 307.698 101.355C307.885 104.468 308.301 110.165 309.424 118.804C310.594 127.802 311.803 134.181 312.451 137.077C312.731 137.982 314.538 138.531 314.538 138.531L294.438 141.145C288.893 141.866 285.035 143.047 285.035 143.047C285.035 143.047 285.401 140.438 285.4 138.346Z" fill="white"/>
<path d="M246.611 112.331L262.745 142.599C261.879 142.607 259.166 141.339 258.872 140.75C254.777 133.021 242.671 110.386 242.671 110.386C243.044 110.337 246.431 112.197 246.611 112.331Z" fill="white"/>
<path d="M191.082 143.656C194.176 148.692 200.369 151.704 206.774 150.923L216.69 149.634C216.629 147.08 216.267 140.957 214.95 130.827C213.786 121.88 212.497 115.303 211.849 112.407L199.96 113.953C193.836 114.801 189.066 120.232 188.109 125.794C187.563 128.689 187.318 131.388 187.679 134.164C188.14 137.712 189.715 141.481 191.082 143.656ZM211.902 110.726L218.2 109.96L219.853 109.745C219.853 109.745 218.307 110.783 218.261 111.677C218.375 114.643 218.791 121.177 219.961 130.176C221.278 140.305 222.547 146.31 223.088 148.802C223.335 149.449 225.108 150.16 225.108 150.16L207.034 152.51L206.714 152.552C194.985 154.077 183.865 146.948 182.334 135.173C180.944 124.478 188.344 113.842 199.54 112.386C204.018 111.804 207.797 111.26 211.475 110.782L211.902 110.726Z" fill="white"/>
<path d="M149.936 148.693C149.936 148.693 153.345 157.818 159.59 157.059L171.212 155.547C171.105 153.052 170.782 147.237 169.599 137.718L161.495 138.772C157.197 139.487 156.371 142.314 156.371 142.314L155.415 134.961C155.415 134.961 156.936 137.482 161.481 136.996L169.371 135.97C168.222 127.544 166.979 121.326 166.392 118.474L154.822 119.979C148.531 120.797 147.562 130.439 147.562 130.439C147.562 130.439 146.914 125.87 146.26 123.341C145.672 121.326 144.698 118.838 144.698 118.838C144.698 118.838 148.73 118.993 154.222 118.279L174.375 115.659C174.375 115.659 172.776 116.703 172.736 117.649C172.897 120.557 173.32 127.142 174.483 136.089C175.801 146.219 177.016 152.231 177.557 154.722C177.804 155.37 179.637 156.125 179.637 156.125L159.477 158.694C153.986 159.408 150.127 160.59 150.127 160.59C150.127 160.59 150.44 157.987 150.485 155.837C150.471 153.225 149.936 148.693 149.936 148.693Z" fill="white"/>
<path d="M105.233 144.937L111.53 144.171C111.53 144.171 109.918 145.531 110.387 149.967L111.677 159.89C113.504 161.012 115.783 161.448 118.742 161.691C119.895 161.802 121.028 161.759 122.148 161.614C127.319 160.941 131.843 157.791 134.074 153.265C135.106 151.197 136.318 147.588 136.623 144.516C136.782 142.822 136.682 141.214 136.474 139.62C136.26 137.974 135.94 136.343 135.453 134.681C133.918 129.129 128.464 125.132 122.166 124.644C121.073 124.577 119.933 124.568 118.867 124.707C114.122 125.324 109.924 128.066 107.507 131.988L108.403 124.708C108.617 125.098 109.65 125.121 109.856 125.042C112.282 123.681 114.98 122.754 117.806 122.387C119.299 122.193 120.918 122.139 122.511 122.298C132.862 123.096 140.849 130.737 142.093 140.301C142.287 141.792 142.268 143.311 142.142 144.844C141.159 154.802 133.172 162.586 123.308 163.868C118.244 164.527 114.044 163.504 110.618 161.754C110.158 161.552 109.518 161.217 109.172 161.053L108.831 158.849L107.687 150.056C107.086 145.847 105.233 144.937 105.233 144.937Z" fill="white"/>
<path d="M85.1631 129.926C84.6379 132.975 83.7073 138.743 82.8044 147.226L92.2411 145.999L85.1631 129.926ZM99.8128 163.368L92.9482 147.685L82.6586 149.023C81.922 156.701 81.6445 162.488 81.5259 165.746L81.5593 166.003C81.7666 167.597 84.4861 168.498 84.4861 168.498L73.2301 169.909C73.2301 169.909 74.9425 168.902 75.3148 166.762C75.8998 163.34 76.9236 157.037 77.7465 148.773C78.6892 139.761 78.9134 133.98 78.9987 130.884C78.9786 130.73 79.0186 130.62 79.0052 130.517C78.7645 128.666 76.5051 128.385 76.5051 128.385L88.874 126.777C88.874 126.777 87.1083 127.791 87.2287 128.716L87.2354 128.768C87.2822 129.127 89.224 134.888 94.4874 146.596C97.8428 154.055 99.5103 157.289 102.405 162.874C103.346 164.686 106.292 165.663 106.292 165.663L97.6548 166.786C97.6948 166.676 100.16 165.623 99.9329 163.875C99.9129 163.721 99.8861 163.515 99.8128 163.368Z" fill="white"/>
<path d="M31.8475 175.291C31.8475 175.291 34.0864 174.163 33.9655 171.982C33.8309 168.863 33.4153 163.165 32.2987 154.578C31.249 146.505 30.1401 140.479 29.4523 137.275C29.0116 135.136 26.5922 134.875 26.5922 134.875L37.7349 133.426C37.7349 133.426 35.5228 134.76 35.6368 136.471C35.7982 139.796 36.2672 145.905 37.3102 153.926C38.2597 161.228 39.1483 166.393 39.7895 169.656C41.514 165.824 43.9441 159.914 46.5935 152.353C51.1334 139.318 53.223 132.04 53.1428 131.423L62.0997 130.258C62.0997 130.258 59.8342 131.599 59.9482 133.309C60.1629 136.628 60.5787 142.744 61.6217 150.765C62.7316 159.301 63.7404 164.973 64.4614 168.017C64.842 169.693 67.3017 170.68 67.3017 170.68L56.159 172.129C56.159 172.129 58.3978 171.002 58.2769 168.821C58.1424 165.701 57.7268 160.004 56.6102 151.417C55.7209 144.578 54.759 139.265 54.0911 135.796L40.8043 174.126L31.8475 175.291Z" fill="white"/>
</svg>
