<svg width="36" height="36" viewBox="0 0 36 36" fill="none" xmlns="http://www.w3.org/2000/svg">
<g opacity="0.4" clip-path="url(#clip0)">
<path fill-rule="evenodd" clip-rule="evenodd" d="M2.5262 2.5262C0 5.0524 0 9.11827 0 17.25V18.75C0 26.8817 0 30.9476 2.5262 33.4738C5.0524 36 9.11827 36 17.25 36H18.75C26.8817 36 30.9476 36 33.4738 33.4738C36 30.9476 36 26.8817 36 18.75V17.25C36 9.11827 36 5.0524 33.4738 2.5262C30.9476 0 26.8817 0 18.75 0H17.25C9.11827 0 5.0524 0 2.5262 2.5262ZM7.12508 11.25H9.75068C10.4217 11.25 10.6742 11.5436 10.9258 12.2705C12.2099 16.0103 14.3751 19.2787 15.2652 19.2787C15.5989 19.2787 15.7521 19.125 15.7521 18.2775V14.4118C15.6918 13.3115 15.3074 12.8357 15.0226 12.4832C14.8467 12.2655 14.7088 12.0949 14.7088 11.8534C14.7088 11.5597 14.9598 11.25 15.3769 11.25H19.5029C20.0594 11.25 20.2531 11.5475 20.2531 12.215V17.4154C20.2531 17.9715 20.4946 18.1662 20.6615 18.1662C20.9953 18.1662 21.2735 17.9715 21.8855 17.3597C23.777 15.2461 25.1122 11.9924 25.1122 11.9924C25.2791 11.6031 25.5869 11.25 26.2545 11.25H28.8801C29.6741 11.25 29.841 11.6587 29.6741 12.215C29.3403 13.7444 26.1414 18.2497 26.1414 18.2497C25.8632 18.6946 25.752 18.9171 26.1414 19.4177C26.2786 19.6096 26.5711 19.8962 26.906 20.2241C27.2503 20.5613 27.6392 20.9422 27.9495 21.3088C29.0773 22.5772 29.9273 23.6474 30.1641 24.385C30.3805 25.125 30.0054 25.5 29.2552 25.5H26.6296C25.9263 25.5 25.5722 25.1062 24.807 24.2551C24.4826 23.8944 24.0844 23.4515 23.5545 22.9217C21.9967 21.42 21.3292 21.2253 20.9397 21.2253C20.4112 21.2253 20.2532 21.375 20.2532 22.125V24.4791C20.2532 25.125 20.0467 25.5 18.3777 25.5C15.596 25.5 12.5392 23.8116 10.3695 20.6969C7.115 16.1361 6.22485 12.6877 6.22485 11.9924C6.22485 11.6031 6.3749 11.25 7.12508 11.25Z" fill="#182F27"/>
</g>
<defs>
<clipPath id="clip0">
<rect width="36" height="36" fill="white"/>
</clipPath>
</defs>
</svg>
