<svg width="30" height="30" viewBox="0 0 30 30" fill="none" xmlns="http://www.w3.org/2000/svg">
<path fill-rule="evenodd" clip-rule="evenodd" d="M15 30C23.2843 30 30 23.2843 30 15C30 6.71573 23.2843 0 15 0C6.71573 0 0 6.71573 0 15C0 23.2843 6.71573 30 15 30ZM15.4024 6.75001C17.4878 6.75001 19.4634 7.57033 20.9451 9.04689C22.4268 10.5235 23.1951 12.4922 23.25 14.5156C23.25 18.836 19.7378 22.336 15.4024 22.336C14.0854 22.336 12.8232 22.0078 11.6707 21.4063L7.5 22.5L8.59756 18.4531C7.93902 17.3047 7.55488 15.9375 7.55488 14.5703C7.55488 10.25 11.0671 6.75001 15.4024 6.75001ZM17.872 18.2891C18.2561 18.2344 19.0244 17.7969 19.189 17.3594C19.3537 16.9219 19.3537 16.5391 19.2988 16.375C19.2439 16.3203 19.1341 16.2656 18.9146 16.1563C18.75 16.0469 17.7622 15.5547 17.5976 15.5C17.4329 15.4453 17.2683 15.3906 17.1585 15.6094C17.0488 15.8281 16.6646 16.2656 16.5549 16.375C16.4451 16.4844 16.3354 16.5391 16.1159 16.4297C16.0826 16.4131 16.0405 16.394 15.9903 16.3713C15.7095 16.244 15.1762 16.0021 14.5244 15.4453C13.9207 14.8985 13.5366 14.2969 13.4268 14.0781C13.3171 13.9141 13.4268 13.8047 13.5366 13.6953C13.5593 13.6727 13.5915 13.6313 13.6291 13.5827C13.6824 13.5141 13.7467 13.4313 13.811 13.3672C13.9207 13.2578 13.9756 13.1485 14.0305 13.0391C14.0854 12.9297 14.0854 12.8203 14.0305 12.711C13.9943 12.6749 13.8149 12.2346 13.6498 11.8291C13.5644 11.6196 13.4829 11.4195 13.4268 11.2891C13.2797 10.9469 13.1325 10.9543 13.0245 10.9597C13.0117 10.9603 12.9994 10.961 12.9878 10.961H12.6037C12.439 10.961 12.2195 10.961 12.0549 11.1797C12.0331 11.2086 12.0056 11.2414 11.9741 11.2788C11.7682 11.5238 11.3963 11.9662 11.3963 12.8203C11.3963 13.8047 12.1098 14.7344 12.2195 14.8438C12.2226 14.8483 12.2265 14.8543 12.2313 14.8615C12.3999 15.1162 13.6463 16.9993 15.5671 17.7969C15.8732 17.9494 16.1526 18.0488 16.3867 18.132C16.4884 18.1682 16.5816 18.2013 16.6646 18.2344C17.1037 18.3438 17.5427 18.3438 17.872 18.2891Z" fill="#182F27"/>
</svg>
